SplineFontDB: 2.0
FontName: FreeSerifBold
FullName: Free Serif Bold
FamilyName: FreeSerif
Weight: Bold
Copyright: Copyleft 2002, 2003, 2005, 2008 Free Software Foundation.
Version: $Revision: 1.83 $
ItalicAngle: 0
UnderlinePosition: -100
UnderlineWidth: 50
Ascent: 800
Descent: 200
LayerCount: 2
Layer: 0 0 "Back" 
Layer: 1 0 "Fore" 
NeedsXUIDChange: 1
FSType: 0
OS2Version: 0
OS2_WeightWidthSlopeOnly: 0
OS2_UseTypoMetrics: 0
CreationTime: 1203284335
ModificationTime: 1211667760
PfmFamily: 17
TTFWeight: 700
TTFWidth: 5
LineGap: 90
VLineGap: 0
Panose: 2 2 8 3 7 5 5 2 3 4
OS2TypoAscent: 0
OS2TypoAOffset: 1
OS2TypoDescent: 0
OS2TypoDOffset: 1
OS2TypoLinegap: 0
OS2WinAscent: 900
OS2WinAOffset: 0
OS2WinDescent: 300
OS2WinDOffset: 0
HheadAscent: 900
HheadAOffset: 0
HheadDescent: -300
HheadDOffset: 0
OS2SubXSize: 650
OS2SubYSize: 699
OS2SubXOff: 47
OS2SubYOff: 140
OS2SupXSize: 650
OS2SupYSize: 699
OS2SupXOff: -163
OS2SupYOff: 479
OS2StrikeYSize: 49
OS2StrikeYPos: 258
OS2Vendor: 'GNU '
Lookup: 4 1 0 "'ccmp' Glyph Composition/Decomposition in Hebrew"  {"'ccmp' Glyph Composition/Decomposition in Hebrew subtable"  } ['ccmp' ('hebr' <'dflt' > ) ]
Lookup: 4 0 1 "'liga' Standard Ligatures in Latin for Dutch"  {"'liga' Standard Ligatures in Latin for Dutch"  } ['liga' ('latn' <'NLD ' > ) ]
Lookup: 4 1 1 "'liga' Standard Ligatures in Hebrew"  {"'liga' Standard Ligatures in Hebrew lookup 1 subtable"  } ['liga' ('hebr' <'dflt' > ) ]
Lookup: 4 0 1 "'liga' Standard Ligatures in Latin"  {"'liga' Standard Ligatures in Latin subtable"  } ['liga' ('latn' <'dflt' > ) ]
Lookup: 4 1 0 "'dlig' Discretionary Ligatures in Hebrew"  {"'dlig' Discretionary Ligatures in Hebrew subtable"  } ['dlig' ('hebr' <'dflt' > ) ]
Lookup: 4 0 0 "'frac' Diagonal Fractions"  {"'frac' Diagonal Fractions subtable"  } ['frac' ('DFLT' <'dflt' > ) ]
Lookup: 260 0 0 "'blwm' Below Base Mark in Latin"  {"'blwm' Below Base Mark in Latin subtable"  } ['blwm' ('latn' <'dflt' > ) ]

StartChar: exclam
Encoding: 33 33 1
Width: 333
Flags: MW
LayerCount: 2
Fore
SplineSet
166 156 m 0
 213 156 251 117 251 70 c 0
 251 24 213 -13 165 -13 c 0
 118 -13 82 24 82 72 c 0
 82 117 120 156 166 156 c 0
250 589 m 0
 250 509 208 503 180 234 c 1
 151 234 l 1
 124 492 81 515 81 591 c 0
 81 654 112 691 166 691 c 0
 219 691 250 654 250 589 c 0
EndSplineSet
Validated: 3073
EndChar

StartChar: quotedbl
Encoding: 34 34 2
Width: 555
Flags: MW
LayerCount: 2
Fore
SplineSet
127 404 m 1
 114 463 83 582 83 620 c 0
 83 663 109 691 147 691 c 0
 184 691 212 662 212 624 c 0
 212 602 202 551 168 404 c 1
 127 404 l 1
387 404 m 1
 374 460 343 585 343 620 c 0
 343 663 369 691 407 691 c 0
 444 691 472 662 472 624 c 0
 472 602 459 537 428 404 c 1
 387 404 l 1
EndSplineSet
Validated: 3073
EndChar

StartChar: numbersign
Encoding: 35 35 3
Width: 500
Flags: MW
LayerCount: 2
Fore
SplineSet
467 283 m 1
 467 210 l 1
 369 210 l 1
 340 0 l 1
 262 0 l 1
 291 210 l 1
 178 210 l 1
 149 0 l 1
 71 0 l 1
 100 210 l 1
 4 210 l 1
 4 283 l 1
 111 283 l 1
 129 417 l 1
 33 417 l 1
 33 490 l 1
 139 490 l 1
 169 700 l 1
 246 700 l 1
 217 490 l 1
 330 490 l 1
 360 700 l 1
 437 700 l 1
 408 490 l 1
 496 490 l 1
 496 417 l 1
 398 417 l 1
 380 283 l 1
 467 283 l 1
320 417 m 1
 207 417 l 1
 189 283 l 1
 302 283 l 1
 320 417 l 1
EndSplineSet
Validated: 3073
EndChar

StartChar: dollar
Encoding: 36 36 4
Width: 500
Flags: MW
LayerCount: 2
Fore
SplineSet
29 496 m 0
 29 593 96 659 214 672 c 1
 214 750 l 1
 269 750 l 1
 269 674 l 1
 347 661 381 650 428 622 c 1
 428 481 l 1
 407 481 l 1
 378 581 340 625 269 641 c 1
 269 426 l 1
 369 374 472 325 472 196 c 0
 472 78 408 25 269 0 c 1
 269 -99 l 1
 214 -99 l 1
 214 0 l 1
 152 3 128 9 46 43 c 1
 46 199 l 1
 67 197 l 1
 99 89 139 44 213 30 c 1
 213 281 l 1
 79 348 29 407 29 496 c 0
269 250 m 1
 269 30 l 1
 332 42 362 75 362 134 c 0
 362 188 349 205 269 250 c 1
213 454 m 1
 213 644 l 1
 150 628 124 602 124 554 c 0
 124 508 153 475 213 454 c 1
EndSplineSet
Validated: 3073
EndChar

StartChar: percent
Encoding: 37 37 5
Width: 1000
Flags: MW
LayerCount: 2
Fore
SplineSet
877 257 m 0
 877 199 833 -14 668 -14 c 0
 588 -14 535 41 535 125 c 0
 535 248 648 372 761 372 c 0
 831 372 877 327 877 257 c 0
701 32 m 0
 773 32 844 165 844 249 c 0
 844 290 822 321 792 321 c 0
 713 321 652 135 652 88 c 0
 652 52 669 32 701 32 c 0
350 678 m 0
 425 678 420 623 518 623 c 0
 579 623 653 650 675 681 c 0
 680 688 685 692 690 692 c 2
 728 692 l 1
 334 -8 l 1
 279 -8 l 1
 627 612 l 1
 585 594 546 585 512 585 c 0
 498 585 486 586 465 590 c 1
 463 411 372 294 253 294 c 0
 177 294 124 350 124 430 c 0
 124 558 234 678 350 678 c 0
369 631 m 0
 334 631 238 489 238 392 c 0
 238 362 257 340 286 340 c 0
 363 340 432 483 432 569 c 0
 432 607 379 631 369 631 c 0
EndSplineSet
Validated: 3073
EndChar

StartChar: ampersand
Encoding: 38 38 6
Width: 833
Flags: MW
LayerCount: 2
Fore
SplineSet
577 419 m 1
 783 419 l 1
 783 395 l 1
 740 391 728 384 710 355 c 2
 683 311 l 2
 656 268 645 252 590 176 c 1
 646 104 671 85 709 85 c 0
 733 85 750 96 767 123 c 1
 787 111 l 1
 771 85 l 2
 756 61 718 -16 624 -16 c 0
 571 -16 535 6 475 72 c 1
 393 11 327 -15 253 -15 c 0
 141 -15 62 58 62 161 c 0
 62 255 116 318 258 388 c 1
 218 457 206 489 206 533 c 0
 206 630 281 691 401 691 c 0
 502 691 568 643 568 569 c 0
 568 506 522 462 416 423 c 1
 567 209 l 1
 625 281 643 314 643 354 c 0
 643 383 636 388 577 395 c 1
 577 419 l 1
201 264 m 0
 201 187 271 61 362 61 c 0
 388 61 413 72 452 100 c 1
 420 142 398 174 323 286 c 2
 275 358 l 1
 220 326 201 301 201 264 c 0
397 452 m 1
 447 469 467 492 467 533 c 0
 467 600 424 658 375 658 c 0
 343 658 323 637 323 602 c 0
 323 561 344 518 397 452 c 1
EndSplineSet
Validated: 3073
EndChar

StartChar: quotesingle
Encoding: 39 39 7
Width: 278
Flags: MW
LayerCount: 2
Fore
SplineSet
119 404 m 1
 108 449 75 583 75 620 c 0
 75 663 101 691 139 691 c 0
 176 691 204 662 204 624 c 0
 204 602 193 548 160 404 c 1
 119 404 l 1
EndSplineSet
Validated: 3073
EndChar

StartChar: parenleft
Encoding: 40 40 8
Width: 333
Flags: MW
LayerCount: 2
Fore
SplineSet
159 258 m 0
 159 -58 243 -100 306 -140 c 1
 306 -168 l 1
 208 -109 165 -69 119 3 c 0
 71 79 46 168 46 259 c 0
 46 388 92 507 177 599 c 0
 216 640 244 661 306 694 c 1
 306 667 l 1
 195 593 159 523 159 258 c 0
EndSplineSet
Validated: 3073
EndChar

StartChar: parenright
Encoding: 41 41 9
Width: 333
Flags: MW
LayerCount: 2
Fore
SplineSet
27 694 m 1
 115 641 287 523 287 266 c 0
 287 138 241 19 155 -73 c 0
 117 -114 89 -135 27 -168 c 1
 27 -141 l 1
 140 -66 174 7 174 268 c 0
 174 581 93 623 27 666 c 1
 27 694 l 1
EndSplineSet
Validated: 3073
EndChar

StartChar: asterisk
Encoding: 42 42 10
Width: 507
Flags: MW
LayerCount: 2
Fore
SplineSet
443 551 m 0
 443 486 328 491 284 473 c 1
 327 454 442 456 442 393 c 0
 442 366 418 340 390 340 c 0
 345 340 303 419 269 445 c 1
 273 401 301 358 301 314 c 0
 301 285 281 262 251 262 c 0
 220 262 198 284 198 314 c 0
 198 358 230 402 235 445 c 1
 201 420 153 343 110 343 c 0
 82 343 60 370 60 397 c 0
 60 462 175 456 219 474 c 1
 176 493 62 493 62 555 c 0
 62 582 85 608 113 608 c 0
 159 608 200 528 235 502 c 1
 230 546 202 590 202 633 c 0
 202 663 222 685 252 685 c 0
 283 685 305 664 305 633 c 0
 305 592 273 545 268 503 c 1
 303 528 350 604 393 604 c 0
 421 604 443 578 443 551 c 0
EndSplineSet
Validated: 3073
EndChar

StartChar: plus
Encoding: 43 43 11
Width: 676
Flags: MW
LayerCount: 2
Fore
SplineSet
614 209 m 1
 387 209 l 1
 387 -16 l 1
 291 -16 l 1
 291 209 l 1
 62 209 l 1
 62 305 l 1
 291 305 l 1
 291 528 l 1
 387 528 l 1
 387 305 l 1
 614 305 l 1
 614 209 l 1
EndSplineSet
Validated: 3073
EndChar

StartChar: comma
Encoding: 44 44 12
Width: 250
Flags: MW
LayerCount: 2
Fore
SplineSet
136 -4 m 0
 128 -4 132 -6 112 -6 c 0
 69 -6 39 26 39 72 c 0
 39 122 72 155 122 155 c 0
 182 155 223 108 223 39 c 0
 223 -47 173 -113 57 -180 c 1
 46 -158 l 1
 121 -106 155 -64 155 -26 c 0
 155 -13 147 -4 136 -4 c 0
EndSplineSet
Validated: 3073
EndChar

StartChar: hyphen
Encoding: 45 45 13
Width: 333
Flags: MW
LayerCount: 2
Fore
SplineSet
287 287 m 1
 287 171 l 1
 44 171 l 1
 44 287 l 1
 287 287 l 1
EndSplineSet
Validated: 3073
EndChar

StartChar: period
Encoding: 46 46 14
Width: 250
Flags: MW
LayerCount: 2
Fore
SplineSet
125 156 m 0
 172 156 210 117 210 70 c 0
 210 24 172 -13 124 -13 c 0
 77 -13 41 24 41 72 c 0
 41 117 79 156 125 156 c 0
EndSplineSet
Validated: 3073
EndChar

StartChar: slash
Encoding: 47 47 15
Width: 278
Flags: MW
LayerCount: 2
Fore
SplineSet
302 691 m 1
 66 -19 l 1
 -24 -19 l 1
 212 691 l 1
 302 691 l 1
EndSplineSet
Validated: 3073
EndChar

StartChar: zero
Encoding: 48 48 16
Width: 500
Flags: MW
LayerCount: 2
Fore
SplineSet
24 340 m 0
 24 536 121 688 250 688 c 0
 379 688 476 537 476 337 c 0
 476 136 380 -13 251 -13 c 0
 118 -13 24 134 24 340 c 0
251 15 m 0
 291 15 318 56 318 222 c 2
 318 451 l 2
 318 598 298 660 249 660 c 0
 201 660 182 602 182 451 c 2
 182 222 l 2
 182 74 201 15 251 15 c 0
EndSplineSet
Validated: 3073
EndChar

StartChar: one
Encoding: 49 49 17
Width: 500
Flags: HMW
LayerCount: 2
Fore
SplineSet
150 578 m 0
 124 578 81 558 65 553 c 1
 65 579 l 1
 317 688 l 1
 334 688 l 1
 334 118 l 2
 334 41 351 26 442 24 c 1
 442 0 l 1
 67 0 l 1
 67 24 l 1
 166 25 186 42 186 124 c 2
 186 509 l 2
 186 556 175 578 150 578 c 0
EndSplineSet
Validated: 3073
EndChar

StartChar: two
Encoding: 50 50 18
Width: 500
Flags: MW
LayerCount: 2
Fore
SplineSet
31 484 m 1
 87 635 162 688 251 688 c 0
 359 688 436 612 436 505 c 0
 436 429 401 362 322 287 c 2
 160 133 l 1
 311 133 l 2
 413 133 425 139 454 211 c 1
 478 211 l 1
 433 0 l 1
 17 0 l 1
 17 23 l 1
 253 275 300 359 300 447 c 0
 300 512 255 574 181 574 c 0
 127 574 90 546 59 484 c 1
 31 484 l 1
EndSplineSet
Validated: 3073
EndChar

StartChar: three
Encoding: 51 51 19
Width: 500
Flags: MW
LayerCount: 2
Fore
SplineSet
354 154 m 0
 354 275 259 319 153 356 c 1
 153 373 l 1
 248 403 283 438 283 504 c 0
 283 567 244 607 181 607 c 0
 129 607 96 584 58 523 c 1
 37 535 l 1
 92 638 167 688 266 688 c 0
 368 688 429 637 429 551 c 0
 429 492 410 463 346 424 c 1
 441 381 468 312 468 246 c 0
 468 100 336 -14 169 -14 c 0
 77 -14 16 22 16 76 c 0
 16 110 43 134 81 134 c 0
 159 134 191 36 256 36 c 0
 316 36 354 82 354 154 c 0
EndSplineSet
Validated: 3073
EndChar

StartChar: four
Encoding: 52 52 20
Width: 500
Flags: MW
LayerCount: 2
Fore
SplineSet
412 255 m 1
 475 255 l 1
 475 144 l 1
 412 144 l 1
 412 0 l 1
 267 0 l 1
 267 144 l 1
 19 144 l 1
 19 257 l 1
 79 352 145 444 273 611 c 2
 332 688 l 1
 412 688 l 1
 412 255 l 1
269 255 m 1
 269 552 l 1
 60 255 l 1
 269 255 l 1
EndSplineSet
Validated: 3073
EndChar

StartChar: five
Encoding: 53 53 21
Width: 500
Flags: MW
LayerCount: 2
Fore
SplineSet
84 140 m 0
 155 140 209 53 273 53 c 0
 329 53 373 97 373 153 c 0
 373 219 320 276 231 304 c 0
 187 318 146 324 51 331 c 1
 148 676 l 1
 470 676 l 1
 427 549 l 1
 149 549 l 1
 127 468 l 1
 209 463 240 459 278 448 c 0
 387 417 451 337 451 233 c 0
 451 92 334 -8 169 -8 c 0
 80 -8 22 27 22 80 c 0
 22 115 48 140 84 140 c 0
EndSplineSet
Validated: 3073
EndChar

StartChar: six
Encoding: 54 54 22
Width: 500
Flags: MW
LayerCount: 2
Fore
SplineSet
470 688 m 1
 470 662 l 1
 324 632 241 551 204 404 c 1
 234 417 256 421 288 421 c 0
 402 421 475 343 475 222 c 0
 475 86 384 -13 260 -13 c 0
 120 -13 28 100 28 273 c 0
 28 406 87 518 199 595 c 0
 275 647 337 669 470 688 c 1
184 242 m 0
 184 50 215 14 262 14 c 0
 311 14 323 44 323 162 c 0
 323 321 300 376 233 376 c 0
 190 376 184 362 184 242 c 0
EndSplineSet
Validated: 3073
EndChar

StartChar: seven
Encoding: 55 55 23
Width: 500
Flags: MW
LayerCount: 2
Fore
SplineSet
477 676 m 1
 242 0 l 1
 147 0 l 1
 347 539 l 1
 140 539 l 2
 85 539 61 518 42 454 c 1
 17 454 l 1
 61 676 l 1
 477 676 l 1
EndSplineSet
Validated: 3073
EndChar

StartChar: eight
Encoding: 56 56 24
Width: 500
Flags: MW
LayerCount: 2
Fore
SplineSet
28 157 m 0
 28 257 98 297 178 324 c 1
 79 383 39 438 39 513 c 0
 39 618 128 688 263 688 c 0
 382 688 458 632 458 543 c 0
 458 479 418 438 322 404 c 1
 429 336 472 274 472 187 c 0
 472 67 379 -13 240 -13 c 0
 113 -13 28 55 28 157 c 0
298 422 m 1
 331 466 339 489 339 536 c 0
 339 614 307 659 251 659 c 0
 204 659 168 623 168 576 c 0
 168 520 214 465 298 422 c 1
200 306 m 1
 160 247 149 216 149 161 c 0
 149 72 185 19 246 19 c 0
 300 19 333 60 333 127 c 0
 333 201 309 233 200 306 c 1
EndSplineSet
Validated: 3073
EndChar

StartChar: nine
Encoding: 57 57 25
Width: 500
Flags: MW
LayerCount: 2
Fore
SplineSet
31 -13 m 1
 31 13 l 1
 175 42 256 121 299 273 c 1
 272 259 246 254 208 254 c 0
 99 254 26 334 26 452 c 0
 26 589 116 688 241 688 c 0
 381 688 473 575 473 402 c 0
 473 275 419 168 317 91 c 0
 239 32 171 7 31 -13 c 1
317 458 m 0
 317 618 286 661 239 661 c 0
 190 661 178 631 178 515 c 0
 178 358 201 299 263 299 c 0
 311 299 308 317 309 328 c 2
 312 354 l 1
 315 399 317 431 317 458 c 0
EndSplineSet
Validated: 3073
EndChar

StartChar: colon
Encoding: 58 58 26
Width: 333
Flags: MW
LayerCount: 2
Fore
SplineSet
166 156 m 0
 213 156 251 117 251 70 c 0
 251 24 213 -13 165 -13 c 0
 118 -13 82 24 82 72 c 0
 82 117 120 156 166 156 c 0
166 472 m 0
 213 472 251 434 251 387 c 0
 251 341 213 303 166 303 c 0
 118 303 82 340 82 389 c 0
 82 434 120 472 166 472 c 0
EndSplineSet
Validated: 3073
EndChar

StartChar: semicolon
Encoding: 59 59 27
Width: 333
Flags: MW
LayerCount: 2
Fore
SplineSet
153 -6 m 2
 139 -6 82 6 82 72 c 0
 82 122 115 155 165 155 c 0
 225 155 266 108 266 39 c 0
 266 -47 216 -113 100 -180 c 1
 89 -158 l 1
 164 -106 198 -64 198 -25 c 0
 198 -14 190 -4 180 -4 c 2
 173 -4 l 1
 161 -6 l 1
 153 -6 l 2
166 472 m 0
 213 472 251 434 251 387 c 0
 251 341 213 303 166 303 c 0
 118 303 82 340 82 389 c 0
 82 434 120 472 166 472 c 0
EndSplineSet
Validated: 3073
EndChar

StartChar: less
Encoding: 60 60 28
Width: 676
Flags: MW
LayerCount: 2
Fore
SplineSet
614 -25 m 1
 62 234 l 1
 62 280 l 1
 614 539 l 1
 614 439 l 1
 226 257 l 1
 614 75 l 1
 614 -25 l 1
EndSplineSet
Validated: 3073
EndChar

StartChar: equal
Encoding: 61 61 29
Width: 676
Flags: MW
LayerCount: 2
Fore
SplineSet
614 331 m 1
 62 331 l 1
 62 427 l 1
 614 427 l 1
 614 331 l 1
614 87 m 1
 62 87 l 1
 62 183 l 1
 614 183 l 1
 614 87 l 1
EndSplineSet
Validated: 3073
EndChar

StartChar: greater
Encoding: 62 62 30
Width: 676
Flags: HMW
LayerCount: 2
Fore
SplineSet
62 539 m 1
 614 280 l 1
 614 234 l 1
 62 -25 l 1
 62 75 l 1
 450 257 l 1
 62 439 l 1
 62 539 l 1
EndSplineSet
EndChar

StartChar: question
Encoding: 63 63 31
Width: 500
Flags: MW
LayerCount: 2
Fore
SplineSet
151 613 m 0
 151 584 188 580 188 533 c 0
 188 495 163 469 125 469 c 0
 86 469 57 501 57 545 c 0
 57 629 135 689 245 689 c 0
 365 689 445 623 445 523 c 0
 445 454 415 413 324 357 c 0
 261 318 253 304 253 231 c 1
 223 231 l 1
 221 261 221 266 221 277 c 0
 221 362 296 397 296 523 c 0
 296 605 265 653 212 653 c 0
 176 653 151 637 151 613 c 0
239 156 m 0
 285 156 323 117 323 71 c 0
 323 24 286 -13 239 -13 c 0
 191 -13 154 24 154 72 c 0
 154 117 193 156 239 156 c 0
EndSplineSet
Validated: 3073
EndChar

StartChar: at
Encoding: 64 64 32
Width: 930
Flags: MW
LayerCount: 2
Fore
SplineSet
319 259 m 0
 319 314 362 519 522 519 c 0
 558 519 573 509 595 466 c 1
 606 506 l 1
 677 506 l 1
 611 246 l 1
 610 241 609 234 609 228 c 0
 609 197 622 180 647 180 c 0
 713 180 775 279 775 385 c 0
 775 529 642 652 486 652 c 0
 320 652 200 515 200 325 c 0
 200 151 324 27 499 27 c 0
 566 27 616 39 698 76 c 1
 711 41 l 1
 614 -5 561 -19 487 -19 c 0
 274 -19 108 134 108 330 c 0
 108 531 275 691 485 691 c 0
 675 691 822 560 822 390 c 0
 822 257 735 143 633 143 c 0
 583 143 546 173 539 218 c 1
 504 172 456 144 413 144 c 0
 360 144 319 194 319 259 c 0
455 191 m 0
 525 191 577 330 577 414 c 0
 577 455 559 470 536 470 c 0
 480 470 396 393 396 277 c 0
 396 224 419 191 455 191 c 0
EndSplineSet
Validated: 3073
EndChar

StartChar: A
Encoding: 65 65 33
Width: 722
Flags: HMW
AnchorPoint: "below" 351 0 basechar 0
AnchorPoint: "above" 343 660 basechar 0
LayerCount: 2
Fore
SplineSet
689 25 m 1
 689 0 l 1
 365 0 l 1
 365 25 l 1
 379 27 392 28 397 28 c 0
 432 30 445 40 445 61 c 0
 445 83 433 119 399 197 c 1
 174 197 l 1
 159 158 l 2
 138 104 130 79 130 66 c 0
 130 40 153 29 212 25 c 1
 212 0 l 1
 9 0 l 1
 9 25 l 1
 57 34 69 49 107 142 c 2
 329 690 l 1
 357 690 l 1
 580 164 l 2
 630 46 646 25 685 25 c 2
 689 25 l 1
189 236 m 1
 384 236 l 1
 283 479 l 1
 189 236 l 1
EndSplineSet
Validated: 3073
EndChar

StartChar: B
Encoding: 66 66 34
Width: 667
Flags: HMW
AnchorPoint: "below" 305 0 basechar 0
LayerCount: 2
Fore
SplineSet
426 365 m 1
 478 354 619 321 619 188 c 0
 619 75 507 0 338 0 c 2
 16 0 l 1
 16 25 l 1
 89 33 104 45 104 96 c 2
 104 580 l 2
 104 631 85 647 16 651 c 1
 16 676 l 1
 325 676 l 2
 492 676 585 619 585 516 c 0
 585 440 542 399 426 365 c 1
264 343 m 1
 264 93 l 2
 264 49 281 32 325 32 c 0
 406 32 447 82 447 179 c 0
 447 289 397 343 294 343 c 2
 264 343 l 1
264 597 m 2
 264 373 l 1
 387 376 420 404 420 509 c 0
 420 603 388 646 318 646 c 0
 279 646 264 633 264 597 c 2
EndSplineSet
Validated: 3073
EndChar

StartChar: C
Encoding: 67 67 35
Width: 722
Flags: HMW
AnchorPoint: "below" 403 0 basechar 0
LayerCount: 2
Fore
SplineSet
427 29 m 0
 523 29 592 84 657 152 c 1
 687 127 l 1
 647 83 568 -19 403 -19 c 0
 196 -19 49 127 49 333 c 0
 49 537 198 691 397 691 c 0
 506 691 558 642 598 642 c 0
 617 642 628 653 642 688 c 1
 669 688 l 1
 669 454 l 1
 644 454 l 1
 620 505 542 658 410 658 c 0
 290 658 226 548 226 341 c 0
 226 101 314 29 427 29 c 0
EndSplineSet
Validated: 3073
EndChar

StartChar: D
Encoding: 68 68 36
Width: 724
Flags: HMW
AnchorPoint: "below" 300 0 basechar 0
LayerCount: 2
Fore
SplineSet
99 91 m 2
 99 584 l 2
 99 630 80 645 16 651 c 1
 16 676 l 1
 321 676 l 2
 552 676 692 551 692 345 c 0
 692 138 548 0 332 0 c 2
 16 0 l 1
 16 25 l 1
 74 27 99 47 99 91 c 2
518 330 m 0
 518 576 410 642 320 642 c 0
 281 642 261 630 261 607 c 2
 261 93 l 2
 261 48 274 35 319 35 c 0
 423 35 518 98 518 330 c 0
EndSplineSet
Validated: 3073
EndChar

StartChar: E
Encoding: 69 69 37
Width: 667
Flags: MW
AnchorPoint: "below" 339 0 basechar 0
AnchorPoint: "above" 343 660 basechar 0
LayerCount: 2
Fore
SplineSet
349 31 m 0
 507 31 565 105 613 208 c 1
 641 208 l 1
 601 0 l 1
 16 0 l 1
 16 25 l 1
 90 33 104 44 104 96 c 2
 104 580 l 2
 104 631 85 647 16 651 c 1
 16 676 l 1
 593 676 l 1
 593 475 l 1
 568 475 l 1
 543 608 494 642 331 642 c 0
 279 642 266 633 266 595 c 2
 266 363 l 1
 267 363 269 363 270 363 c 0
 375 363 413 400 428 512 c 1
 454 512 l 1
 454 174 l 1
 428 174 l 1
 416 290 375 329 266 329 c 1
 266 87 l 2
 266 44 285 31 349 31 c 0
EndSplineSet
Validated: 3073
EndChar

StartChar: F
Encoding: 70 70 38
Width: 611
Flags: HMW
AnchorPoint: "below" 240 0 basechar 0
LayerCount: 2
Fore
SplineSet
559 475 m 1
 539 566 525 642 330 642 c 0
 279 642 266 632 266 595 c 2
 266 363 l 1
 366 363 401 398 419 512 c 1
 444 512 l 1
 444 174 l 1
 419 174 l 1
 405 290 368 327 266 329 c 1
 266 96 l 2
 266 41 284 29 376 25 c 1
 376 0 l 1
 16 0 l 1
 16 25 l 1
 90 33 104 44 104 96 c 2
 104 580 l 2
 104 632 85 647 16 651 c 1
 16 676 l 1
 583 676 l 1
 583 475 l 1
 559 475 l 1
EndSplineSet
Validated: 3073
EndChar

StartChar: G
Encoding: 71 71 39
Width: 778
Flags: HMW
AnchorPoint: "below" 395 0 basechar 0
LayerCount: 2
Fore
SplineSet
385 691 m 0
 494 691 546 642 586 642 c 0
 605 642 616 653 630 688 c 1
 657 688 l 1
 657 454 l 1
 632 454 l 1
 597 530 574 564 531 602 c 0
 487 640 444 658 398 658 c 0
 277 658 214 547 214 338 c 0
 214 218 235 132 279 76 c 0
 312 33 354 14 417 14 c 0
 484 14 513 36 513 87 c 2
 513 192 l 2
 513 246 498 257 412 262 c 1
 412 287 l 1
 755 287 l 1
 755 262 l 1
 680 254 669 242 669 170 c 2
 669 43 l 1
 605 5 496 -19 393 -19 c 0
 183 -19 37 125 37 331 c 0
 37 537 186 691 385 691 c 0
EndSplineSet
Validated: 3073
EndChar

StartChar: H
Encoding: 72 72 40
Width: 774
Flags: HMW
AnchorPoint: "below" 392 0 basechar 0
LayerCount: 2
Fore
SplineSet
504 326 m 1
 263 326 l 1
 263 96 l 2
 263 47 280 33 353 25 c 1
 353 0 l 1
 16 0 l 1
 16 25 l 1
 86 34 101 47 101 96 c 2
 101 580 l 2
 101 630 83 645 16 651 c 1
 16 676 l 1
 353 676 l 1
 353 651 l 1
 283 646 263 630 263 580 c 2
 263 373 l 1
 504 373 l 1
 504 580 l 2
 504 630 484 646 414 651 c 1
 414 676 l 1
 754 676 l 1
 754 651 l 1
 686 646 666 630 666 580 c 2
 666 96 l 2
 666 47 682 34 754 25 c 1
 754 0 l 1
 414 0 l 1
 414 25 l 1
 487 33 504 47 504 96 c 2
 504 326 l 1
EndSplineSet
Validated: 3073
EndChar

StartChar: I
Encoding: 73 73 41
Width: 386
Flags: HMW
AnchorPoint: "below" 203 0 basechar 0
AnchorPoint: "above" 193 660 basechar 0
LayerCount: 2
Fore
SplineSet
109 96 m 2
 109 580 l 2
 109 631 88 646 16 651 c 1
 16 676 l 1
 366 676 l 1
 366 651 l 1
 292 648 271 632 271 580 c 2
 271 96 l 2
 271 44 290 30 366 25 c 1
 366 0 l 1
 16 0 l 1
 16 25 l 1
 91 32 109 46 109 96 c 2
EndSplineSet
Validated: 3073
EndChar

StartChar: J
Encoding: 74 74 42
Width: 500
Flags: HMW
AnchorPoint: "below" 300 -67 basechar 0
LayerCount: 2
Fore
SplineSet
146 33 m 0
 146 -2 119 -8 119 -31 c 0
 119 -50 137 -63 164 -63 c 0
 209 -63 228 -38 228 24 c 2
 228 580 l 2
 228 634 208 648 127 651 c 1
 127 676 l 1
 479 676 l 1
 479 651 l 1
 404 646 390 631 390 559 c 2
 390 123 l 2
 390 -20 316 -96 176 -96 c 0
 79 -96 3 -45 3 36 c 0
 3 74 36 108 73 108 c 0
 112 108 146 73 146 33 c 0
EndSplineSet
Validated: 3073
EndChar

StartChar: K
Encoding: 75 75 43
Width: 764
Flags: HMW
AnchorPoint: "below" 365 0 basechar 0
LayerCount: 2
Fore
SplineSet
518 618 m 0
 518 644 498 647 433 651 c 1
 433 676 l 1
 722 676 l 1
 722 651 l 1
 625 643 589 618 401 424 c 1
 706 46 l 1
 719 31 730 26 755 25 c 1
 755 0 l 1
 419 0 l 1
 419 25 l 1
 433 26 446 26 451 26 c 0
 484 28 498 33 498 46 c 0
 498 57 493 66 474 90 c 2
 292 317 l 1
 265 292 l 1
 265 96 l 2
 265 47 281 34 353 25 c 1
 353 0 l 1
 16 0 l 1
 16 25 l 1
 88 33 103 45 103 96 c 2
 103 580 l 2
 103 632 85 647 16 651 c 1
 16 676 l 1
 354 676 l 1
 354 651 l 1
 280 646 265 630 265 559 c 2
 265 345 l 1
 482 563 l 2
 513 594 518 602 518 618 c 0
EndSplineSet
Validated: 3073
EndChar

StartChar: L
Encoding: 76 76 44
Width: 664
Flags: HMW
AnchorPoint: "below" 300 0 basechar 0
LayerCount: 2
Fore
SplineSet
344 31 m 0
 540 31 580 166 606 227 c 1
 635 227 l 1
 594 0 l 1
 16 0 l 1
 16 25 l 1
 89 34 102 45 102 96 c 2
 102 580 l 2
 102 631 84 647 16 651 c 1
 16 676 l 1
 365 676 l 1
 365 651 l 1
 278 647 264 634 264 559 c 2
 264 87 l 2
 264 44 283 31 344 31 c 0
EndSplineSet
Validated: 3073
EndChar

StartChar: M
Encoding: 77 77 45
Width: 943
Flags: HMW
AnchorPoint: "below" 414 0 basechar 0
LayerCount: 2
Fore
SplineSet
680 609 m 1
 428 0 l 1
 401 0 l 1
 149 594 l 1
 149 124 l 2
 149 50 168 31 250 25 c 1
 250 0 l 1
 16 0 l 1
 16 25 l 1
 94 33 107 45 107 105 c 2
 107 580 l 2
 107 632 91 645 18 651 c 1
 18 676 l 1
 271 676 l 1
 471 204 l 1
 671 676 l 1
 923 676 l 1
 923 651 l 1
 850 646 835 631 835 559 c 2
 835 117 l 2
 835 46 845 35 923 25 c 1
 923 0 l 1
 591 0 l 1
 591 25 l 1
 666 32 680 44 680 100 c 2
 680 609 l 1
EndSplineSet
Validated: 3073
EndChar

StartChar: N
Encoding: 78 78 46
Width: 722
Flags: HMW
AnchorPoint: "below" 365 0 basechar 0
LayerCount: 2
Fore
SplineSet
230 676 m 1
 579 247 l 1
 579 552 l 2
 579 623 560 644 486 651 c 1
 486 676 l 1
 701 676 l 1
 701 651 l 1
 636 641 623 628 623 571 c 2
 623 -18 l 1
 595 -18 l 1
 148 526 l 1
 148 124 l 2
 148 53 166 34 243 25 c 1
 243 0 l 1
 16 0 l 1
 16 25 l 1
 89 34 104 48 104 105 c 2
 104 579 l 1
 56 636 39 651 19 651 c 1
 19 676 l 1
 230 676 l 1
EndSplineSet
Validated: 3073
EndChar

StartChar: O
Encoding: 79 79 47
Width: 778
Flags: HMW
AnchorPoint: "below" 390 0 basechar 0
AnchorPoint: "above" 393 658 basechar 0
LayerCount: 2
Fore
SplineSet
393 691 m 0
 594 691 743 540 743 336 c 0
 743 129 596 -19 389 -19 c 0
 182 -19 35 128 35 335 c 0
 35 543 184 691 393 691 c 0
392 658 m 0
 275 658 212 542 212 326 c 0
 212 124 274 14 389 14 c 0
 504 14 566 124 566 329 c 0
 566 537 502 658 392 658 c 0
EndSplineSet
Validated: 3073
EndChar

StartChar: P
Encoding: 80 80 48
Width: 611
Flags: HMW
AnchorPoint: "below" 269 0 basechar 0
LayerCount: 2
Fore
SplineSet
262 303 m 1
 262 117 l 2
 262 44 271 35 350 25 c 1
 350 0 l 1
 16 0 l 1
 16 25 l 1
 27 27 37 29 40 29 c 0
 87 35 100 55 100 117 c 2
 100 559 l 2
 100 629 86 645 16 651 c 1
 16 676 l 1
 338 676 l 2
 505 676 600 610 600 494 c 0
 600 417 556 356 475 325 c 0
 431 307 397 304 262 303 c 1
262 338 m 1
 390 338 428 366 428 489 c 0
 428 597 395 641 312 641 c 0
 279 641 262 629 262 606 c 2
 262 338 l 1
EndSplineSet
Validated: 3073
EndChar

StartChar: Q
Encoding: 81 81 49
Width: 778
Flags: MW
LayerCount: 2
Fore
SplineSet
490 -6 m 1
 508 -43 553 -129 663 -129 c 0
 682 -129 698 -126 730 -117 c 1
 736 -141 l 1
 661 -168 618 -176 557 -176 c 0
 469 -176 385 -144 329 -88 c 0
 306 -65 294 -46 273 -2 c 1
 197 26 165 46 124 92 c 0
 66 156 35 240 35 331 c 0
 35 539 185 691 389 691 c 0
 595 691 743 542 743 334 c 0
 743 237 710 151 649 86 c 0
 606 40 571 20 490 -6 c 1
390 658 m 0
 276 658 212 541 212 331 c 0
 212 123 273 14 389 14 c 0
 504 14 566 124 566 330 c 0
 566 538 502 658 390 658 c 0
EndSplineSet
Validated: 3073
EndChar

StartChar: R
Encoding: 82 82 50
Width: 712
Flags: HMW
AnchorPoint: "below" 330 0 basechar 0
LayerCount: 2
Fore
SplineSet
620 498 m 0
 620 389 540 354 463 329 c 1
 664 44 l 1
 674 31 687 25 705 25 c 1
 705 0 l 1
 500 0 l 1
 293 313 l 1
 266 313 l 1
 266 117 l 2
 266 46 276 35 354 25 c 1
 354 0 l 1
 16 0 l 1
 16 25 l 1
 94 34 104 44 104 117 c 2
 104 559 l 2
 104 631 90 646 16 651 c 1
 16 676 l 1
 338 676 l 2
 521 676 620 613 620 498 c 0
320 642 m 0
 289 642 266 635 266 600 c 2
 266 345 l 1
 404 347 449 372 449 494 c 0
 449 599 412 642 320 642 c 0
EndSplineSet
Validated: 3073
EndChar

StartChar: S
Encoding: 83 83 51
Width: 556
Flags: HMW
AnchorPoint: "below" 270 0 basechar 0
LayerCount: 2
Fore
SplineSet
263 691 m 0
 346 691 394 658 422 658 c 0
 439 658 447 666 454 692 c 1
 484 692 l 1
 484 475 l 1
 456 475 l 1
 415 609 339 660 263 660 c 0
 195 660 153 622 153 560 c 0
 153 512 175 487 256 447 c 2
 403 374 l 2
 467 342 513 267 513 192 c 0
 513 66 413 -19 265 -19 c 0
 172 -19 128 15 94 15 c 0
 78 15 70 6 64 -19 c 1
 35 -19 l 1
 35 228 l 1
 64 228 l 1
 77 174 115 14 268 14 c 0
 345 14 394 59 394 128 c 0
 394 180 370 206 282 248 c 2
 215 280 l 2
 96 337 44 400 44 488 c 0
 44 614 127 691 263 691 c 0
EndSplineSet
Validated: 3073
EndChar

StartChar: T
Encoding: 84 84 52
Width: 667
Flags: HMW
AnchorPoint: "below" 338 0 basechar 0
LayerCount: 2
Fore
SplineSet
253 117 m 2
 253 644 l 1
 129 640 77 594 60 475 c 1
 31 475 l 1
 34 676 l 1
 634 676 l 1
 636 475 l 1
 607 475 l 1
 590 594 538 640 415 644 c 1
 415 117 l 2
 415 41 426 31 513 25 c 1
 513 0 l 1
 156 0 l 1
 156 25 l 1
 242 32 253 43 253 117 c 2
EndSplineSet
Validated: 3073
EndChar

StartChar: U
Encoding: 85 85 53
Width: 722
Flags: HMW
AnchorPoint: "below" 366 0 basechar 0
AnchorPoint: "above" 389 660 basechar 0
LayerCount: 2
Fore
SplineSet
354 651 m 1
 277 648 257 638 257 559 c 2
 257 225 l 2
 257 89 302 30 404 30 c 0
 523 30 579 99 579 247 c 2
 579 552 l 2
 579 625 559 645 481 651 c 1
 481 676 l 1
 701 676 l 1
 701 651 l 1
 637 641 623 625 623 566 c 2
 623 247 l 2
 623 95 558 -19 365 -19 c 0
 292 -19 228 -1 180 34 c 0
 119 78 98 127 98 225 c 2
 98 559 l 2
 98 631 86 644 16 651 c 1
 16 676 l 1
 354 676 l 1
 354 651 l 1
EndSplineSet
Validated: 3073
EndChar

StartChar: V
Encoding: 86 86 54
Width: 722
Flags: HMW
AnchorPoint: "below" 370 0 basechar 0
LayerCount: 2
Fore
SplineSet
701 676 m 1
 701 651 l 1
 649 644 635 631 611 569 c 2
 383 -18 l 1
 356 -18 l 1
 100 581 l 1
 75 636 66 644 16 651 c 1
 16 676 l 1
 352 676 l 1
 352 651 l 1
 337 650 324 649 319 649 c 0
 281 647 266 636 266 613 c 0
 266 598 270 586 289 541 c 2
 427 207 l 1
 554 536 l 2
 571 579 574 591 574 607 c 0
 574 639 559 646 488 651 c 1
 488 676 l 1
 701 676 l 1
EndSplineSet
Validated: 3073
EndChar

StartChar: W
Encoding: 87 87 55
Width: 1000
Flags: HMW
AnchorPoint: "below" 518 0 basechar 0
LayerCount: 2
Fore
SplineSet
981 676 m 1
 981 651 l 1
 948 648 925 627 912 587 c 2
 712 -15 l 1
 685 -15 l 1
 514 462 l 1
 328 -15 l 1
 300 -15 l 1
 88 587 l 2
 71 636 61 645 19 651 c 1
 19 676 l 1
 313 676 l 1
 313 651 l 1
 261 647 249 638 249 609 c 0
 249 600 251 592 256 576 c 2
 376 212 l 1
 494 520 l 1
 459 616 l 1
 448 640 428 649 387 651 c 1
 387 676 l 1
 699 676 l 1
 699 651 l 1
 693 650 688 650 686 650 c 0
 642 647 627 638 627 614 c 0
 627 605 631 590 641 558 c 2
 749 222 l 1
 861 565 l 1
 866 579 868 594 868 607 c 0
 868 638 853 648 799 651 c 1
 799 676 l 1
 981 676 l 1
EndSplineSet
Validated: 3073
EndChar

StartChar: X
Encoding: 88 88 56
Width: 722
Flags: HMW
AnchorPoint: "below" 358 0 basechar 0
LayerCount: 2
Fore
SplineSet
510 614 m 0
 510 647 493 645 438 651 c 1
 438 676 l 1
 688 676 l 1
 688 651 l 1
 614 644 588 625 500 505 c 1
 420 394 l 1
 602 111 l 1
 650 39 665 26 699 25 c 1
 699 0 l 1
 359 0 l 1
 359 25 l 1
 372 26 383 27 387 27 c 0
 422 29 439 38 439 55 c 0
 439 66 430 90 418 109 c 2
 317 271 l 1
 279 220 l 2
 205 120 185 88 185 66 c 0
 185 41 205 31 266 25 c 1
 266 0 l 1
 16 0 l 1
 16 25 l 1
 66 31 90 44 120 81 c 2
 295 302 l 1
 97 593 l 2
 66 638 53 648 17 651 c 1
 17 676 l 1
 363 676 l 1
 363 651 l 1
 349 650 337 649 332 649 c 0
 296 647 284 639 284 618 c 0
 284 606 286 601 299 581 c 2
 396 431 l 1
 469 533 510 578 510 614 c 0
EndSplineSet
Validated: 3073
EndChar

StartChar: Y
Encoding: 89 89 57
Width: 722
Flags: HMW
AnchorPoint: "below" 356 0 basechar 0
AnchorPoint: "above" 389 660 basechar 0
LayerCount: 2
Fore
SplineSet
699 676 m 1
 699 651 l 1
 665 646 645 635 631 612 c 0
 440 301 l 1
 440 117 l 2
 440 43 450 33 532 25 c 1
 532 0 l 1
 185 0 l 1
 185 25 l 1
 267 33 278 44 278 117 c 2
 278 264 l 1
 95 596 l 1
 75 630 49 649 15 651 c 1
 15 676 l 1
 350 676 l 1
 350 651 l 1
 325 650 l 2
 284 650 269 642 269 620 c 0
 269 598 289 573 293 561 c 2
 413 329 l 1
 524 514 l 2
 549 555 563 590 563 609 c 0
 563 638 546 646 479 651 c 1
 479 676 l 1
 699 676 l 1
EndSplineSet
Validated: 3073
EndChar

StartChar: Z
Encoding: 90 90 58
Width: 667
Flags: HMW
AnchorPoint: "below" 353 0 basechar 0
LayerCount: 2
Fore
SplineSet
299 35 m 2
 560 35 576 130 608 241 c 1
 634 241 l 1
 608 0 l 1
 28 0 l 1
 28 16 l 1
 410 641 l 1
 373 640 339 638 327 638 c 0
 179 638 135 609 87 470 c 1
 59 470 l 1
 80 676 l 1
 604 676 l 1
 604 660 l 1
 225 35 l 1
 299 35 l 2
EndSplineSet
Validated: 3073
EndChar

StartChar: bracketleft
Encoding: 91 91 59
Width: 333
Flags: MW
LayerCount: 2
Fore
SplineSet
301 -116 m 1
 301 -149 l 1
 67 -149 l 1
 67 678 l 1
 301 678 l 1
 301 645 l 1
 238 645 l 2
 182 645 171 633 171 575 c 2
 171 -63 l 2
 171 -106 180 -116 221 -116 c 2
 301 -116 l 1
EndSplineSet
Validated: 3073
EndChar

StartChar: backslash
Encoding: 92 92 60
Width: 278
Flags: MW
LayerCount: 2
Fore
SplineSet
211 -19 m 1
 -25 691 l 1
 68 691 l 1
 303 -19 l 1
 211 -19 l 1
EndSplineSet
Validated: 3073
EndChar

StartChar: bracketright
Encoding: 93 93 61
Width: 333
Flags: MW
LayerCount: 2
Fore
SplineSet
32 -149 m 1
 32 -116 l 1
 112 -116 l 2
 154 -116 162 -107 162 -63 c 2
 162 575 l 2
 162 633 151 645 95 645 c 2
 32 645 l 1
 32 678 l 1
 266 678 l 1
 266 -149 l 1
 32 -149 l 1
EndSplineSet
Validated: 3073
EndChar

StartChar: asciicircum
Encoding: 94 94 62
Width: 581
Flags: MW
LayerCount: 2
Fore
SplineSet
162 311 m 1
 73 311 l 1
 251 676 l 1
 331 676 l 1
 509 311 l 1
 420 311 l 1
 291 583 l 1
 162 311 l 1
EndSplineSet
Validated: 3073
EndChar

StartChar: underscore
Encoding: 95 95 63
Width: 500
Flags: MW
LayerCount: 2
Fore
SplineSet
500 -125 m 1
 0 -125 l 1
 0 -75 l 1
 500 -75 l 1
 500 -125 l 1
EndSplineSet
Validated: 3073
EndChar

StartChar: grave
Encoding: 96 96 64
Width: 333
Flags: MW
LayerCount: 2
Fore
SplineSet
246 528 m 1
 190 528 l 1
 48 616 l 2
 19 634 8 648 8 668 c 0
 8 693 29 713 55 713 c 0
 74 713 93 703 109 685 c 2
 246 528 l 1
EndSplineSet
Validated: 3073
EndChar

StartChar: a
Encoding: 97 97 65
Width: 500
Flags: HMW
AnchorPoint: "below" 257 0 basechar 0
AnchorPoint: "above" 244 470 basechar 0
LayerCount: 2
Fore
SplineSet
147 404 m 0
 147 390 177 369 177 339 c 0
 177 305 149 281 109 281 c 0
 68 281 44 306 44 347 c 0
 44 422 120 473 233 473 c 0
 355 473 431 420 431 336 c 2
 431 75 l 2
 431 59 438 50 452 50 c 0
 457 50 460 51 463 54 c 2
 473 64 l 1
 488 43 l 1
 450 2 419 -14 376 -14 c 0
 327 -14 305 5 294 56 c 1
 239 6 193 -14 136 -14 c 0
 72 -14 25 31 25 92 c 0
 25 205 178 245 294 280 c 1
 294 353 l 2
 294 414 268 441 210 441 c 0
 175 441 147 425 147 404 c 0
293 100 m 1
 293 245 l 1
 213 224 171 182 171 124 c 0
 171 84 192 57 222 57 c 0
 246 57 266 69 293 100 c 1
EndSplineSet
Validated: 3073
EndChar

StartChar: b
Encoding: 98 98 66
Width: 556
Flags: HMW
AnchorPoint: "below" 296 0 basechar 0
LayerCount: 2
Fore
SplineSet
211 676 m 1
 211 417 l 1
 248 456 285 473 333 473 c 0
 444 473 521 377 521 239 c 0
 521 90 428 -14 295 -14 c 0
 245 -14 209 2 163 43 c 1
 84 -13 l 1
 72 -13 l 1
 72 594 l 2
 72 634 63 643 17 652 c 1
 17 676 l 1
 211 676 l 1
211 360 m 1
 211 97 l 2
 211 49 238 18 280 18 c 0
 344 18 374 83 374 221 c 0
 374 352 343 419 281 419 c 0
 248 419 228 403 211 360 c 1
EndSplineSet
Validated: 3073
EndChar

StartChar: c
Encoding: 99 99 67
Width: 444
Flags: HMW
AnchorPoint: "below" 244 0 basechar 0
LayerCount: 2
Fore
SplineSet
412 109 m 1
 430 91 l 1
 372 17 316 -14 239 -14 c 0
 115 -14 25 85 25 223 c 0
 25 367 125 473 261 473 c 0
 349 473 416 425 416 363 c 0
 416 324 390 300 348 300 c 0
 311 300 293 323 292 372 c 0
 292 414 292 414 287 423 c 0
 281 434 266 442 250 442 c 0
 198 442 166 379 166 276 c 0
 166 140 221 53 308 53 c 0
 349 53 375 67 412 109 c 1
EndSplineSet
Validated: 3073
EndChar

StartChar: d
Encoding: 100 100 68
Width: 556
Flags: HMW
AnchorPoint: "below" 270 0 basechar 0
LayerCount: 2
Fore
SplineSet
339 -13 m 1
 339 52 l 1
 292 2 259 -14 206 -14 c 0
 101 -14 25 85 25 221 c 0
 25 366 107 473 217 473 c 0
 263 473 293 457 336 411 c 1
 336 594 l 2
 336 640 327 647 260 652 c 1
 260 676 l 1
 475 676 l 1
 475 101 l 2
 475 59 488 46 534 43 c 1
 534 20 l 1
 472 12 l 2
 410 5 385 0 339 -13 c 1
251 42 m 0
 302 42 336 102 336 112 c 2
 336 355 l 1
 322 393 291 417 258 417 c 0
 200 417 173 358 173 229 c 0
 173 102 198 42 251 42 c 0
EndSplineSet
Validated: 3073
EndChar

StartChar: e
Encoding: 101 101 69
Width: 444
Flags: HMW
AnchorPoint: "below" 236 0 basechar 0
AnchorPoint: "above" 244 470 basechar 0
LayerCount: 2
Fore
SplineSet
169 245 m 1
 173 171 187 58 288 58 c 0
 331 58 362 76 402 125 c 1
 426 111 l 1
 361 18 312 -14 231 -14 c 0
 107 -14 25 82 25 228 c 0
 25 374 109 473 234 473 c 0
 385 473 414 344 421 245 c 1
 169 245 l 1
298 297 m 2
 295 383 292 442 234 442 c 0
 185 442 167 402 164 282 c 1
 298 282 l 1
 298 297 l 2
EndSplineSet
Validated: 3073
EndChar

StartChar: f
Encoding: 102 102 70
Width: 333
Flags: HMW
AnchorPoint: "below" 204 0 basechar 0
LayerCount: 2
Fore
SplineSet
267 584 m 0
 267 607 289 629 289 641 c 0
 289 653 278 660 260 660 c 0
 225 660 210 638 210 583 c 2
 210 461 l 1
 297 461 l 1
 297 417 l 1
 210 417 l 1
 210 103 l 2
 210 38 222 26 292 24 c 1
 292 0 l 1
 14 0 l 1
 14 24 l 1
 60 29 71 41 71 84 c 2
 71 417 l 1
 14 417 l 1
 14 461 l 1
 71 461 l 1
 71 595 93 691 246 691 c 0
 330 691 389 650 389 591 c 0
 389 554 364 529 327 529 c 0
 293 529 267 553 267 584 c 0
EndSplineSet
Validated: 3073
EndChar

StartChar: g
Encoding: 103 103 71
Width: 500
Flags: HMW
AnchorPoint: "below" 247 -202 basechar 0
LayerCount: 2
Fore
SplineSet
161 160 m 1
 73 197 37 248 37 312 c 0
 37 407 121 473 240 473 c 0
 280 473 308 467 352 451 c 1
 482 451 l 1
 482 398 l 1
 401 398 l 1
 429 370 441 340 441 300 c 0
 441 242 406 154 267 154 c 2
 222 155 l 2
 182 155 154 133 154 103 c 0
 154 75 174 68 254 68 c 2
 319 68 l 2
 421 68 483 22 483 -55 c 0
 483 -154 395 -206 229 -206 c 0
 103 -206 28 -172 28 -114 c 0
 28 -73 61 -48 124 -39 c 1
 60 -16 42 2 42 43 c 0
 42 95 82 133 161 160 c 1
324 -52 m 2
 151 -52 l 1
 123 -75 116 -86 116 -107 c 0
 116 -151 162 -174 250 -174 c 0
 349 -174 404 -148 404 -102 c 0
 404 -69 378 -52 324 -52 c 2
240 442 m 0
 193 442 174 405 174 311 c 0
 174 218 192 182 240 182 c 0
 287 182 306 218 306 311 c 0
 306 404 287 442 240 442 c 0
EndSplineSet
Validated: 3073
EndChar

StartChar: h
Encoding: 104 104 72
Width: 556
Flags: HMW
AnchorPoint: "below" 280 0 basechar 0
LayerCount: 2
Fore
SplineSet
294 406 m 0
 252 406 208 359 208 348 c 2
 208 81 l 2
 208 44 220 29 257 24 c 1
 257 0 l 1
 16 0 l 1
 16 24 l 1
 61 33 69 42 69 84 c 2
 69 594 l 2
 69 635 62 643 16 652 c 1
 16 676 l 1
 208 676 l 1
 208 395 l 1
 260 453 297 473 350 473 c 0
 432 473 485 418 485 332 c 2
 485 84 l 2
 485 42 498 27 534 24 c 1
 534 0 l 1
 299 0 l 1
 299 24 l 1
 333 28 346 44 346 81 c 2
 346 323 l 2
 346 379 329 406 294 406 c 0
EndSplineSet
Validated: 3073
EndChar

StartChar: i
Encoding: 105 105 73
Width: 278
Flags: HMW
AnchorPoint: "below" 138 0 basechar 0
AnchorPoint: "above" 134 691 basechar 0
LayerCount: 2
Fore
SplineSet
208 461 m 1
 208 81 l 2
 208 43 220 29 255 24 c 1
 255 0 l 1
 16 0 l 1
 16 24 l 1
 62 35 69 43 69 84 c 2
 69 378 l 2
 69 419 60 428 16 437 c 1
 16 461 l 1
 208 461 l 1
138 691 m 0
 181 691 215 656 215 613 c 0
 215 569 181 536 137 536 c 0
 93 536 60 569 60 614 c 0
 60 656 95 691 138 691 c 0
EndSplineSet
Validated: 3073
EndChar

StartChar: j
Encoding: 106 106 74
Width: 333
Flags: HMW
LayerCount: 2
Fore
SplineSet
64 -96 m 0
 64 -119 41 -141 41 -155 c 0
 41 -165 54 -172 73 -172 c 0
 106 -172 121 -149 121 -96 c 2
 121 378 l 2
 121 421 109 433 58 437 c 1
 58 461 l 1
 260 461 l 1
 260 2 l 2
 260 -108 222 -203 83 -203 c 0
 1 -203 -57 -162 -57 -103 c 0
 -57 -67 -32 -42 5 -42 c 0
 37 -42 64 -66 64 -96 c 0
185 691 m 0
 228 691 263 656 263 613 c 0
 263 570 228 536 185 536 c 0
 140 536 108 569 108 614 c 0
 108 656 142 691 185 691 c 0
EndSplineSet
Validated: 3073
EndChar

StartChar: k
Encoding: 107 107 75
Width: 556
Flags: HMW
AnchorPoint: "below" 267 0 basechar 0
LayerCount: 2
Fore
SplineSet
358 411 m 0
 358 433 328 433 299 438 c 1
 299 461 l 1
 513 461 l 1
 513 438 l 1
 450 430 424 412 324 307 c 1
 518 39 l 2
 527 27 532 24 543 24 c 1
 543 0 l 1
 309 0 l 1
 309 24 l 1
 337 25 351 31 351 43 c 0
 351 51 344 63 327 88 c 2
 232 222 l 1
 209 198 l 1
 209 84 l 2
 209 37 214 31 261 24 c 1
 261 0 l 1
 22 0 l 1
 22 24 l 1
 55 27 70 45 70 84 c 2
 70 594 l 2
 70 632 56 649 22 652 c 1
 22 676 l 1
 209 676 l 1
 209 245 l 1
 337 373 l 2
 348 384 358 402 358 411 c 0
EndSplineSet
Validated: 3073
EndChar

StartChar: l
Encoding: 108 108 76
Width: 278
Flags: HMW
AnchorPoint: "below" 139 0 basechar 0
LayerCount: 2
Fore
SplineSet
206 676 m 1
 206 84 l 2
 206 44 222 25 255 24 c 1
 255 0 l 1
 16 0 l 1
 16 24 l 1
 50 27 67 47 67 84 c 2
 67 594 l 2
 67 631 51 649 16 652 c 1
 16 676 l 1
 206 676 l 1
EndSplineSet
Validated: 3073
EndChar

StartChar: m
Encoding: 109 109 77
Width: 833
Flags: HMW
AnchorPoint: "below" 414 0 basechar 0
LayerCount: 2
Fore
SplineSet
294 406 m 0
 254 406 210 360 210 348 c 2
 210 81 l 2
 210 43 221 29 256 24 c 1
 256 0 l 1
 16 0 l 1
 16 24 l 1
 60 32 71 43 71 84 c 2
 71 378 l 2
 71 419 60 431 16 437 c 1
 16 461 l 1
 207 461 l 1
 207 386 l 1
 245 446 291 473 354 473 c 0
 417 473 452 449 482 386 c 1
 534 450 572 473 629 473 c 0
 711 473 764 418 764 332 c 2
 764 81 l 2
 764 38 775 26 814 24 c 1
 814 0 l 1
 576 0 l 1
 576 24 l 1
 614 27 625 39 625 81 c 2
 625 323 l 2
 625 382 610 406 572 406 c 0
 533 406 487 359 487 348 c 2
 487 81 l 2
 487 43 499 28 534 24 c 1
 534 0 l 1
 300 0 l 1
 300 24 l 1
 337 27 348 40 348 81 c 2
 348 323 l 2
 348 383 333 406 294 406 c 0
EndSplineSet
Validated: 3073
EndChar

StartChar: n
Encoding: 110 110 78
Width: 556
Flags: HMW
AnchorPoint: "below" 284 0 basechar 0
LayerCount: 2
Fore
SplineSet
299 406 m 0
 257 406 213 359 213 348 c 2
 213 81 l 2
 213 44 225 29 262 24 c 1
 262 0 l 1
 21 0 l 1
 21 24 l 1
 66 33 74 42 74 84 c 2
 74 378 l 2
 74 420 65 430 21 437 c 1
 21 461 l 1
 212 461 l 1
 212 386 l 1
 249 445 295 473 355 473 c 0
 437 473 490 418 490 332 c 2
 490 81 l 2
 490 39 500 27 539 24 c 1
 539 0 l 1
 304 0 l 1
 304 24 l 1
 338 28 351 44 351 81 c 2
 351 323 l 2
 351 379 334 406 299 406 c 0
EndSplineSet
Validated: 3073
EndChar

StartChar: o
Encoding: 111 111 79
Width: 500
Flags: HMW
AnchorPoint: "below" 259 0 basechar 0
AnchorPoint: "above" 252 470 basechar 0
LayerCount: 2
Fore
SplineSet
251 473 m 0
 380 473 476 369 476 229 c 0
 476 90 380 -14 251 -14 c 0
 120 -14 25 89 25 232 c 0
 25 368 124 473 251 473 c 0
252 442 m 0
 190 442 172 390 172 214 c 0
 172 68 192 17 251 17 c 0
 309 17 329 69 329 223 c 0
 329 387 310 442 252 442 c 0
EndSplineSet
Validated: 3073
EndChar

StartChar: p
Encoding: 112 112 80
Width: 556
Flags: HMW
LayerCount: 2
Fore
SplineSet
212 461 m 1
 212 392 l 1
 243 450 279 473 338 473 c 0
 449 473 524 378 524 239 c 0
 524 91 444 -13 332 -13 c 0
 288 -13 262 0 214 47 c 1
 214 -94 l 2
 214 -161 231 -181 292 -184 c 1
 292 -205 l 1
 19 -205 l 1
 19 -181 l 1
 67 -173 75 -164 75 -123 c 2
 75 378 l 2
 75 420 65 430 21 437 c 1
 21 461 l 1
 212 461 l 1
300 416 m 0
 252 416 214 360 214 346 c 2
 214 103 l 1
 229 65 258 42 291 42 c 0
 348 42 376 101 376 225 c 0
 376 356 352 416 300 416 c 0
EndSplineSet
Validated: 3073
EndChar

StartChar: q
Encoding: 113 113 81
Width: 556
Flags: HMW
LayerCount: 2
Fore
SplineSet
342 -97 m 2
 342 42 l 1
 301 2 266 -14 219 -14 c 0
 110 -14 34 82 34 219 c 0
 34 368 126 473 256 473 c 0
 306 473 337 459 388 416 c 1
 466 472 l 1
 481 472 l 1
 481 -123 l 2
 481 -163 490 -172 536 -181 c 1
 536 -205 l 1
 269 -205 l 1
 269 -180 l 1
 334 -168 342 -159 342 -97 c 2
342 98 m 1
 342 361 l 2
 342 409 315 441 275 441 c 0
 212 441 180 371 180 236 c 0
 180 105 211 40 273 40 c 0
 307 40 332 61 342 98 c 1
EndSplineSet
Validated: 3073
EndChar

StartChar: r
Encoding: 114 114 82
Width: 444
Flags: HMW
AnchorPoint: "below" 233 0 basechar 0
LayerCount: 2
Fore
SplineSet
371 328 m 0
 318 328 304 387 283 387 c 0
 250 387 222 344 222 292 c 2
 222 103 l 2
 222 41 234 28 295 24 c 1
 295 0 l 1
 29 0 l 1
 29 24 l 1
 73 32 83 43 83 84 c 2
 83 378 l 2
 83 418 72 431 29 437 c 1
 29 461 l 1
 218 461 l 1
 218 379 l 1
 265 446 303 473 353 473 c 0
 400 473 434 440 434 395 c 0
 434 356 408 328 371 328 c 0
EndSplineSet
Validated: 3073
EndChar

StartChar: s
Encoding: 115 115 83
Width: 389
Flags: HMW
AnchorPoint: "below" 205 0 basechar 0
LayerCount: 2
Fore
SplineSet
184 473 m 0
 234 473 271 451 294 451 c 0
 306 451 312 456 318 471 c 1
 340 471 l 1
 340 326 l 1
 315 326 l 1
 287 407 243 440 193 440 c 0
 155 440 127 415 127 382 c 0
 127 281 361 304 361 138 c 0
 361 48 298 -14 207 -14 c 0
 136 -14 100 15 76 15 c 0
 67 15 61 8 50 -13 c 1
 25 -13 l 1
 25 152 l 1
 53 152 l 1
 74 65 120 20 190 20 c 0
 235 20 265 46 265 85 c 0
 265 179 27 172 27 327 c 0
 27 411 93 473 184 473 c 0
EndSplineSet
Validated: 3073
EndChar

StartChar: t
Encoding: 116 116 84
Width: 333
Flags: HMW
AnchorPoint: "below" 186 0 basechar 0
LayerCount: 2
Fore
SplineSet
305 461 m 1
 305 417 l 1
 211 417 l 1
 211 116 l 2
 211 76 222 59 250 59 c 0
 271 59 287 73 307 111 c 1
 332 100 l 1
 291 18 251 -12 184 -12 c 0
 115 -12 72 28 72 93 c 2
 72 417 l 1
 20 417 l 1
 20 444 l 1
 85 499 125 544 186 630 c 1
 211 630 l 1
 211 461 l 1
 305 461 l 1
EndSplineSet
Validated: 3073
EndChar

StartChar: u
Encoding: 117 117 85
Width: 556
Flags: HMW
AnchorPoint: "below" 286 0 basechar 0
AnchorPoint: "above" 259 470 basechar 0
LayerCount: 2
Fore
SplineSet
343 -13 m 1
 343 52 l 1
 285 2 250 -14 198 -14 c 0
 115 -14 65 38 65 126 c 2
 65 378 l 2
 65 420 57 429 16 437 c 1
 16 461 l 1
 204 461 l 1
 204 122 l 2
 204 71 219 51 260 51 c 0
 288 51 309 62 342 95 c 1
 342 378 l 2
 342 421 330 433 280 437 c 1
 280 461 l 1
 481 461 l 1
 481 101 l 2
 481 58 493 45 537 43 c 1
 537 20 l 1
 475 13 l 2
 410 6 386 2 343 -13 c 1
EndSplineSet
Validated: 3073
EndChar

StartChar: v
Encoding: 118 118 86
Width: 500
Flags: HMW
AnchorPoint: "below" 259 0 basechar 0
LayerCount: 2
Fore
SplineSet
485 461 m 1
 485 437 l 1
 454 434 445 426 427 382 c 0
 267 -14 l 1
 241 -14 l 1
 121 282 l 1
 105 323 58 422 56 422 c 1
 50 431 44 434 21 437 c 1
 21 461 l 1
 271 461 l 1
 271 437 l 1
 263 436 255 435 253 435 c 0
 228 433 218 426 218 411 c 0
 218 405 220 399 227 380 c 2
 306 177 l 1
 378 359 l 2
 385 377 389 393 389 404 c 0
 389 428 377 435 334 437 c 1
 334 461 l 1
 485 461 l 1
EndSplineSet
Validated: 3073
EndChar

StartChar: w
Encoding: 119 119 87
Width: 722
Flags: HMW
AnchorPoint: "below" 376 0 basechar 0
LayerCount: 2
Fore
SplineSet
541 180 m 1
 604 358 620 363 620 402 c 0
 620 425 609 433 572 437 c 1
 572 461 l 1
 707 461 l 1
 707 437 l 1
 681 432 672 425 657 387 c 0
 502 -14 l 1
 479 -14 l 1
 377 296 l 1
 252 -14 l 1
 228 -14 l 1
 80 360 l 1
 53 426 49 432 23 437 c 1
 23 461 l 1
 245 461 l 1
 245 437 l 1
 217 433 207 425 207 409 c 0
 207 388 257 263 267 240 c 2
 291 176 l 1
 359 347 l 1
 353 366 l 1
 334 432 333 433 294 437 c 1
 294 461 l 1
 528 461 l 1
 528 437 l 1
 490 434 480 429 480 413 c 0
 480 384 498 355 541 180 c 1
EndSplineSet
Validated: 3073
EndChar

StartChar: x
Encoding: 120 120 88
Width: 500
Flags: HMW
AnchorPoint: "below" 265 0 basechar 0
LayerCount: 2
Fore
SplineSet
286 303 m 1
 329 364 360 387 360 413 c 0
 360 428 352 434 329 435 c 0
 326 435 318 436 309 437 c 1
 309 461 l 1
 477 461 l 1
 477 437 l 1
 446 432 426 421 407 398 c 2
 306 272 l 1
 454 44 l 2
 461 33 468 29 484 24 c 1
 484 0 l 1
 243 0 l 1
 243 24 l 1
 274 26 288 32 288 44 c 0
 288 56 278 75 255 108 c 2
 213 171 l 1
 198 152 133 75 133 48 c 0
 133 33 147 26 183 24 c 1
 183 0 l 1
 14 0 l 1
 14 24 l 1
 63 27 71 47 192 201 c 1
 64 398 l 2
 44 428 38 433 12 437 c 1
 12 461 l 1
 262 461 l 1
 262 437 l 1
 229 436 215 430 215 418 c 0
 215 399 268 325 286 303 c 1
EndSplineSet
Validated: 3073
EndChar

StartChar: y
Encoding: 121 121 89
Width: 500
Flags: HMW
AnchorPoint: "below" 362 0 basechar 0
AnchorPoint: "above" 244 470 basechar 0
LayerCount: 2
Fore
SplineSet
138 -111 m 0
 138 -119 135 -127 135 -131 c 0
 135 -140 143 -148 152 -148 c 0
 175 -148 201 -116 218 -66 c 2
 236 -13 l 1
 116 282 l 2
 99 324 54 422 51 422 c 1
 45 431 39 434 16 437 c 1
 16 461 l 1
 266 461 l 1
 266 437 l 1
 250 436 l 2
 225 434 213 425 213 411 c 0
 213 403 213 403 233 352 c 2
 305 167 l 1
 373 359 l 2
 382 384 384 393 384 404 c 0
 384 428 372 435 329 437 c 1
 329 461 l 1
 480 461 l 1
 480 437 l 1
 449 434 438 424 422 382 c 0
 273 -15 l 2
 235 -116 209 -205 113 -205 c 0
 56 -205 16 -172 16 -126 c 0
 16 -88 43 -62 80 -62 c 0
 114 -62 138 -82 138 -111 c 0
EndSplineSet
Validated: 3073
EndChar

StartChar: z
Encoding: 122 122 90
Width: 444
Flags: HMW
AnchorPoint: "below" 230 0 basechar 0
LayerCount: 2
Fore
SplineSet
214 32 m 2
 317 32 364 59 392 160 c 1
 420 160 l 1
 404 0 l 1
 21 0 l 1
 21 25 l 1
 255 429 l 1
 251 429 247 429 244 429 c 0
 114 429 88 411 64 319 c 1
 38 319 l 1
 45 461 l 1
 416 461 l 1
 416 435 l 1
 185 32 l 1
 214 32 l 2
EndSplineSet
Validated: 3073
EndChar

StartChar: braceleft
Encoding: 123 123 91
Width: 394
Flags: MW
LayerCount: 2
Fore
SplineSet
340 -175 m 1
 183 -173 129 -144 129 -34 c 2
 129 145 l 2
 129 216 107 240 22 261 c 1
 107 282 129 306 129 377 c 2
 129 556 l 2
 129 666 181 696 340 698 c 1
 340 686 l 1
 260 669 234 638 234 562 c 2
 234 391 l 2
 234 307 210 281 116 261 c 1
 210 241 234 215 234 131 c 2
 234 -40 l 2
 234 -116 261 -147 340 -163 c 1
 340 -175 l 1
EndSplineSet
Validated: 3073
EndChar

StartChar: bar
Encoding: 124 124 92
Width: 220
Flags: MW
LayerCount: 2
Fore
SplineSet
66 -19 m 1
 66 691 l 1
 154 691 l 1
 154 -19 l 1
 66 -19 l 1
EndSplineSet
Validated: 3073
EndChar

StartChar: braceright
Encoding: 125 125 93
Width: 394
Flags: MW
LayerCount: 2
Fore
SplineSet
54 698 m 1
 200 696 265 674 265 557 c 2
 265 378 l 2
 265 307 287 283 372 262 c 1
 287 241 265 217 265 146 c 2
 265 -33 l 2
 265 -143 213 -173 54 -175 c 1
 54 -163 l 1
 134 -146 160 -115 160 -39 c 2
 160 132 l 2
 160 215 185 242 278 262 c 1
 184 282 160 308 160 392 c 2
 160 563 l 2
 160 638 133 670 54 686 c 1
 54 698 l 1
EndSplineSet
Validated: 3073
EndChar

StartChar: asciitilde
Encoding: 126 126 94
Width: 520
Flags: MW
LayerCount: 2
Fore
SplineSet
153 331 m 0
 225 331 321 263 368 263 c 0
 391 263 411 276 436 308 c 1
 491 260 l 1
 446 197 414 175 368 175 c 0
 282 175 241 243 151 243 c 0
 122 243 105 233 82 201 c 1
 29 247 l 1
 63 306 99 331 153 331 c 0
EndSplineSet
Validated: 3073
EndChar

StartChar: exclamdown
Encoding: 161 161 95
Width: 333
Flags: HMW
LayerCount: 2
Fore
SplineSet
167 332 m 0
 120 332 82 371 82 418 c 0
 82 464 120 501 168 501 c 0
 215 501 251 464 251 416 c 0
 251 371 213 332 167 332 c 0
83 -101 m 0
 83 -21 125 -15 153 254 c 1
 182 254 l 1
 209 -4 252 -27 252 -103 c 0
 252 -166 221 -203 167 -203 c 0
 114 -203 83 -166 83 -101 c 0
EndSplineSet
EndChar

StartChar: cent
Encoding: 162 162 96
Width: 500
Flags: MW
LayerCount: 2
Fore
SplineSet
181 5 m 1
 60 63 53 178 53 223 c 0
 53 366 152 473 285 473 c 0
 306 473 321 471 345 465 c 1
 389 588 l 1
 429 588 l 1
 381 452 l 1
 425 428 444 401 444 364 c 0
 444 326 417 300 378 300 c 0
 360 300 346 306 334 320 c 1
 252 90 l 1
 279 63 301 53 335 53 c 0
 378 53 406 68 440 109 c 1
 458 91 l 1
 433 60 378 -14 267 -14 c 0
 248 -14 236 -12 217 -7 c 1
 170 -140 l 1
 130 -140 l 1
 181 5 l 1
225 128 m 1
 321 397 l 1
 321 400 l 2
 321 424 303 442 278 442 c 0
 227 442 194 376 194 274 c 0
 194 216 203 174 225 128 c 1
EndSplineSet
Validated: 3073
EndChar

StartChar: sterling
Encoding: 163 163 97
Width: 500
Flags: MW
LayerCount: 2
Fore
SplineSet
105 489 m 0
 105 602 184 684 308 684 c 0
 401 684 459 640 459 571 c 0
 459 527 433 499 391 499 c 0
 354 499 329 524 329 560 c 0
 329 562 329 563 329 564 c 0
 331 608 l 1
 331 611 l 2
 331 639 315 654 287 654 c 0
 254 654 231 629 231 591 c 0
 231 569 251 458 270 373 c 1
 384 373 l 1
 384 308 l 1
 275 308 l 1
 276 289 277 275 277 254 c 0
 277 206 273 180 257 134 c 1
 300 118 327 112 354 112 c 0
 416 112 439 129 454 183 c 1
 477 183 l 1
 470 104 457 -14 346 -14 c 0
 303 -14 275 0 221 49 c 1
 188 6 154 -13 109 -13 c 0
 53 -13 21 18 21 72 c 0
 21 132 58 164 127 164 c 0
 145 164 158 162 178 157 c 1
 176 194 172 210 137 308 c 1
 39 308 l 1
 39 373 l 1
 119 373 l 1
 108 434 105 459 105 489 c 0
181 86 m 1
 154 110 136 118 109 118 c 0
 75 118 53 98 53 66 c 0
 53 37 76 17 109 17 c 0
 146 17 167 37 181 86 c 1
EndSplineSet
Validated: 3073
EndChar

StartChar: currency
Encoding: 164 164 98
Width: 500
Flags: MW
LayerCount: 2
Fore
SplineSet
-26 119 m 1
 72 217 l 1
 46 255 35 290 35 337 c 0
 35 383 46 420 72 459 c 1
 -26 557 l 1
 32 613 l 1
 128 517 l 1
 168 542 204 552 250 552 c 0
 296 552 332 542 372 517 c 1
 468 613 l 1
 526 557 l 1
 428 459 l 1
 455 416 465 383 465 337 c 0
 465 290 454 253 428 217 c 1
 526 119 l 1
 468 61 l 1
 372 159 l 1
 331 133 294 122 250 122 c 0
 206 122 169 133 128 159 c 1
 32 61 l 1
 -26 119 l 1
250 470 m 0
 179 470 123 412 123 337 c 0
 123 263 179 204 250 204 c 0
 319 204 377 264 377 335 c 0
 377 410 321 470 250 470 c 0
EndSplineSet
Validated: 3073
EndChar

StartChar: yen
Encoding: 165 165 99
Width: 500
Flags: MW
LayerCount: 2
Fore
SplineSet
450 292 m 1
 319 292 l 1
 315 281 l 1
 315 214 l 1
 450 214 l 1
 450 164 l 1
 315 164 l 1
 315 115 l 2
 315 47 331 32 414 25 c 1
 414 0 l 1
 83 0 l 1
 83 25 l 1
 168 32 185 47 185 115 c 2
 185 164 l 1
 50 164 l 1
 50 214 l 1
 185 214 l 1
 185 271 l 1
 174 292 l 1
 50 292 l 1
 50 342 l 1
 149 342 l 1
 19 597 l 1
 0 633 -23 647 -64 650 c 1
 -64 676 l 1
 237 676 l 1
 237 650 l 1
 177 648 160 642 160 621 c 0
 160 587 202 534 278 371 c 2
 293 342 l 1
 412 572 l 1
 417 583 420 595 420 607 c 0
 420 639 406 647 342 650 c 1
 342 676 l 1
 547 676 l 1
 547 650 l 1
 513 647 496 637 483 613 c 2
 339 342 l 1
 450 342 l 1
 450 292 l 1
EndSplineSet
Validated: 3073
EndChar

StartChar: brokenbar
Encoding: 166 166 100
Width: 220
Flags: MW
LayerCount: 2
Fore
SplineSet
66 -19 m 1
 66 258 l 1
 154 258 l 1
 154 -19 l 1
 66 -19 l 1
66 414 m 1
 66 691 l 1
 154 691 l 1
 154 414 l 1
 66 414 l 1
EndSplineSet
Validated: 3073
EndChar

StartChar: section
Encoding: 167 167 101
Width: 500
Flags: MW
LayerCount: 2
Fore
SplineSet
218 -23 m 0
 218 -58 172 -67 172 -80 c 0
 172 -95 205 -109 240 -109 c 0
 293 -109 319 -85 319 -38 c 0
 319 -7 310 9 282 32 c 2
 225 78 l 2
 84 192 57 226 57 293 c 0
 57 372 101 415 180 415 c 2
 199 415 l 1
 117 487 99 513 99 561 c 0
 99 637 161 691 248 691 c 0
 326 691 393 645 393 592 c 0
 393 559 362 528 328 528 c 0
 299 528 268 558 268 585 c 0
 268 616 310 634 310 647 c 0
 310 658 284 668 256 668 c 0
 207 668 173 640 173 599 c 0
 173 565 208 526 277 480 c 0
 367 421 443 346 443 256 c 0
 443 172 388 146 302 144 c 1
 376 92 404 51 404 -3 c 0
 404 -78 335 -132 240 -132 c 0
 157 -132 90 -87 90 -32 c 0
 90 5 118 33 153 33 c 0
 188 33 218 7 218 -23 c 0
367 225 m 0
 367 293 226 392 186 392 c 0
 155 392 132 368 132 336 c 0
 132 300 142 285 202 233 c 0
 263 180 284 167 314 167 c 0
 344 167 367 191 367 225 c 0
EndSplineSet
Validated: 3073
EndChar

StartChar: dieresis
Encoding: 168 168 102
Width: 333
Flags: MW
LayerCount: 2
Fore
SplineSet
62 666 m 0
 97 666 127 636 127 600 c 0
 127 565 98 537 62 537 c 0
 27 537 -2 567 -2 602 c 0
 -2 636 28 666 62 666 c 0
271 666 m 0
 307 666 337 636 337 600 c 0
 337 565 308 537 271 537 c 0
 236 537 208 566 208 603 c 0
 208 636 238 666 271 666 c 0
EndSplineSet
Validated: 3073
EndChar

StartChar: copyright
Encoding: 169 169 103
Width: 747
Flags: MW
LayerCount: 2
Fore
SplineSet
402 544 m 0
 447 544 527 529 527 504 c 2
 527 432 l 1
 508 432 l 1
 490 493 457 521 401 521 c 0
 322 521 278 458 278 344 c 0
 278 230 323 165 401 165 c 0
 457 165 493 191 525 256 c 1
 544 256 l 1
 528 182 l 2
 526 159 440 142 390 142 c 0
 259 142 176 218 176 340 c 0
 176 464 264 544 402 544 c 0
374 691 m 0
 569 691 721 536 721 337 c 0
 721 133 571 -19 369 -19 c 0
 178 -19 26 138 26 335 c 0
 26 535 178 691 374 691 c 0
374 639 m 0
 220 639 97 504 97 335 c 0
 97 169 220 33 370 33 c 0
 528 33 650 166 650 336 c 0
 650 504 527 639 374 639 c 0
EndSplineSet
Validated: 3073
EndChar

StartChar: ordfeminine
Encoding: 170 170 104
Width: 300
Flags: MW
LayerCount: 2
Fore
SplineSet
279 435 m 0
 284 435 285 437 291 443 c 1
 301 431 l 1
 277 406 257 397 228 397 c 0
 196 397 182 408 175 438 c 1
 140 409 111 397 73 397 c 0
 29 397 -1 424 -1 463 c 0
 -1 513 38 538 173 573 c 1
 173 613 l 2
 173 650 159 665 123 665 c 0
 101 665 82 655 82 643 c 0
 82 635 102 623 102 608 c 0
 102 587 82 573 54 573 c 0
 28 573 12 588 12 613 c 0
 12 659 63 688 141 688 c 0
 219 688 268 656 268 606 c 2
 268 450 l 2
 268 439 271 435 279 435 c 0
172 465 m 1
 172 552 l 1
 122 537 97 513 97 479 c 0
 97 456 110 439 129 439 c 0
 145 439 158 447 172 465 c 1
EndSplineSet
Validated: 3073
EndChar

StartChar: guillemotleft
Encoding: 171 171 105
Width: 500
Flags: MW
LayerCount: 2
Fore
SplineSet
355 227 m 1
 398 164 473 88 473 51 c 0
 473 42 468 36 461 36 c 0
 454 36 441 43 425 59 c 2
 219 225 l 1
 219 229 l 1
 422 393 l 2
 429 398 444 415 459 415 c 0
 467 415 471 411 471 404 c 0
 471 368 380 260 355 227 c 1
159 227 m 1
 202 164 277 88 277 51 c 0
 277 42 272 36 265 36 c 0
 258 36 245 43 229 59 c 2
 23 225 l 1
 23 229 l 1
 226 393 l 2
 233 398 248 415 263 415 c 0
 271 415 275 411 275 404 c 0
 275 368 184 260 159 227 c 1
EndSplineSet
Validated: 3073
EndChar

StartChar: logicalnot
Encoding: 172 172 106
Width: 680
Flags: MW
LayerCount: 2
Fore
SplineSet
618 64 m 1
 523 64 l 1
 523 264 l 1
 62 264 l 1
 62 362 l 1
 618 362 l 1
 618 64 l 1
EndSplineSet
Validated: 3073
EndChar

StartChar: registered
Encoding: 174 174 107
Width: 747
Flags: MW
LayerCount: 2
Fore
SplineSet
482 153 m 2
 453 153 433 217 370 320 c 1
 333 320 l 1
 333 215 l 2
 333 175 334 174 379 171 c 1
 379 153 l 1
 207 153 l 1
 207 171 l 1
 252 174 253 175 253 215 c 2
 253 470 l 2
 253 511 253 511 207 514 c 1
 207 532 l 1
 400 532 l 2
 471 532 515 495 515 436 c 0
 515 388 488 352 435 331 c 1
 493 249 l 2
 522 209 542 184 563 164 c 1
 563 153 l 1
 482 153 l 2
333 510 m 1
 333 342 l 1
 368 342 l 2
 407 342 430 374 430 430 c 0
 430 484 410 510 369 510 c 2
 333 510 l 1
374 691 m 0
 569 691 721 536 721 337 c 0
 721 133 571 -19 369 -19 c 0
 178 -19 26 138 26 335 c 0
 26 535 178 691 374 691 c 0
374 639 m 0
 220 639 97 504 97 335 c 0
 97 169 220 33 370 33 c 0
 528 33 650 166 650 336 c 0
 650 504 527 639 374 639 c 0
EndSplineSet
Validated: 3073
EndChar

StartChar: macron
Encoding: 175 175 108
Width: 333
Flags: MW
LayerCount: 2
Fore
SplineSet
331 637 m 1
 331 565 l 1
 1 565 l 1
 1 637 l 1
 331 637 l 1
EndSplineSet
Validated: 3073
EndChar

StartChar: degree
Encoding: 176 176 109
Width: 400
Flags: MW
LayerCount: 2
Fore
SplineSet
200 688 m 0
 280 688 343 625 343 545 c 0
 343 464 280 402 198 402 c 0
 120 402 57 466 57 545 c 0
 57 625 120 688 200 688 c 0
200 652 m 0
 144 652 98 603 98 545 c 0
 98 487 144 438 199 438 c 0
 256 438 302 486 302 545 c 0
 302 603 255 652 200 652 c 0
EndSplineSet
Validated: 3073
EndChar

StartChar: plusminus
Encoding: 177 177 110
Width: 676
Flags: MW
LayerCount: 2
Fore
SplineSet
614 268 m 1
 387 268 l 1
 387 87 l 1
 291 87 l 1
 291 268 l 1
 63 268 l 1
 63 364 l 1
 291 364 l 1
 291 558 l 1
 387 558 l 1
 387 364 l 1
 614 364 l 1
 614 268 l 1
613 -44 m 1
 62 -44 l 1
 62 48 l 1
 613 48 l 1
 613 -44 l 1
EndSplineSet
Validated: 3073
EndChar

StartChar: twosuperior
Encoding: 178 178 111
Width: 300
Flags: MW
LayerCount: 2
Fore
SplineSet
300 402 m 1
 270 275 l 1
 0 275 l 1
 0 289 l 1
 149 438 184 486 184 544 c 0
 184 586 151 620 109 620 c 0
 75 620 54 605 33 566 c 1
 9 566 l 1
 43 650 88 688 152 688 c 0
 222 688 272 642 272 577 c 0
 272 533 251 497 198 447 c 2
 99 355 l 1
 191 355 l 2
 257 355 265 359 284 402 c 1
 300 402 l 1
EndSplineSet
Validated: 3073
EndChar

StartChar: threesuperior
Encoding: 179 179 112
Width: 300
Flags: MW
LayerCount: 2
Fore
SplineSet
43 363 m 1
 112 356 113 304 159 304 c 0
 197 304 222 330 222 369 c 0
 222 427 188 459 92 490 c 1
 92 500 l 1
 153 518 176 539 176 579 c 0
 176 616 150 640 111 640 c 0
 80 640 61 627 36 590 c 1
 16 597 l 1
 52 658 100 688 165 688 c 0
 232 688 271 658 271 607 c 0
 271 571 258 553 217 531 c 1
 271 509 297 474 297 424 c 0
 297 337 211 268 103 268 c 0
 42 268 3 289 3 322 c 0
 3 341 16 354 43 363 c 1
EndSplineSet
Validated: 3073
EndChar

StartChar: acute
Encoding: 180 180 113
Width: 333
Flags: MW
LayerCount: 2
Fore
SplineSet
86 528 m 1
 223 685 l 2
 240 704 257 713 276 713 c 0
 305 713 324 695 324 669 c 0
 324 646 316 636 284 616 c 2
 142 528 l 1
 86 528 l 1
EndSplineSet
Validated: 3073
EndChar

StartChar: micro
Encoding: 181 181 114
Width: 556
Flags: MW
LayerCount: 2
Fore
SplineSet
33 -129 m 0
 33 -86 66 -26 66 88 c 2
 66 461 l 1
 205 461 l 1
 205 149 l 2
 205 105 228 75 262 75 c 0
 283 75 308 84 336 102 c 1
 336 461 l 1
 475 461 l 1
 475 101 l 2
 475 75 493 54 515 54 c 0
 522 54 527 55 536 60 c 1
 536 36 l 1
 492 -3 472 -13 430 -13 c 0
 382 -13 351 3 329 39 c 1
 298 1 271 -13 230 -13 c 0
 190 -13 160 -3 128 22 c 1
 136 -41 161 -94 161 -130 c 0
 161 -179 138 -206 98 -206 c 0
 57 -206 33 -178 33 -129 c 0
EndSplineSet
Validated: 3073
EndChar

StartChar: paragraph
Encoding: 182 182 115
Width: 540
Flags: MW
LayerCount: 2
Fore
SplineSet
199 265 m 1
 33 271 0 391 0 481 c 0
 0 615 69 676 219 676 c 2
 519 676 l 1
 519 651 l 1
 508 650 497 649 493 649 c 0
 444 643 438 638 438 599 c 1
 437 589 l 1
 437 -99 l 1
 438 -109 l 1
 439 -148 443 -153 491 -159 c 0
 494 -159 504 -160 514 -161 c 1
 514 -186 l 1
 343 -186 l 1
 343 651 l 1
 293 651 l 1
 293 -186 l 1
 118 -186 l 1
 118 -161 l 1
 192 -154 198 -150 198 -109 c 1
 199 -99 l 1
 199 265 l 1
199 651 m 1
 149 638 90 617 90 483 c 0
 90 378 124 317 199 290 c 1
 199 651 l 1
EndSplineSet
Validated: 3073
EndChar

StartChar: middot
Encoding: 183 183 116
Width: 250
Flags: MW
LayerCount: 2
Fore
SplineSet
123 310 m 0
 159 310 189 280 189 244 c 0
 189 209 160 181 123 181 c 0
 88 181 60 210 60 247 c 0
 60 280 90 310 123 310 c 0
EndSplineSet
Validated: 3073
EndChar

StartChar: cedilla
Encoding: 184 184 117
Width: 333
Flags: MW
LayerCount: 2
Fore
SplineSet
84 -163 m 1
 104 -170 118 -177 144 -177 c 0
 180 -177 201 -162 201 -136 c 0
 201 -114 184 -100 155 -100 c 0
 146 -100 138 -101 127 -104 c 1
 116 -96 l 1
 159 0 l 1
 201 0 l 1
 173 -64 l 1
 185 -60 193 -59 206 -59 c 0
 261 -59 294 -85 294 -129 c 0
 294 -184 244 -218 164 -218 c 0
 131 -218 104 -213 68 -200 c 1
 84 -163 l 1
EndSplineSet
Validated: 3073
EndChar

StartChar: onesuperior
Encoding: 185 185 118
Width: 270
Flags: MW
LayerCount: 2
Fore
SplineSet
70 617 m 0
 53 617 28 607 14 602 c 1
 14 623 l 1
 178 688 l 1
 189 688 l 1
 189 351 l 2
 189 305 200 296 259 295 c 1
 259 275 l 1
 16 275 l 1
 16 295 l 1
 80 295 93 305 93 355 c 2
 93 576 l 2
 93 604 86 617 70 617 c 0
EndSplineSet
Validated: 3073
EndChar

StartChar: ordmasculine
Encoding: 186 186 119
Width: 330
Flags: MW
LayerCount: 2
Fore
SplineSet
165 688 m 0
 249 688 312 626 312 543 c 0
 312 457 250 397 163 397 c 0
 80 397 18 459 18 542 c 0
 18 626 81 688 165 688 c 0
165 667 m 0
 127 667 115 635 115 538 c 0
 115 449 128 417 164 417 c 0
 201 417 214 447 214 536 c 0
 214 636 202 667 165 667 c 0
EndSplineSet
Validated: 3073
EndChar

StartChar: guillemotright
Encoding: 187 187 120
Width: 500
Flags: MW
LayerCount: 2
Fore
SplineSet
145 224 m 1
 115 268 27 363 27 400 c 0
 27 409 32 415 38 415 c 0
 44 415 57 410 75 392 c 2
 281 226 l 1
 281 222 l 1
 72 53 l 2
 56 39 49 36 41 36 c 0
 33 36 29 40 29 47 c 0
 29 68 64 123 122 194 c 1
 145 224 l 1
341 224 m 1
 311 268 223 363 223 400 c 0
 223 409 228 415 235 415 c 0
 248 415 268 394 271 392 c 2
 477 226 l 1
 477 222 l 1
 274 58 l 2
 259 43 244 36 237 36 c 0
 229 36 225 40 225 47 c 0
 225 68 260 124 317 194 c 2
 341 224 l 1
EndSplineSet
Validated: 3073
EndChar

StartChar: onequarter
Encoding: 188 188 121
Width: 750
Flags: MW
LayerCount: 2
Fore
SplineSet
702 153 m 1
 743 153 l 1
 743 87 l 1
 702 87 l 1
 702 0 l 1
 608 0 l 1
 608 87 l 1
 447 87 l 1
 447 154 l 1
 489 217 522 259 611 367 c 2
 650 413 l 1
 702 413 l 1
 702 153 l 1
609 153 m 1
 609 328 l 1
 472 153 l 1
 609 153 l 1
615 688 m 1
 671 688 l 1
 232 -12 l 1
 174 -12 l 1
 615 688 l 1
84 617 m 0
 67 617 42 607 28 602 c 1
 28 623 l 1
 192 688 l 1
 203 688 l 1
 203 351 l 2
 203 305 214 296 273 295 c 1
 273 275 l 1
 30 275 l 1
 30 295 l 1
 94 295 107 305 107 355 c 2
 107 576 l 2
 107 604 100 617 84 617 c 0
EndSplineSet
Validated: 3073
EndChar

StartChar: onehalf
Encoding: 189 189 122
Width: 750
Flags: MW
LayerCount: 2
Fore
SplineSet
573 688 m 1
 629 688 l 1
 190 -12 l 1
 132 -12 l 1
 573 688 l 1
49 617 m 0
 32 617 7 607 -7 602 c 1
 -7 623 l 1
 157 688 l 1
 168 688 l 1
 168 351 l 2
 168 305 179 296 238 295 c 1
 238 275 l 1
 -5 275 l 1
 -5 295 l 1
 59 295 72 305 72 355 c 2
 72 576 l 2
 72 604 65 617 49 617 c 0
775 127 m 1
 745 0 l 1
 475 0 l 1
 475 14 l 1
 624 163 659 211 659 269 c 0
 659 311 626 345 584 345 c 0
 550 345 529 330 508 291 c 1
 484 291 l 1
 518 375 563 413 627 413 c 0
 697 413 747 367 747 302 c 0
 747 258 727 222 673 172 c 2
 580 85 l 1
 580 80 l 1
 666 80 l 2
 732 80 740 84 759 127 c 1
 775 127 l 1
EndSplineSet
Validated: 3073
EndChar

StartChar: threequarters
Encoding: 190 190 123
Width: 750
Flags: MW
LayerCount: 2
Fore
SplineSet
613 688 m 1
 669 688 l 1
 230 -12 l 1
 172 -12 l 1
 613 688 l 1
63 363 m 1
 132 356 133 304 179 304 c 0
 217 304 242 330 242 369 c 0
 242 427 208 459 112 490 c 1
 112 500 l 1
 173 518 196 539 196 579 c 0
 196 616 170 640 131 640 c 0
 100 640 81 627 56 590 c 1
 36 597 l 1
 72 658 120 688 185 688 c 0
 252 688 291 658 291 607 c 0
 291 572 278 553 241 533 c 1
 241 529 l 1
 291 509 317 473 317 424 c 0
 317 337 231 268 123 268 c 0
 62 268 23 289 23 322 c 0
 23 341 36 354 63 363 c 1
692 153 m 1
 733 153 l 1
 733 87 l 1
 692 87 l 1
 692 0 l 1
 598 0 l 1
 598 87 l 1
 437 87 l 1
 437 154 l 1
 479 217 512 259 601 367 c 2
 640 413 l 1
 692 413 l 1
 692 153 l 1
599 153 m 1
 599 328 l 1
 462 153 l 1
 599 153 l 1
EndSplineSet
Validated: 3073
EndChar

StartChar: questiondown
Encoding: 191 191 124
Width: 500
Flags: HMW
LayerCount: 2
Fore
SplineSet
349 -125 m 0
 349 -96 312 -92 312 -45 c 0
 312 -7 337 19 375 19 c 0
 414 19 443 -13 443 -57 c 0
 443 -141 365 -201 255 -201 c 0
 135 -201 55 -135 55 -35 c 0
 55 34 85 75 176 131 c 0
 239 170 247 184 247 257 c 1
 277 257 l 1
 279 227 279 222 279 211 c 0
 279 126 204 91 204 -35 c 0
 204 -117 235 -165 288 -165 c 0
 324 -165 349 -149 349 -125 c 0
261 332 m 0
 215 332 177 371 177 417 c 0
 177 464 214 501 261 501 c 0
 309 501 346 464 346 416 c 0
 346 371 307 332 261 332 c 0
EndSplineSet
EndChar

StartChar: Agrave
Encoding: 192 192 125
Width: 722
Flags: HMW
LayerCount: 2
Fore
SplineSet
406 715 m 1
 350 715 l 1
 208 803 l 2
 179 821 168 835 168 855 c 0
 168 880 189 900 215 900 c 0
 234 900 253 890 269 872 c 2
 406 715 l 1
689 25 m 1
 689 0 l 1
 365 0 l 1
 365 25 l 1
 379 27 392 28 397 28 c 0
 432 30 445 40 445 61 c 0
 445 83 433 119 399 197 c 1
 174 197 l 1
 159 158 l 2
 138 104 130 79 130 66 c 0
 130 40 153 29 212 25 c 1
 212 0 l 1
 9 0 l 1
 9 25 l 1
 57 34 69 49 107 142 c 2
 329 690 l 1
 357 690 l 1
 580 164 l 2
 630 46 646 25 685 25 c 2
 689 25 l 1
189 236 m 1
 384 236 l 1
 283 479 l 1
 189 236 l 1
EndSplineSet
EndChar

StartChar: Aacute
Encoding: 193 193 126
Width: 722
Flags: HMW
LayerCount: 2
Fore
SplineSet
262 715 m 1
 399 872 l 2
 416 891 433 900 452 900 c 0
 481 900 500 882 500 856 c 0
 500 833 492 823 460 803 c 2
 318 715 l 1
 262 715 l 1
689 25 m 1
 689 0 l 1
 365 0 l 1
 365 25 l 1
 379 27 392 28 397 28 c 0
 432 30 445 40 445 61 c 0
 445 83 433 119 399 197 c 1
 174 197 l 1
 159 158 l 2
 138 104 130 79 130 66 c 0
 130 40 153 29 212 25 c 1
 212 0 l 1
 9 0 l 1
 9 25 l 1
 57 34 69 49 107 142 c 2
 329 690 l 1
 357 690 l 1
 580 164 l 2
 630 46 646 25 685 25 c 2
 689 25 l 1
189 236 m 1
 384 236 l 1
 283 479 l 1
 189 236 l 1
EndSplineSet
EndChar

StartChar: Acircumflex
Encoding: 194 194 127
Width: 722
Flags: HMW
LayerCount: 2
Fore
SplineSet
455 723 m 1
 343 821 l 1
 231 723 l 1
 175 723 l 1
 297 899 l 1
 389 899 l 1
 512 723 l 1
 455 723 l 1
689 25 m 1
 689 0 l 1
 365 0 l 1
 365 25 l 1
 379 27 392 28 397 28 c 0
 432 30 445 40 445 61 c 0
 445 83 433 119 399 197 c 1
 174 197 l 1
 159 158 l 2
 138 104 130 79 130 66 c 0
 130 40 153 29 212 25 c 1
 212 0 l 1
 9 0 l 1
 9 25 l 1
 57 34 69 49 107 142 c 2
 329 690 l 1
 357 690 l 1
 580 164 l 2
 630 46 646 25 685 25 c 2
 689 25 l 1
189 236 m 1
 384 236 l 1
 283 479 l 1
 189 236 l 1
EndSplineSet
EndChar

StartChar: Atilde
Encoding: 195 195 128
Width: 722
Flags: HMW
LayerCount: 2
Fore
SplineSet
209 725 m 1
 167 725 l 1
 185 811 221 850 283 850 c 0
 304 850 328 844 356 831 c 2
 396 813 l 2
 420 802 424 801 435 801 c 0
 462 801 476 814 489 850 c 1
 532 850 l 1
 509 763 472 723 415 723 c 0
 395 723 370 729 351 737 c 2
 322 750 l 2
 279 769 271 772 258 772 c 0
 232 772 213 753 209 725 c 1
689 25 m 1
 689 0 l 1
 365 0 l 1
 365 25 l 1
 379 27 392 28 397 28 c 0
 432 30 445 40 445 61 c 0
 445 83 433 119 399 197 c 1
 174 197 l 1
 159 158 l 2
 138 104 130 79 130 66 c 0
 130 40 153 29 212 25 c 1
 212 0 l 1
 9 0 l 1
 9 25 l 1
 57 34 69 49 107 142 c 2
 329 690 l 1
 357 690 l 1
 580 164 l 2
 630 46 646 25 685 25 c 2
 689 25 l 1
189 236 m 1
 384 236 l 1
 283 479 l 1
 189 236 l 1
EndSplineSet
EndChar

StartChar: Adieresis
Encoding: 196 196 129
Width: 722
Flags: HMW
LayerCount: 2
Fore
SplineSet
237 848 m 0
 272 848 302 818 302 782 c 0
 302 747 273 719 237 719 c 0
 202 719 173 749 173 784 c 0
 173 818 203 848 237 848 c 0
446 848 m 0
 482 848 512 818 512 782 c 0
 512 747 483 719 446 719 c 0
 411 719 383 748 383 785 c 0
 383 818 413 848 446 848 c 0
689 25 m 1
 689 0 l 1
 365 0 l 1
 365 25 l 1
 379 27 392 28 397 28 c 0
 432 30 445 40 445 61 c 0
 445 83 433 119 399 197 c 1
 174 197 l 1
 159 158 l 2
 138 104 130 79 130 66 c 0
 130 40 153 29 212 25 c 1
 212 0 l 1
 9 0 l 1
 9 25 l 1
 57 34 69 49 107 142 c 2
 329 690 l 1
 357 690 l 1
 580 164 l 2
 630 46 646 25 685 25 c 2
 689 25 l 1
189 236 m 1
 384 236 l 1
 283 479 l 1
 189 236 l 1
EndSplineSet
EndChar

StartChar: Aring
Encoding: 197 197 130
Width: 722
Flags: HMW
LayerCount: 2
Fore
SplineSet
348 900 m 0
 403 900 448 854 448 799 c 0
 448 743 403 698 347 698 c 0
 291 698 246 744 246 801 c 0
 246 854 293 900 348 900 c 0
347 855 m 0
 317 855 292 828 292 799 c 0
 292 768 316 744 346 744 c 0
 377 744 403 768 403 798 c 0
 403 828 377 855 347 855 c 0
689 25 m 1
 689 0 l 1
 365 0 l 1
 365 25 l 1
 379 27 392 28 397 28 c 0
 432 30 445 40 445 61 c 0
 445 83 433 119 399 197 c 1
 174 197 l 1
 159 158 l 2
 138 104 130 79 130 66 c 0
 130 40 153 29 212 25 c 1
 212 0 l 1
 9 0 l 1
 9 25 l 1
 57 34 69 49 107 142 c 2
 329 690 l 1
 357 690 l 1
 580 164 l 2
 630 46 646 25 685 25 c 2
 689 25 l 1
189 236 m 1
 384 236 l 1
 283 479 l 1
 189 236 l 1
EndSplineSet
EndChar

StartChar: AE
Encoding: 198 198 131
Width: 1000
Flags: MW
LayerCount: 2
Fore
SplineSet
884 475 m 1
 862 582 839 641 660 641 c 0
 606 641 592 635 592 611 c 2
 592 363 l 1
 709 373 719 383 747 512 c 1
 770 512 l 1
 770 174 l 1
 747 174 l 1
 729 298 704 324 592 331 c 1
 592 88 l 2
 592 45 608 34 668 34 c 0
 753 34 812 53 852 95 c 0
 886 130 920 181 928 211 c 1
 951 211 l 1
 910 0 l 1
 344 0 l 1
 344 25 l 1
 417 29 432 45 432 119 c 2
 432 303 l 1
 242 303 l 1
 142 115 l 2
 131 95 127 82 127 70 c 0
 127 43 141 33 193 27 c 2
 210 25 l 1
 210 0 l 1
 4 0 l 1
 4 25 l 1
 43 31 52 40 114 153 c 0
 327 542 l 2
 336 556 362 602 362 617 c 0
 362 641 341 650 275 654 c 1
 275 676 l 1
 909 676 l 1
 909 475 l 1
 884 475 l 1
264 343 m 1
 432 343 l 1
 432 633 l 1
 425 633 l 1
 264 343 l 1
EndSplineSet
Validated: 3073
EndChar

StartChar: Ccedilla
Encoding: 199 199 132
Width: 722
Flags: MW
LayerCount: 2
Fore
SplineSet
427 29 m 0
 523 29 592 84 657 152 c 1
 687 127 l 1
 593 20 518 -18 401 -19 c 1
 381 -64 l 1
 393 -60 401 -59 414 -59 c 0
 469 -59 502 -85 502 -129 c 0
 502 -184 452 -218 372 -218 c 0
 339 -218 312 -213 276 -200 c 1
 292 -163 l 1
 307 -168 327 -177 351 -177 c 0
 388 -177 409 -162 409 -136 c 0
 409 -114 392 -100 363 -100 c 0
 354 -100 346 -101 335 -104 c 1
 324 -96 l 1
 359 -17 l 1
 356 -16 l 2
 174 2 49 144 49 332 c 0
 49 537 198 691 397 691 c 0
 506 691 558 642 598 642 c 0
 617 642 628 653 642 688 c 1
 669 688 l 1
 669 454 l 1
 644 454 l 1
 620 505 542 658 410 658 c 0
 290 658 226 548 226 341 c 0
 226 101 314 29 427 29 c 0
EndSplineSet
Validated: 3073
EndChar

StartChar: Egrave
Encoding: 200 200 133
Width: 667
Flags: HMW
LayerCount: 2
Fore
SplineSet
406 715 m 1
 350 715 l 1
 208 803 l 2
 179 821 168 835 168 855 c 0
 168 880 189 900 215 900 c 0
 234 900 253 890 269 872 c 2
 406 715 l 1
349 31 m 0
 507 31 565 105 613 208 c 1
 641 208 l 1
 601 0 l 1
 16 0 l 1
 16 25 l 1
 90 33 104 44 104 96 c 2
 104 580 l 2
 104 631 85 647 16 651 c 1
 16 676 l 1
 593 676 l 1
 593 475 l 1
 568 475 l 1
 543 608 494 642 331 642 c 0
 279 642 266 633 266 595 c 2
 266 363 l 1
 267 363 269 363 270 363 c 0
 375 363 413 400 428 512 c 1
 454 512 l 1
 454 174 l 1
 428 174 l 1
 416 290 375 329 266 329 c 1
 266 87 l 2
 266 44 285 31 349 31 c 0
EndSplineSet
EndChar

StartChar: Eacute
Encoding: 201 201 134
Width: 667
Flags: HMW
LayerCount: 2
Fore
SplineSet
246 715 m 1
 383 872 l 2
 400 891 417 900 436 900 c 0
 465 900 484 882 484 856 c 0
 484 833 476 823 444 803 c 2
 302 715 l 1
 246 715 l 1
349 31 m 0
 507 31 565 105 613 208 c 1
 641 208 l 1
 601 0 l 1
 16 0 l 1
 16 25 l 1
 90 33 104 44 104 96 c 2
 104 580 l 2
 104 631 85 647 16 651 c 1
 16 676 l 1
 593 676 l 1
 593 475 l 1
 568 475 l 1
 543 608 494 642 331 642 c 0
 279 642 266 633 266 595 c 2
 266 363 l 1
 267 363 269 363 270 363 c 0
 375 363 413 400 428 512 c 1
 454 512 l 1
 454 174 l 1
 428 174 l 1
 416 290 375 329 266 329 c 1
 266 87 l 2
 266 44 285 31 349 31 c 0
EndSplineSet
EndChar

StartChar: Ecircumflex
Encoding: 202 202 135
Width: 667
Flags: HMW
LayerCount: 2
Fore
SplineSet
439 723 m 1
 327 821 l 1
 215 723 l 1
 159 723 l 1
 281 899 l 1
 373 899 l 1
 496 723 l 1
 439 723 l 1
349 31 m 0
 507 31 565 105 613 208 c 1
 641 208 l 1
 601 0 l 1
 16 0 l 1
 16 25 l 1
 90 33 104 44 104 96 c 2
 104 580 l 2
 104 631 85 647 16 651 c 1
 16 676 l 1
 593 676 l 1
 593 475 l 1
 568 475 l 1
 543 608 494 642 331 642 c 0
 279 642 266 633 266 595 c 2
 266 363 l 1
 267 363 269 363 270 363 c 0
 375 363 413 400 428 512 c 1
 454 512 l 1
 454 174 l 1
 428 174 l 1
 416 290 375 329 266 329 c 1
 266 87 l 2
 266 44 285 31 349 31 c 0
EndSplineSet
EndChar

StartChar: Edieresis
Encoding: 203 203 136
Width: 667
Flags: HMW
LayerCount: 2
Fore
SplineSet
223 849 m 0
 258 849 288 819 288 783 c 0
 288 748 259 720 223 720 c 0
 188 720 159 750 159 785 c 0
 159 819 189 849 223 849 c 0
432 849 m 0
 468 849 498 819 498 783 c 0
 498 748 469 720 432 720 c 0
 397 720 369 749 369 786 c 0
 369 819 399 849 432 849 c 0
349 31 m 0
 507 31 565 105 613 208 c 1
 641 208 l 1
 601 0 l 1
 16 0 l 1
 16 25 l 1
 90 33 104 44 104 96 c 2
 104 580 l 2
 104 631 85 647 16 651 c 1
 16 676 l 1
 593 676 l 1
 593 475 l 1
 568 475 l 1
 543 608 494 642 331 642 c 0
 279 642 266 633 266 595 c 2
 266 363 l 1
 267 363 269 363 270 363 c 0
 375 363 413 400 428 512 c 1
 454 512 l 1
 454 174 l 1
 428 174 l 1
 416 290 375 329 266 329 c 1
 266 87 l 2
 266 44 285 31 349 31 c 0
EndSplineSet
EndChar

StartChar: Igrave
Encoding: 204 204 137
Width: 389
Flags: HMW
LayerCount: 2
Fore
SplineSet
262 714 m 1
 206 714 l 1
 64 802 l 2
 35 820 24 834 24 854 c 0
 24 879 45 899 71 899 c 0
 90 899 109 889 125 871 c 2
 262 714 l 1
109 96 m 2
 109 580 l 2
 109 631 88 646 16 651 c 1
 16 676 l 1
 366 676 l 1
 366 651 l 1
 292 648 271 632 271 580 c 2
 271 96 l 2
 271 44 290 30 366 25 c 1
 366 0 l 1
 16 0 l 1
 16 25 l 1
 91 32 109 46 109 96 c 2
EndSplineSet
EndChar

StartChar: Iacute
Encoding: 205 205 138
Width: 389
Flags: HMW
LayerCount: 2
Fore
SplineSet
111 715 m 1
 248 872 l 2
 265 891 282 900 301 900 c 0
 330 900 349 882 349 856 c 0
 349 833 341 823 309 803 c 2
 167 715 l 1
 111 715 l 1
109 96 m 2
 109 580 l 2
 109 631 88 646 16 651 c 1
 16 676 l 1
 366 676 l 1
 366 651 l 1
 292 648 271 632 271 580 c 2
 271 96 l 2
 271 44 290 30 366 25 c 1
 366 0 l 1
 16 0 l 1
 16 25 l 1
 91 32 109 46 109 96 c 2
EndSplineSet
EndChar

StartChar: Icircumflex
Encoding: 206 206 139
Width: 389
Flags: HMW
LayerCount: 2
Fore
SplineSet
302 724 m 1
 190 822 l 1
 78 724 l 1
 22 724 l 1
 144 900 l 1
 236 900 l 1
 359 724 l 1
 302 724 l 1
109 96 m 2
 109 580 l 2
 109 631 88 646 16 651 c 1
 16 676 l 1
 366 676 l 1
 366 651 l 1
 292 648 271 632 271 580 c 2
 271 96 l 2
 271 44 290 30 366 25 c 1
 366 0 l 1
 16 0 l 1
 16 25 l 1
 91 32 109 46 109 96 c 2
EndSplineSet
EndChar

StartChar: Idieresis
Encoding: 207 207 140
Width: 389
Flags: HMW
LayerCount: 2
Fore
SplineSet
86 858 m 0
 121 858 151 828 151 792 c 0
 151 757 122 729 86 729 c 0
 51 729 22 759 22 794 c 0
 22 828 52 858 86 858 c 0
295 858 m 0
 331 858 361 828 361 792 c 0
 361 757 332 729 295 729 c 0
 260 729 232 758 232 795 c 0
 232 828 262 858 295 858 c 0
109 96 m 2
 109 580 l 2
 109 631 88 646 16 651 c 1
 16 676 l 1
 366 676 l 1
 366 651 l 1
 292 648 271 632 271 580 c 2
 271 96 l 2
 271 44 290 30 366 25 c 1
 366 0 l 1
 16 0 l 1
 16 25 l 1
 91 32 109 46 109 96 c 2
EndSplineSet
EndChar

StartChar: Eth
Encoding: 208 208 141
Width: 722
Flags: MW
LayerCount: 2
Fore
SplineSet
6 326 m 1
 6 373 l 1
 97 373 l 1
 97 584 l 2
 97 630 78 645 14 651 c 1
 14 676 l 1
 319 676 l 2
 550 676 690 551 690 345 c 0
 690 138 546 0 330 0 c 2
 14 0 l 1
 14 25 l 1
 72 27 97 47 97 91 c 2
 97 326 l 1
 6 326 l 1
319 642 m 0
 265 642 259 626 259 595 c 2
 259 373 l 1
 373 373 l 1
 373 326 l 1
 259 326 l 1
 259 93 l 2
 259 48 272 35 317 35 c 0
 421 35 516 98 516 330 c 0
 516 576 409 642 319 642 c 0
EndSplineSet
Validated: 3073
EndChar

StartChar: Ntilde
Encoding: 209 209 142
Width: 722
Flags: HMW
LayerCount: 2
Fore
SplineSet
214 759 m 1
 172 759 l 1
 190 845 226 884 288 884 c 0
 309 884 333 878 361 865 c 2
 401 847 l 2
 425 836 429 835 440 835 c 0
 467 835 481 848 494 884 c 1
 537 884 l 1
 514 797 477 757 420 757 c 0
 400 757 375 763 356 771 c 2
 327 784 l 2
 284 803 276 806 263 806 c 0
 237 806 218 787 214 759 c 1
230 676 m 1
 579 247 l 1
 579 552 l 2
 579 623 560 644 486 651 c 1
 486 676 l 1
 701 676 l 1
 701 651 l 1
 636 641 623 628 623 571 c 2
 623 -18 l 1
 595 -18 l 1
 148 526 l 1
 148 124 l 2
 148 53 166 34 243 25 c 1
 243 0 l 1
 16 0 l 1
 16 25 l 1
 89 34 104 48 104 105 c 2
 104 579 l 1
 56 636 39 651 19 651 c 1
 19 676 l 1
 230 676 l 1
EndSplineSet
EndChar

StartChar: Ograve
Encoding: 210 210 143
Width: 778
Flags: HMW
LayerCount: 2
Fore
SplineSet
462 715 m 1
 406 715 l 1
 264 803 l 2
 235 821 224 835 224 855 c 0
 224 880 245 900 271 900 c 0
 290 900 309 890 325 872 c 2
 462 715 l 1
393 691 m 0
 594 691 743 540 743 336 c 0
 743 129 596 -19 389 -19 c 0
 182 -19 35 128 35 335 c 0
 35 543 184 691 393 691 c 0
392 658 m 0
 275 658 212 542 212 326 c 0
 212 124 274 14 389 14 c 0
 504 14 566 124 566 329 c 0
 566 537 502 658 392 658 c 0
EndSplineSet
EndChar

StartChar: Oacute
Encoding: 211 211 144
Width: 778
Flags: HMW
LayerCount: 2
Fore
SplineSet
302 715 m 1
 439 872 l 2
 456 891 473 900 492 900 c 0
 521 900 540 882 540 856 c 0
 540 833 532 823 500 803 c 2
 358 715 l 1
 302 715 l 1
393 691 m 0
 594 691 743 540 743 336 c 0
 743 129 596 -19 389 -19 c 0
 182 -19 35 128 35 335 c 0
 35 543 184 691 393 691 c 0
392 658 m 0
 275 658 212 542 212 326 c 0
 212 124 274 14 389 14 c 0
 504 14 566 124 566 329 c 0
 566 537 502 658 392 658 c 0
EndSplineSet
EndChar

StartChar: Ocircumflex
Encoding: 212 212 145
Width: 778
Flags: HMW
LayerCount: 2
Fore
SplineSet
505 723 m 1
 393 821 l 1
 281 723 l 1
 225 723 l 1
 347 899 l 1
 439 899 l 1
 562 723 l 1
 505 723 l 1
393 691 m 0
 594 691 743 540 743 336 c 0
 743 129 596 -19 389 -19 c 0
 182 -19 35 128 35 335 c 0
 35 543 184 691 393 691 c 0
392 658 m 0
 275 658 212 542 212 326 c 0
 212 124 274 14 389 14 c 0
 504 14 566 124 566 329 c 0
 566 537 502 658 392 658 c 0
EndSplineSet
EndChar

StartChar: Otilde
Encoding: 213 213 146
Width: 778
Flags: HMW
LayerCount: 2
Fore
SplineSet
250 727 m 1
 208 727 l 1
 226 813 262 852 324 852 c 0
 345 852 369 846 397 833 c 2
 437 815 l 2
 461 804 465 803 476 803 c 0
 503 803 517 816 530 852 c 1
 573 852 l 1
 550 765 513 725 456 725 c 0
 436 725 411 731 392 739 c 2
 363 752 l 2
 320 771 312 774 299 774 c 0
 273 774 254 755 250 727 c 1
393 691 m 0
 594 691 743 540 743 336 c 0
 743 129 596 -19 389 -19 c 0
 182 -19 35 128 35 335 c 0
 35 543 184 691 393 691 c 0
392 658 m 0
 275 658 212 542 212 326 c 0
 212 124 274 14 389 14 c 0
 504 14 566 124 566 329 c 0
 566 537 502 658 392 658 c 0
EndSplineSet
EndChar

StartChar: Odieresis
Encoding: 214 214 147
Width: 778
Flags: HMW
LayerCount: 2
Fore
SplineSet
277 853 m 0
 312 853 342 823 342 787 c 0
 342 752 313 724 277 724 c 0
 242 724 213 754 213 789 c 0
 213 823 243 853 277 853 c 0
486 853 m 0
 522 853 552 823 552 787 c 0
 552 752 523 724 486 724 c 0
 451 724 423 753 423 790 c 0
 423 823 453 853 486 853 c 0
393 691 m 0
 594 691 743 540 743 336 c 0
 743 129 596 -19 389 -19 c 0
 182 -19 35 128 35 335 c 0
 35 543 184 691 393 691 c 0
392 658 m 0
 275 658 212 542 212 326 c 0
 212 124 274 14 389 14 c 0
 504 14 566 124 566 329 c 0
 566 537 502 658 392 658 c 0
EndSplineSet
EndChar

StartChar: multiply
Encoding: 215 215 148
Width: 676
Flags: MW
LayerCount: 2
Fore
SplineSet
614 51 m 1
 546 -17 l 1
 338 191 l 1
 130 -17 l 1
 62 51 l 1
 268 257 l 1
 62 463 l 1
 130 531 l 1
 338 324 l 1
 546 531 l 1
 614 463 l 1
 408 257 l 1
 614 51 l 1
EndSplineSet
Validated: 3073
EndChar

StartChar: Oslash
Encoding: 216 216 149
Width: 778
Flags: MW
LayerCount: 2
Fore
SplineSet
167 52 m 1
 128 86 35 165 35 335 c 0
 35 542 183 691 390 691 c 0
 458 691 509 678 572 644 c 1
 635 737 l 1
 685 737 l 1
 607 622 l 1
 654 583 743 508 743 336 c 0
 743 128 596 -19 389 -19 c 0
 317 -19 265 -5 202 30 c 1
 131 -74 l 1
 81 -74 l 1
 167 52 l 1
234 151 m 1
 520 569 l 1
 485 633 448 658 389 658 c 0
 276 658 212 539 212 328 c 0
 212 254 217 212 234 151 c 1
540 524 m 1
 253 104 l 1
 287 40 326 14 389 14 c 0
 505 14 566 124 566 331 c 0
 566 411 560 459 540 524 c 1
EndSplineSet
Validated: 3073
EndChar

StartChar: Ugrave
Encoding: 217 217 150
Width: 722
Flags: HMW
LayerCount: 2
Fore
SplineSet
448 715 m 1
 392 715 l 1
 250 803 l 2
 221 821 210 835 210 855 c 0
 210 880 231 900 257 900 c 0
 276 900 295 890 311 872 c 2
 448 715 l 1
354 651 m 1
 277 648 257 638 257 559 c 2
 257 225 l 2
 257 89 302 30 404 30 c 0
 523 30 579 99 579 247 c 2
 579 552 l 2
 579 625 559 645 481 651 c 1
 481 676 l 1
 701 676 l 1
 701 651 l 1
 637 641 623 625 623 566 c 2
 623 247 l 2
 623 95 558 -19 365 -19 c 0
 292 -19 228 -1 180 34 c 0
 119 78 98 127 98 225 c 2
 98 559 l 2
 98 631 86 644 16 651 c 1
 16 676 l 1
 354 676 l 1
 354 651 l 1
EndSplineSet
EndChar

StartChar: Uacute
Encoding: 218 218 151
Width: 722
Flags: HMW
LayerCount: 2
Fore
SplineSet
308 715 m 1
 445 872 l 2
 462 891 479 900 498 900 c 0
 527 900 546 882 546 856 c 0
 546 833 538 823 506 803 c 2
 364 715 l 1
 308 715 l 1
354 651 m 1
 277 648 257 638 257 559 c 2
 257 225 l 2
 257 89 302 30 404 30 c 0
 523 30 579 99 579 247 c 2
 579 552 l 2
 579 625 559 645 481 651 c 1
 481 676 l 1
 701 676 l 1
 701 651 l 1
 637 641 623 625 623 566 c 2
 623 247 l 2
 623 95 558 -19 365 -19 c 0
 292 -19 228 -1 180 34 c 0
 119 78 98 127 98 225 c 2
 98 559 l 2
 98 631 86 644 16 651 c 1
 16 676 l 1
 354 676 l 1
 354 651 l 1
EndSplineSet
EndChar

StartChar: Ucircumflex
Encoding: 219 219 152
Width: 722
Flags: HMW
LayerCount: 2
Fore
SplineSet
501 724 m 1
 389 822 l 1
 277 724 l 1
 221 724 l 1
 343 900 l 1
 435 900 l 1
 558 724 l 1
 501 724 l 1
354 651 m 1
 277 648 257 638 257 559 c 2
 257 225 l 2
 257 89 302 30 404 30 c 0
 523 30 579 99 579 247 c 2
 579 552 l 2
 579 625 559 645 481 651 c 1
 481 676 l 1
 701 676 l 1
 701 651 l 1
 637 641 623 625 623 566 c 2
 623 247 l 2
 623 95 558 -19 365 -19 c 0
 292 -19 228 -1 180 34 c 0
 119 78 98 127 98 225 c 2
 98 559 l 2
 98 631 86 644 16 651 c 1
 16 676 l 1
 354 676 l 1
 354 651 l 1
EndSplineSet
EndChar

StartChar: Udieresis
Encoding: 220 220 153
Width: 722
Flags: HMW
LayerCount: 2
Fore
SplineSet
277 853 m 0
 312 853 342 823 342 787 c 0
 342 752 313 724 277 724 c 0
 242 724 213 754 213 789 c 0
 213 823 243 853 277 853 c 0
486 853 m 0
 522 853 552 823 552 787 c 0
 552 752 523 724 486 724 c 0
 451 724 423 753 423 790 c 0
 423 823 453 853 486 853 c 0
354 651 m 1
 277 648 257 638 257 559 c 2
 257 225 l 2
 257 89 302 30 404 30 c 0
 523 30 579 99 579 247 c 2
 579 552 l 2
 579 625 559 645 481 651 c 1
 481 676 l 1
 701 676 l 1
 701 651 l 1
 637 641 623 625 623 566 c 2
 623 247 l 2
 623 95 558 -19 365 -19 c 0
 292 -19 228 -1 180 34 c 0
 119 78 98 127 98 225 c 2
 98 559 l 2
 98 631 86 644 16 651 c 1
 16 676 l 1
 354 676 l 1
 354 651 l 1
EndSplineSet
EndChar

StartChar: Yacute
Encoding: 221 221 154
Width: 722
Flags: HMW
LayerCount: 2
Fore
SplineSet
313 715 m 1
 450 872 l 2
 467 891 484 900 503 900 c 0
 532 900 551 882 551 856 c 0
 551 833 543 823 511 803 c 2
 369 715 l 1
 313 715 l 1
699 676 m 1
 699 651 l 1
 665 646 645 635 631 612 c 0
 440 301 l 1
 440 117 l 2
 440 43 450 33 532 25 c 1
 532 0 l 1
 185 0 l 1
 185 25 l 1
 267 33 278 44 278 117 c 2
 278 264 l 1
 95 596 l 1
 75 630 49 649 15 651 c 1
 15 676 l 1
 350 676 l 1
 350 651 l 1
 325 650 l 2
 284 650 269 642 269 620 c 0
 269 598 289 573 293 561 c 2
 413 329 l 1
 524 514 l 2
 549 555 563 590 563 609 c 0
 563 638 546 646 479 651 c 1
 479 676 l 1
 699 676 l 1
EndSplineSet
EndChar

StartChar: Thorn
Encoding: 222 222 155
Width: 611
Flags: MW
LayerCount: 2
Fore
SplineSet
262 546 m 1
 328 546 l 2
 507 546 600 483 600 363 c 0
 600 299 569 247 512 212 c 0
 457 180 421 174 262 173 c 1
 262 117 l 2
 262 44 271 35 350 25 c 1
 350 0 l 1
 16 0 l 1
 16 25 l 1
 27 27 37 29 40 29 c 0
 87 35 100 55 100 117 c 2
 100 559 l 2
 100 629 86 645 16 651 c 1
 16 676 l 1
 350 676 l 1
 350 651 l 1
 270 640 262 631 262 558 c 2
 262 546 l 1
262 208 m 1
 390 208 428 236 428 359 c 0
 428 467 395 511 312 511 c 0
 279 511 262 499 262 476 c 2
 262 208 l 1
EndSplineSet
Validated: 3073
EndChar

StartChar: germandbls
Encoding: 223 223 156
Width: 556
Flags: MW
LayerCount: 2
Fore
SplineSet
371 195 m 0
 371 346 336 369 269 373 c 1
 269 407 l 1
 326 408 339 431 339 530 c 0
 339 624 318 663 268 663 c 0
 230 663 209 636 209 586 c 2
 209 0 l 1
 19 0 l 1
 19 24 l 1
 62 31 70 41 70 87 c 2
 70 507 l 2
 70 614 156 691 277 691 c 0
 391 691 476 625 476 537 c 0
 476 445 391 409 320 393 c 1
 367 379 517 348 517 194 c 0
 517 80 433 -12 328 -12 c 0
 310 -12 294 -8 264 3 c 1
 278 37 l 1
 288 30 l 2
 297 24 301 23 310 23 c 0
 357 23 371 63 371 195 c 0
EndSplineSet
Validated: 3073
EndChar

StartChar: agrave
Encoding: 224 224 157
Width: 500
Flags: HMW
LayerCount: 2
Fore
SplineSet
329 528 m 1
 273 528 l 1
 131 616 l 2
 102 634 91 648 91 668 c 0
 91 693 112 713 138 713 c 0
 157 713 176 703 192 685 c 2
 329 528 l 1
147 404 m 0
 147 390 177 369 177 339 c 0
 177 305 149 281 109 281 c 0
 68 281 44 306 44 347 c 0
 44 422 120 473 233 473 c 0
 355 473 431 420 431 336 c 2
 431 75 l 2
 431 59 438 50 452 50 c 0
 457 50 460 51 463 54 c 2
 473 64 l 1
 488 43 l 1
 450 2 419 -14 376 -14 c 0
 327 -14 305 5 294 56 c 1
 239 6 193 -14 136 -14 c 0
 72 -14 25 31 25 92 c 0
 25 205 178 245 294 280 c 1
 294 353 l 2
 294 414 268 441 210 441 c 0
 175 441 147 425 147 404 c 0
293 100 m 1
 293 245 l 1
 213 224 171 182 171 124 c 0
 171 84 192 57 222 57 c 0
 246 57 266 69 293 100 c 1
EndSplineSet
EndChar

StartChar: aacute
Encoding: 225 225 158
Width: 500
Flags: HMW
LayerCount: 2
Fore
SplineSet
155 528 m 1
 292 685 l 2
 309 704 326 713 345 713 c 0
 374 713 393 695 393 669 c 0
 393 646 385 636 353 616 c 2
 211 528 l 1
 155 528 l 1
147 404 m 0
 147 390 177 369 177 339 c 0
 177 305 149 281 109 281 c 0
 68 281 44 306 44 347 c 0
 44 422 120 473 233 473 c 0
 355 473 431 420 431 336 c 2
 431 75 l 2
 431 59 438 50 452 50 c 0
 457 50 460 51 463 54 c 2
 473 64 l 1
 488 43 l 1
 450 2 419 -14 376 -14 c 0
 327 -14 305 5 294 56 c 1
 239 6 193 -14 136 -14 c 0
 72 -14 25 31 25 92 c 0
 25 205 178 245 294 280 c 1
 294 353 l 2
 294 414 268 441 210 441 c 0
 175 441 147 425 147 404 c 0
293 100 m 1
 293 245 l 1
 213 224 171 182 171 124 c 0
 171 84 192 57 222 57 c 0
 246 57 266 69 293 100 c 1
EndSplineSet
EndChar

StartChar: acircumflex
Encoding: 226 226 159
Width: 500
Flags: HMW
LayerCount: 2
Fore
SplineSet
362 528 m 1
 250 626 l 1
 138 528 l 1
 82 528 l 1
 204 704 l 1
 296 704 l 1
 419 528 l 1
 362 528 l 1
147 404 m 0
 147 390 177 369 177 339 c 0
 177 305 149 281 109 281 c 0
 68 281 44 306 44 347 c 0
 44 422 120 473 233 473 c 0
 355 473 431 420 431 336 c 2
 431 75 l 2
 431 59 438 50 452 50 c 0
 457 50 460 51 463 54 c 2
 473 64 l 1
 488 43 l 1
 450 2 419 -14 376 -14 c 0
 327 -14 305 5 294 56 c 1
 239 6 193 -14 136 -14 c 0
 72 -14 25 31 25 92 c 0
 25 205 178 245 294 280 c 1
 294 353 l 2
 294 414 268 441 210 441 c 0
 175 441 147 425 147 404 c 0
293 100 m 1
 293 245 l 1
 213 224 171 182 171 124 c 0
 171 84 192 57 222 57 c 0
 246 57 266 69 293 100 c 1
EndSplineSet
EndChar

StartChar: atilde
Encoding: 227 227 160
Width: 500
Flags: HMW
LayerCount: 2
Fore
SplineSet
110 549 m 1
 68 549 l 1
 86 635 122 674 184 674 c 0
 205 674 229 668 257 655 c 2
 297 637 l 2
 321 626 325 625 336 625 c 0
 363 625 377 638 390 674 c 1
 433 674 l 1
 410 587 373 547 316 547 c 0
 296 547 271 553 252 561 c 2
 223 574 l 2
 180 593 172 596 159 596 c 0
 133 596 114 577 110 549 c 1
147 404 m 0
 147 390 177 369 177 339 c 0
 177 305 149 281 109 281 c 0
 68 281 44 306 44 347 c 0
 44 422 120 473 233 473 c 0
 355 473 431 420 431 336 c 2
 431 75 l 2
 431 59 438 50 452 50 c 0
 457 50 460 51 463 54 c 2
 473 64 l 1
 488 43 l 1
 450 2 419 -14 376 -14 c 0
 327 -14 305 5 294 56 c 1
 239 6 193 -14 136 -14 c 0
 72 -14 25 31 25 92 c 0
 25 205 178 245 294 280 c 1
 294 353 l 2
 294 414 268 441 210 441 c 0
 175 441 147 425 147 404 c 0
293 100 m 1
 293 245 l 1
 213 224 171 182 171 124 c 0
 171 84 192 57 222 57 c 0
 246 57 266 69 293 100 c 1
EndSplineSet
EndChar

StartChar: adieresis
Encoding: 228 228 161
Width: 500
Flags: HMW
LayerCount: 2
Fore
SplineSet
140 666 m 0
 175 666 205 636 205 600 c 0
 205 565 176 537 140 537 c 0
 105 537 76 567 76 602 c 0
 76 636 106 666 140 666 c 0
349 666 m 0
 385 666 415 636 415 600 c 0
 415 565 386 537 349 537 c 0
 314 537 286 566 286 603 c 0
 286 636 316 666 349 666 c 0
147 404 m 0
 147 390 177 369 177 339 c 0
 177 305 149 281 109 281 c 0
 68 281 44 306 44 347 c 0
 44 422 120 473 233 473 c 0
 355 473 431 420 431 336 c 2
 431 75 l 2
 431 59 438 50 452 50 c 0
 457 50 460 51 463 54 c 2
 473 64 l 1
 488 43 l 1
 450 2 419 -14 376 -14 c 0
 327 -14 305 5 294 56 c 1
 239 6 193 -14 136 -14 c 0
 72 -14 25 31 25 92 c 0
 25 205 178 245 294 280 c 1
 294 353 l 2
 294 414 268 441 210 441 c 0
 175 441 147 425 147 404 c 0
293 100 m 1
 293 245 l 1
 213 224 171 182 171 124 c 0
 171 84 192 57 222 57 c 0
 246 57 266 69 293 100 c 1
EndSplineSet
EndChar

StartChar: aring
Encoding: 229 229 162
Width: 500
Flags: HMW
LayerCount: 2
Fore
SplineSet
232 711 m 0
 287 711 332 665 332 610 c 0
 332 554 287 509 231 509 c 0
 175 509 130 555 130 612 c 0
 130 665 177 711 232 711 c 0
231 666 m 0
 201 666 176 639 176 610 c 0
 176 579 200 555 230 555 c 0
 261 555 287 579 287 609 c 0
 287 639 261 666 231 666 c 0
147 404 m 0
 147 390 177 369 177 339 c 0
 177 305 149 281 109 281 c 0
 68 281 44 306 44 347 c 0
 44 422 120 473 233 473 c 0
 355 473 431 420 431 336 c 2
 431 75 l 2
 431 59 438 50 452 50 c 0
 457 50 460 51 463 54 c 2
 473 64 l 1
 488 43 l 1
 450 2 419 -14 376 -14 c 0
 327 -14 305 5 294 56 c 1
 239 6 193 -14 136 -14 c 0
 72 -14 25 31 25 92 c 0
 25 205 178 245 294 280 c 1
 294 353 l 2
 294 414 268 441 210 441 c 0
 175 441 147 425 147 404 c 0
293 100 m 1
 293 245 l 1
 213 224 171 182 171 124 c 0
 171 84 192 57 222 57 c 0
 246 57 266 69 293 100 c 1
EndSplineSet
EndChar

StartChar: ae
Encoding: 230 230 163
Width: 722
Flags: MW
AnchorPoint: "above" 374 470 basechar 0
LayerCount: 2
Fore
SplineSet
153 406 m 0
 153 387 182 381 182 341 c 0
 182 305 159 284 119 284 c 0
 77 284 50 309 50 348 c 0
 50 420 127 473 232 473 c 0
 298 473 336 459 374 422 c 1
 411 458 449 473 501 473 c 0
 578 473 688 439 688 248 c 1
 434 248 l 1
 434 225 l 2
 434 110 468 61 549 61 c 0
 598 61 633 80 672 128 c 1
 693 113 l 1
 634 23 579 -9 484 -9 c 0
 414 -9 375 13 337 75 c 1
 281 19 225 -14 151 -14 c 0
 74 -14 33 24 33 94 c 0
 33 206 159 235 296 280 c 1
 296 360 l 2
 296 418 274 441 218 441 c 0
 180 441 153 426 153 406 c 0
296 81 m 1
 296 248 l 1
 208 216 177 183 177 121 c 0
 177 74 197 49 234 49 c 0
 257 49 272 56 296 81 c 1
434 285 m 1
 567 285 l 1
 567 318 l 2
 567 411 551 443 504 443 c 0
 452 443 434 403 434 285 c 1
EndSplineSet
Validated: 3073
EndChar

StartChar: ccedilla
Encoding: 231 231 164
Width: 444
Flags: MW
LayerCount: 2
Fore
SplineSet
153 -163 m 1
 168 -168 188 -177 212 -177 c 0
 249 -177 270 -162 270 -136 c 0
 270 -114 253 -100 224 -100 c 0
 215 -100 207 -101 196 -104 c 1
 185 -96 l 1
 222 -13 l 1
 103 -2 25 91 25 222 c 0
 25 367 125 473 261 473 c 0
 349 473 416 425 416 363 c 0
 416 324 390 300 348 300 c 0
 311 300 293 323 292 372 c 0
 292 414 292 414 287 423 c 0
 281 434 266 442 250 442 c 0
 198 442 166 379 166 276 c 0
 166 140 221 53 308 53 c 0
 349 53 375 67 412 109 c 1
 430 91 l 1
 383 28 334 -3 265 -13 c 1
 242 -64 l 1
 254 -60 262 -59 275 -59 c 0
 330 -59 363 -85 363 -129 c 0
 363 -184 313 -218 233 -218 c 0
 200 -218 173 -213 137 -200 c 1
 153 -163 l 1
EndSplineSet
Validated: 3073
EndChar

StartChar: egrave
Encoding: 232 232 165
Width: 444
Flags: HMW
LayerCount: 2
Fore
SplineSet
313 528 m 1
 257 528 l 1
 115 616 l 2
 86 634 75 648 75 668 c 0
 75 693 96 713 122 713 c 0
 141 713 160 703 176 685 c 2
 313 528 l 1
169 245 m 1
 173 171 187 58 288 58 c 0
 331 58 362 76 402 125 c 1
 426 111 l 1
 361 18 312 -14 231 -14 c 0
 107 -14 25 82 25 228 c 0
 25 374 109 473 234 473 c 0
 385 473 414 344 421 245 c 1
 169 245 l 1
298 297 m 2
 295 383 292 442 234 442 c 0
 185 442 167 402 164 282 c 1
 298 282 l 1
 298 297 l 2
EndSplineSet
EndChar

StartChar: eacute
Encoding: 233 233 166
Width: 444
Flags: HMW
LayerCount: 2
Fore
SplineSet
159 527 m 1
 296 684 l 2
 313 703 330 712 349 712 c 0
 378 712 397 694 397 668 c 0
 397 645 389 635 357 615 c 2
 215 527 l 1
 159 527 l 1
169 245 m 1
 173 171 187 58 288 58 c 0
 331 58 362 76 402 125 c 1
 426 111 l 1
 361 18 312 -14 231 -14 c 0
 107 -14 25 82 25 228 c 0
 25 374 109 473 234 473 c 0
 385 473 414 344 421 245 c 1
 169 245 l 1
298 297 m 2
 295 383 292 442 234 442 c 0
 185 442 167 402 164 282 c 1
 298 282 l 1
 298 297 l 2
EndSplineSet
EndChar

StartChar: ecircumflex
Encoding: 234 234 167
Width: 444
Flags: HMW
LayerCount: 2
Fore
SplineSet
348 504 m 1
 236 602 l 1
 124 504 l 1
 68 504 l 1
 190 680 l 1
 282 680 l 1
 405 504 l 1
 348 504 l 1
169 245 m 1
 173 171 187 58 288 58 c 0
 331 58 362 76 402 125 c 1
 426 111 l 1
 361 18 312 -14 231 -14 c 0
 107 -14 25 82 25 228 c 0
 25 374 109 473 234 473 c 0
 385 473 414 344 421 245 c 1
 169 245 l 1
298 297 m 2
 295 383 292 442 234 442 c 0
 185 442 167 402 164 282 c 1
 298 282 l 1
 298 297 l 2
EndSplineSet
EndChar

StartChar: edieresis
Encoding: 235 235 168
Width: 444
Flags: HMW
LayerCount: 2
Fore
SplineSet
124 666 m 0
 159 666 189 636 189 600 c 0
 189 565 160 537 124 537 c 0
 89 537 60 567 60 602 c 0
 60 636 90 666 124 666 c 0
333 666 m 0
 369 666 399 636 399 600 c 0
 399 565 370 537 333 537 c 0
 298 537 270 566 270 603 c 0
 270 636 300 666 333 666 c 0
169 245 m 1
 173 171 187 58 288 58 c 0
 331 58 362 76 402 125 c 1
 426 111 l 1
 361 18 312 -14 231 -14 c 0
 107 -14 25 82 25 228 c 0
 25 374 109 473 234 473 c 0
 385 473 414 344 421 245 c 1
 169 245 l 1
298 297 m 2
 295 383 292 442 234 442 c 0
 185 442 167 402 164 282 c 1
 298 282 l 1
 298 297 l 2
EndSplineSet
EndChar

StartChar: igrave
Encoding: 236 236 169
Width: 278
Flags: HMW
LayerCount: 2
Fore
SplineSet
212 528 m 1
 156 528 l 1
 14 616 l 2
 -15 634 -26 648 -26 668 c 0
 -26 693 -5 713 21 713 c 0
 40 713 59 703 75 685 c 2
 212 528 l 1
208 461 m 1
 208 81 l 2
 208 43 220 29 255 24 c 1
 255 0 l 1
 16 0 l 1
 16 24 l 1
 62 35 69 43 69 84 c 2
 69 378 l 2
 69 419 60 428 16 437 c 1
 16 461 l 1
 208 461 l 1
EndSplineSet
EndChar

StartChar: iacute
Encoding: 237 237 170
Width: 278
Flags: HMW
LayerCount: 2
Fore
SplineSet
52 528 m 1
 189 685 l 2
 206 704 223 713 242 713 c 0
 271 713 290 695 290 669 c 0
 290 646 282 636 250 616 c 2
 108 528 l 1
 52 528 l 1
208 461 m 1
 208 81 l 2
 208 43 220 29 255 24 c 1
 255 0 l 1
 16 0 l 1
 16 24 l 1
 62 35 69 43 69 84 c 2
 69 378 l 2
 69 419 60 428 16 437 c 1
 16 461 l 1
 208 461 l 1
EndSplineSet
EndChar

StartChar: icircumflex
Encoding: 238 238 171
Width: 278
Flags: HMW
LayerCount: 2
Fore
SplineSet
244 528 m 1
 132 626 l 1
 20 528 l 1
 -36 528 l 1
 86 704 l 1
 178 704 l 1
 301 528 l 1
 244 528 l 1
208 461 m 1
 208 81 l 2
 208 43 220 29 255 24 c 1
 255 0 l 1
 16 0 l 1
 16 24 l 1
 62 35 69 43 69 84 c 2
 69 378 l 2
 69 419 60 428 16 437 c 1
 16 461 l 1
 208 461 l 1
EndSplineSet
EndChar

StartChar: idieresis
Encoding: 239 239 172
Width: 278
Flags: HMW
LayerCount: 2
Fore
SplineSet
28 666 m 0
 63 666 93 636 93 600 c 0
 93 565 64 537 28 537 c 0
 -7 537 -36 567 -36 602 c 0
 -36 636 -6 666 28 666 c 0
237 666 m 0
 273 666 303 636 303 600 c 0
 303 565 274 537 237 537 c 0
 202 537 174 566 174 603 c 0
 174 636 204 666 237 666 c 0
208 461 m 1
 208 81 l 2
 208 43 220 29 255 24 c 1
 255 0 l 1
 16 0 l 1
 16 24 l 1
 62 35 69 43 69 84 c 2
 69 378 l 2
 69 419 60 428 16 437 c 1
 16 461 l 1
 208 461 l 1
EndSplineSet
EndChar

StartChar: eth
Encoding: 240 240 173
Width: 500
Flags: MW
LayerCount: 2
Fore
SplineSet
335 614 m 1
 475 499 476 363 476 293 c 0
 476 99 393 -14 251 -14 c 0
 121 -14 25 89 25 229 c 0
 25 368 122 473 249 473 c 0
 291 473 314 462 340 432 c 1
 342 435 l 1
 323 492 297 533 256 574 c 1
 146 518 l 1
 98 549 l 1
 215 608 l 1
 172 639 132 657 82 666 c 1
 128 691 l 1
 189 685 238 671 288 645 c 1
 378 691 l 1
 427 661 l 1
 335 614 l 1
172 222 m 0
 172 81 186 17 252 17 c 0
 310 17 329 69 329 233 c 0
 329 387 309 442 252 442 c 0
 191 442 172 388 172 222 c 0
EndSplineSet
Validated: 3073
EndChar

StartChar: ntilde
Encoding: 241 241 174
Width: 556
Flags: HMW
LayerCount: 2
Fore
SplineSet
137 549 m 1
 95 549 l 1
 113 635 149 674 211 674 c 0
 232 674 256 668 284 655 c 2
 324 637 l 2
 348 626 352 625 363 625 c 0
 390 625 404 638 417 674 c 1
 460 674 l 1
 437 587 400 547 343 547 c 0
 323 547 298 553 279 561 c 2
 250 574 l 2
 207 593 199 596 186 596 c 0
 160 596 141 577 137 549 c 1
299 406 m 0
 257 406 213 359 213 348 c 2
 213 81 l 2
 213 44 225 29 262 24 c 1
 262 0 l 1
 21 0 l 1
 21 24 l 1
 66 33 74 42 74 84 c 2
 74 378 l 2
 74 420 65 430 21 437 c 1
 21 461 l 1
 212 461 l 1
 212 386 l 1
 249 445 295 473 355 473 c 0
 437 473 490 418 490 332 c 2
 490 81 l 2
 490 39 500 27 539 24 c 1
 539 0 l 1
 304 0 l 1
 304 24 l 1
 338 28 351 44 351 81 c 2
 351 323 l 2
 351 379 334 406 299 406 c 0
EndSplineSet
EndChar

StartChar: ograve
Encoding: 242 242 175
Width: 500
Flags: HMW
LayerCount: 2
Fore
SplineSet
329 528 m 1
 273 528 l 1
 131 616 l 2
 102 634 91 648 91 668 c 0
 91 693 112 713 138 713 c 0
 157 713 176 703 192 685 c 2
 329 528 l 1
251 473 m 0
 380 473 476 369 476 229 c 0
 476 90 380 -14 251 -14 c 0
 120 -14 25 89 25 232 c 0
 25 368 124 473 251 473 c 0
252 442 m 0
 190 442 172 390 172 214 c 0
 172 68 192 17 251 17 c 0
 309 17 329 69 329 223 c 0
 329 387 310 442 252 442 c 0
EndSplineSet
EndChar

StartChar: oacute
Encoding: 243 243 176
Width: 500
Flags: HMW
LayerCount: 2
Fore
SplineSet
171 528 m 1
 308 685 l 2
 325 704 342 713 361 713 c 0
 390 713 409 695 409 669 c 0
 409 646 401 636 369 616 c 2
 227 528 l 1
 171 528 l 1
251 473 m 0
 380 473 476 369 476 229 c 0
 476 90 380 -14 251 -14 c 0
 120 -14 25 89 25 232 c 0
 25 368 124 473 251 473 c 0
252 442 m 0
 190 442 172 390 172 214 c 0
 172 68 192 17 251 17 c 0
 309 17 329 69 329 223 c 0
 329 387 310 442 252 442 c 0
EndSplineSet
EndChar

StartChar: ocircumflex
Encoding: 244 244 177
Width: 500
Flags: HMW
LayerCount: 2
Fore
SplineSet
362 519 m 1
 250 617 l 1
 138 519 l 1
 82 519 l 1
 204 695 l 1
 296 695 l 1
 419 519 l 1
 362 519 l 1
251 473 m 0
 380 473 476 369 476 229 c 0
 476 90 380 -14 251 -14 c 0
 120 -14 25 89 25 232 c 0
 25 368 124 473 251 473 c 0
252 442 m 0
 190 442 172 390 172 214 c 0
 172 68 192 17 251 17 c 0
 309 17 329 69 329 223 c 0
 329 387 310 442 252 442 c 0
EndSplineSet
EndChar

StartChar: otilde
Encoding: 245 245 178
Width: 500
Flags: HMW
LayerCount: 2
Fore
SplineSet
110 519 m 1
 68 519 l 1
 86 605 122 644 184 644 c 0
 205 644 229 638 257 625 c 2
 297 607 l 2
 321 596 325 595 336 595 c 0
 363 595 377 608 390 644 c 1
 433 644 l 1
 410 557 373 517 316 517 c 0
 296 517 271 523 252 531 c 2
 223 544 l 2
 180 563 172 566 159 566 c 0
 133 566 114 547 110 519 c 1
251 473 m 0
 380 473 476 369 476 229 c 0
 476 90 380 -14 251 -14 c 0
 120 -14 25 89 25 232 c 0
 25 368 124 473 251 473 c 0
252 442 m 0
 190 442 172 390 172 214 c 0
 172 68 192 17 251 17 c 0
 309 17 329 69 329 223 c 0
 329 387 310 442 252 442 c 0
EndSplineSet
EndChar

StartChar: odieresis
Encoding: 246 246 179
Width: 500
Flags: HMW
LayerCount: 2
Fore
SplineSet
145 666 m 0
 180 666 210 636 210 600 c 0
 210 565 181 537 145 537 c 0
 110 537 81 567 81 602 c 0
 81 636 111 666 145 666 c 0
354 666 m 0
 390 666 420 636 420 600 c 0
 420 565 391 537 354 537 c 0
 319 537 291 566 291 603 c 0
 291 636 321 666 354 666 c 0
251 473 m 0
 380 473 476 369 476 229 c 0
 476 90 380 -14 251 -14 c 0
 120 -14 25 89 25 232 c 0
 25 368 124 473 251 473 c 0
252 442 m 0
 190 442 172 390 172 214 c 0
 172 68 192 17 251 17 c 0
 309 17 329 69 329 223 c 0
 329 387 310 442 252 442 c 0
EndSplineSet
EndChar

StartChar: divide
Encoding: 247 247 180
Width: 676
Flags: MW
LayerCount: 2
Fore
SplineSet
421 495 m 0
 421 453 386 420 345 420 c 0
 304 420 270 454 270 495 c 0
 270 536 304 570 345 570 c 0
 386 570 421 537 421 495 c 0
614 209 m 1
 62 209 l 1
 62 305 l 1
 614 305 l 1
 614 209 l 1
421 19 m 0
 421 -23 386 -56 345 -56 c 0
 304 -56 270 -22 270 19 c 0
 270 60 304 94 345 94 c 0
 386 94 421 61 421 19 c 0
EndSplineSet
Validated: 3073
EndChar

StartChar: oslash
Encoding: 248 248 181
Width: 500
Flags: MW
AnchorPoint: "above" 252 470 basechar 0
LayerCount: 2
Fore
SplineSet
461 549 m 1
 388 426 l 1
 449 371 476 311 476 229 c 0
 476 89 380 -14 251 -14 c 0
 211 -14 180 -6 144 13 c 1
 81 -92 l 1
 34 -92 l 1
 110 36 l 1
 50 92 25 150 25 229 c 0
 25 369 122 473 252 473 c 0
 290 473 320 466 355 448 c 1
 415 549 l 1
 461 549 l 1
173 140 m 1
 316 382 l 1
 303 425 285 442 252 442 c 0
 190 442 172 390 172 210 c 0
 172 182 172 160 173 140 c 1
327 324 m 1
 183 80 l 1
 196 35 216 17 251 17 c 0
 309 17 329 70 329 219 c 0
 329 247 328 277 327 324 c 1
EndSplineSet
Validated: 3073
EndChar

StartChar: ugrave
Encoding: 249 249 182
Width: 556
Flags: HMW
LayerCount: 2
Fore
SplineSet
358 528 m 1
 302 528 l 1
 160 616 l 2
 131 634 120 648 120 668 c 0
 120 693 141 713 167 713 c 0
 186 713 205 703 221 685 c 2
 358 528 l 1
343 -13 m 1
 343 52 l 1
 285 2 250 -14 198 -14 c 0
 115 -14 65 38 65 126 c 2
 65 378 l 2
 65 420 57 429 16 437 c 1
 16 461 l 1
 204 461 l 1
 204 122 l 2
 204 71 219 51 260 51 c 0
 288 51 309 62 342 95 c 1
 342 378 l 2
 342 421 330 433 280 437 c 1
 280 461 l 1
 481 461 l 1
 481 101 l 2
 481 58 493 45 537 43 c 1
 537 20 l 1
 475 13 l 2
 410 6 386 2 343 -13 c 1
EndSplineSet
EndChar

StartChar: uacute
Encoding: 250 250 183
Width: 556
Flags: HMW
LayerCount: 2
Fore
SplineSet
184 528 m 1
 321 685 l 2
 338 704 355 713 374 713 c 0
 403 713 422 695 422 669 c 0
 422 646 414 636 382 616 c 2
 240 528 l 1
 184 528 l 1
343 -13 m 1
 343 52 l 1
 285 2 250 -14 198 -14 c 0
 115 -14 65 38 65 126 c 2
 65 378 l 2
 65 420 57 429 16 437 c 1
 16 461 l 1
 204 461 l 1
 204 122 l 2
 204 71 219 51 260 51 c 0
 288 51 309 62 342 95 c 1
 342 378 l 2
 342 421 330 433 280 437 c 1
 280 461 l 1
 481 461 l 1
 481 101 l 2
 481 58 493 45 537 43 c 1
 537 20 l 1
 475 13 l 2
 410 6 386 2 343 -13 c 1
EndSplineSet
EndChar

StartChar: ucircumflex
Encoding: 251 251 184
Width: 556
Flags: HMW
LayerCount: 2
Fore
SplineSet
386 528 m 1
 274 626 l 1
 162 528 l 1
 106 528 l 1
 228 704 l 1
 320 704 l 1
 443 528 l 1
 386 528 l 1
343 -13 m 1
 343 52 l 1
 285 2 250 -14 198 -14 c 0
 115 -14 65 38 65 126 c 2
 65 378 l 2
 65 420 57 429 16 437 c 1
 16 461 l 1
 204 461 l 1
 204 122 l 2
 204 71 219 51 260 51 c 0
 288 51 309 62 342 95 c 1
 342 378 l 2
 342 421 330 433 280 437 c 1
 280 461 l 1
 481 461 l 1
 481 101 l 2
 481 58 493 45 537 43 c 1
 537 20 l 1
 475 13 l 2
 410 6 386 2 343 -13 c 1
EndSplineSet
EndChar

StartChar: udieresis
Encoding: 252 252 185
Width: 556
Flags: HMW
LayerCount: 2
Fore
SplineSet
159 666 m 0
 194 666 224 636 224 600 c 0
 224 565 195 537 159 537 c 0
 124 537 95 567 95 602 c 0
 95 636 125 666 159 666 c 0
368 666 m 0
 404 666 434 636 434 600 c 0
 434 565 405 537 368 537 c 0
 333 537 305 566 305 603 c 0
 305 636 335 666 368 666 c 0
343 -13 m 1
 343 52 l 1
 285 2 250 -14 198 -14 c 0
 115 -14 65 38 65 126 c 2
 65 378 l 2
 65 420 57 429 16 437 c 1
 16 461 l 1
 204 461 l 1
 204 122 l 2
 204 71 219 51 260 51 c 0
 288 51 309 62 342 95 c 1
 342 378 l 2
 342 421 330 433 280 437 c 1
 280 461 l 1
 481 461 l 1
 481 101 l 2
 481 58 493 45 537 43 c 1
 537 20 l 1
 475 13 l 2
 410 6 386 2 343 -13 c 1
EndSplineSet
EndChar

StartChar: yacute
Encoding: 253 253 186
Width: 500
Flags: HMW
LayerCount: 2
Fore
SplineSet
170 528 m 1
 307 685 l 2
 324 704 341 713 360 713 c 0
 389 713 408 695 408 669 c 0
 408 646 400 636 368 616 c 2
 226 528 l 1
 170 528 l 1
138 -111 m 0
 138 -119 135 -127 135 -131 c 0
 135 -140 143 -148 152 -148 c 0
 175 -148 201 -116 218 -66 c 2
 236 -13 l 1
 116 282 l 2
 99 324 54 422 51 422 c 1
 45 431 39 434 16 437 c 1
 16 461 l 1
 266 461 l 1
 266 437 l 1
 250 436 l 2
 225 434 213 425 213 411 c 0
 213 403 213 403 233 352 c 2
 305 167 l 1
 373 359 l 2
 382 384 384 393 384 404 c 0
 384 428 372 435 329 437 c 1
 329 461 l 1
 480 461 l 1
 480 437 l 1
 449 434 438 424 422 382 c 0
 273 -15 l 2
 235 -116 209 -205 113 -205 c 0
 56 -205 16 -172 16 -126 c 0
 16 -88 43 -62 80 -62 c 0
 114 -62 138 -82 138 -111 c 0
EndSplineSet
EndChar

StartChar: thorn
Encoding: 254 254 187
Width: 556
Flags: MW
LayerCount: 2
Fore
SplineSet
214 676 m 1
 214 391 l 1
 243 450 278 473 338 473 c 0
 449 473 524 378 524 239 c 0
 524 91 444 -13 332 -13 c 0
 288 -13 262 0 214 47 c 1
 214 -94 l 2
 214 -161 231 -181 292 -184 c 1
 292 -205 l 1
 19 -205 l 1
 19 -181 l 1
 67 -173 75 -164 75 -123 c 2
 75 594 l 2
 75 634 66 643 20 652 c 1
 20 676 l 1
 214 676 l 1
300 416 m 0
 252 416 214 360 214 346 c 2
 214 103 l 1
 233 62 259 42 293 42 c 0
 348 42 376 103 376 225 c 0
 376 356 352 416 300 416 c 0
EndSplineSet
Validated: 3073
EndChar

StartChar: ydieresis
Encoding: 255 255 188
Width: 500
Flags: HMW
LayerCount: 2
Fore
SplineSet
160 665 m 0
 195 665 225 635 225 599 c 0
 225 564 196 536 160 536 c 0
 125 536 96 566 96 601 c 0
 96 635 126 665 160 665 c 0
369 665 m 0
 405 665 435 635 435 599 c 0
 435 564 406 536 369 536 c 0
 334 536 306 565 306 602 c 0
 306 635 336 665 369 665 c 0
138 -111 m 0
 138 -119 135 -127 135 -131 c 0
 135 -140 143 -148 152 -148 c 0
 175 -148 201 -116 218 -66 c 2
 236 -13 l 1
 116 282 l 2
 99 324 54 422 51 422 c 1
 45 431 39 434 16 437 c 1
 16 461 l 1
 266 461 l 1
 266 437 l 1
 250 436 l 2
 225 434 213 425 213 411 c 0
 213 403 213 403 233 352 c 2
 305 167 l 1
 373 359 l 2
 382 384 384 393 384 404 c 0
 384 428 372 435 329 437 c 1
 329 461 l 1
 480 461 l 1
 480 437 l 1
 449 434 438 424 422 382 c 0
 273 -15 l 2
 235 -116 209 -205 113 -205 c 0
 56 -205 16 -172 16 -126 c 0
 16 -88 43 -62 80 -62 c 0
 114 -62 138 -82 138 -111 c 0
EndSplineSet
EndChar

StartChar: Amacron
Encoding: 256 256 189
Width: 722
Flags: HMW
LayerCount: 2
Fore
SplineSet
526 845 m 1
 526 773 l 1
 196 773 l 1
 196 845 l 1
 526 845 l 1
689 25 m 1
 689 0 l 1
 365 0 l 1
 365 25 l 1
 379 27 392 28 397 28 c 0
 432 30 445 40 445 61 c 0
 445 83 433 119 399 197 c 1
 174 197 l 1
 159 158 l 2
 138 104 130 79 130 66 c 0
 130 40 153 29 212 25 c 1
 212 0 l 1
 9 0 l 1
 9 25 l 1
 57 34 69 49 107 142 c 2
 329 690 l 1
 357 690 l 1
 580 164 l 2
 630 46 646 25 685 25 c 2
 689 25 l 1
189 236 m 1
 384 236 l 1
 283 479 l 1
 189 236 l 1
EndSplineSet
EndChar

StartChar: amacron
Encoding: 257 257 190
Width: 500
Flags: HMW
LayerCount: 2
Fore
SplineSet
415 635 m 1
 415 563 l 1
 85 563 l 1
 85 635 l 1
 415 635 l 1
147 404 m 0
 147 390 177 369 177 339 c 0
 177 305 149 281 109 281 c 0
 68 281 44 306 44 347 c 0
 44 422 120 473 233 473 c 0
 355 473 431 420 431 336 c 2
 431 75 l 2
 431 59 438 50 452 50 c 0
 457 50 460 51 463 54 c 2
 473 64 l 1
 488 43 l 1
 450 2 419 -14 376 -14 c 0
 327 -14 305 5 294 56 c 1
 239 6 193 -14 136 -14 c 0
 72 -14 25 31 25 92 c 0
 25 205 178 245 294 280 c 1
 294 353 l 2
 294 414 268 441 210 441 c 0
 175 441 147 425 147 404 c 0
293 100 m 1
 293 245 l 1
 213 224 171 182 171 124 c 0
 171 84 192 57 222 57 c 0
 246 57 266 69 293 100 c 1
EndSplineSet
EndChar

StartChar: Abreve
Encoding: 258 258 191
Width: 722
Flags: HMW
LayerCount: 2
Fore
SplineSet
496 900 m 1
 488 832 467 737 344 737 c 0
 216 737 197 835 193 900 c 1
 237 900 l 1
 248 839 280 813 344 813 c 0
 406 813 435 837 452 900 c 1
 496 900 l 1
689 25 m 1
 689 0 l 1
 365 0 l 1
 365 25 l 1
 379 27 392 28 397 28 c 0
 432 30 445 40 445 61 c 0
 445 83 433 119 399 197 c 1
 174 197 l 1
 159 158 l 2
 138 104 130 79 130 66 c 0
 130 40 153 29 212 25 c 1
 212 0 l 1
 9 0 l 1
 9 25 l 1
 57 34 69 49 107 142 c 2
 329 690 l 1
 357 690 l 1
 580 164 l 2
 630 46 646 25 685 25 c 2
 689 25 l 1
189 236 m 1
 384 236 l 1
 283 479 l 1
 189 236 l 1
EndSplineSet
EndChar

StartChar: abreve
Encoding: 259 259 192
Width: 500
Flags: HMW
LayerCount: 2
Fore
SplineSet
402 691 m 1
 394 623 373 528 250 528 c 0
 122 528 103 626 99 691 c 1
 143 691 l 1
 154 630 186 604 250 604 c 0
 312 604 341 628 358 691 c 1
 402 691 l 1
147 404 m 0
 147 390 177 369 177 339 c 0
 177 305 149 281 109 281 c 0
 68 281 44 306 44 347 c 0
 44 422 120 473 233 473 c 0
 355 473 431 420 431 336 c 2
 431 75 l 2
 431 59 438 50 452 50 c 0
 457 50 460 51 463 54 c 2
 473 64 l 1
 488 43 l 1
 450 2 419 -14 376 -14 c 0
 327 -14 305 5 294 56 c 1
 239 6 193 -14 136 -14 c 0
 72 -14 25 31 25 92 c 0
 25 205 178 245 294 280 c 1
 294 353 l 2
 294 414 268 441 210 441 c 0
 175 441 147 425 147 404 c 0
293 100 m 1
 293 245 l 1
 213 224 171 182 171 124 c 0
 171 84 192 57 222 57 c 0
 246 57 266 69 293 100 c 1
EndSplineSet
EndChar

StartChar: Aogonek
Encoding: 260 260 193
Width: 722
Flags: MW
LayerCount: 2
Fore
SplineSet
735 -135.767 m 0
 763 -135.767 783 -120.767 795 -115.767 c 1
 817 -129.767 l 1
 792 -175.767 744 -204.767 694 -204.767 c 0
 633 -204.767 588 -170.767 588 -123.767 c 0
 588 -71.8822 632.8 -34.9311 655.846 -9.01083e-08 c 1
 365 0 l 1
 365 25 l 1
 379 27 392 28 397 28 c 0
 432 30 445 40 445 61 c 0
 445 83 433 119 399 197 c 1
 174 197 l 1
 159 158 l 2
 138.201 103.922 130 79 130 66 c 0
 130 40 153 29 212 25 c 1
 212 0 l 1
 9 0 l 1
 9 25 l 1
 57 34 69 49 107 142 c 2
 329 690 l 1
 357 690 l 1
 580 164 l 2
 630.023 46.0096 646 25 685 25 c 2
 689 25 l 1
 689 12.2334 l 1
 689 0 l 1
 686.132 4.68585e-08 l 1
 681.177 -19.1969 672 -52.2118 672 -71.7666 c 0
 672 -112.767 694 -135.767 735 -135.767 c 0
189 236 m 1
 384 236 l 1
 283 479 l 1
 189 236 l 1
EndSplineSet
Validated: 3073
EndChar

StartChar: aogonek
Encoding: 261 261 194
Width: 500
Flags: MW
LayerCount: 2
Fore
SplineSet
147 404 m 0
 147 390 177 369 177 339 c 0
 177 305 149 281 109 281 c 0
 68 281 44 306 44 347 c 0
 44 422 120 473 233 473 c 0
 355 473 431 420 431 336 c 2
 431 75 l 2
 431 59 438 50 452 50 c 0
 457 50 460 51 463 54 c 2
 473 64 l 1
 488 43 l 1
 415 -36 354 -1 354 -60 c 0
 354 -84 383 -104 419 -104 c 0
 446 -104 466 -89 478 -84 c 1
 500 -98 l 1
 475 -144 427 -173 377 -173 c 0
 316 -173 271 -139 271 -92 c 0
 271 -64 281 -43 317 5 c 1
 305 17 300 29 294 56 c 1
 239 6 193 -14 136 -14 c 0
 72 -14 25 31 25 92 c 0
 25 205 178 245 294 280 c 1
 294 353 l 2
 294 414 268 441 210 441 c 0
 175 441 147 425 147 404 c 0
293 100 m 1
 293 245 l 1
 213 224 171 182 171 124 c 0
 171 84 192 57 222 57 c 0
 246 57 266 69 293 100 c 1
EndSplineSet
Validated: 3073
EndChar

StartChar: Cacute
Encoding: 262 262 195
Width: 722
Flags: HMW
LayerCount: 2
Fore
SplineSet
321 715 m 1
 458 872 l 2
 475 891 492 900 511 900 c 0
 540 900 559 882 559 856 c 0
 559 833 551 823 519 803 c 2
 377 715 l 1
 321 715 l 1
427 29 m 0
 523 29 592 84 657 152 c 1
 687 127 l 1
 647 83 568 -19 403 -19 c 0
 196 -19 49 127 49 333 c 0
 49 537 198 691 397 691 c 0
 506 691 558 642 598 642 c 0
 617 642 628 653 642 688 c 1
 669 688 l 1
 669 454 l 1
 644 454 l 1
 620 505 542 658 410 658 c 0
 290 658 226 548 226 341 c 0
 226 101 314 29 427 29 c 0
EndSplineSet
EndChar

StartChar: cacute
Encoding: 263 263 196
Width: 444
Flags: HMW
LayerCount: 2
Fore
SplineSet
183 528 m 1
 320 685 l 2
 337 704 354 713 373 713 c 0
 402 713 421 695 421 669 c 0
 421 646 413 636 381 616 c 2
 239 528 l 1
 183 528 l 1
412 109 m 1
 430 91 l 1
 372 17 316 -14 239 -14 c 0
 115 -14 25 85 25 223 c 0
 25 367 125 473 261 473 c 0
 349 473 416 425 416 363 c 0
 416 324 390 300 348 300 c 0
 311 300 293 323 292 372 c 0
 292 414 292 414 287 423 c 0
 281 434 266 442 250 442 c 0
 198 442 166 379 166 276 c 0
 166 140 221 53 308 53 c 0
 349 53 375 67 412 109 c 1
EndSplineSet
EndChar

StartChar: Ccircumflex
Encoding: 264 264 197
Width: 722
Flags: HMW
LayerCount: 2
Fore
SplineSet
509 724 m 1
 397 822 l 1
 285 724 l 1
 229 724 l 1
 351 900 l 1
 443 900 l 1
 566 724 l 1
 509 724 l 1
427 29 m 0
 523 29 592 84 657 152 c 1
 687 127 l 1
 647 83 568 -19 403 -19 c 0
 196 -19 49 127 49 333 c 0
 49 537 198 691 397 691 c 0
 506 691 558 642 598 642 c 0
 617 642 628 653 642 688 c 1
 669 688 l 1
 669 454 l 1
 644 454 l 1
 620 505 542 658 410 658 c 0
 290 658 226 548 226 341 c 0
 226 101 314 29 427 29 c 0
EndSplineSet
EndChar

StartChar: ccircumflex
Encoding: 265 265 198
Width: 444
Flags: HMW
LayerCount: 2
Fore
SplineSet
359 511 m 1
 247 609 l 1
 135 511 l 1
 79 511 l 1
 201 687 l 1
 293 687 l 1
 416 511 l 1
 359 511 l 1
412 109 m 1
 430 91 l 1
 372 17 316 -14 239 -14 c 0
 115 -14 25 85 25 223 c 0
 25 367 125 473 261 473 c 0
 349 473 416 425 416 363 c 0
 416 324 390 300 348 300 c 0
 311 300 293 323 292 372 c 0
 292 414 292 414 287 423 c 0
 281 434 266 442 250 442 c 0
 198 442 166 379 166 276 c 0
 166 140 221 53 308 53 c 0
 349 53 375 67 412 109 c 1
EndSplineSet
EndChar

StartChar: Cdotaccent
Encoding: 266 266 199
Width: 722
Flags: HMW
LayerCount: 2
Fore
SplineSet
406 855 m 0
 442 855 472 825 472 789 c 0
 472 754 443 726 406 726 c 0
 371 726 343 755 343 792 c 0
 343 825 373 855 406 855 c 0
427 29 m 0
 523 29 592 84 657 152 c 1
 687 127 l 1
 647 83 568 -19 403 -19 c 0
 196 -19 49 127 49 333 c 0
 49 537 198 691 397 691 c 0
 506 691 558 642 598 642 c 0
 617 642 628 653 642 688 c 1
 669 688 l 1
 669 454 l 1
 644 454 l 1
 620 505 542 658 410 658 c 0
 290 658 226 548 226 341 c 0
 226 101 314 29 427 29 c 0
EndSplineSet
EndChar

StartChar: cdotaccent
Encoding: 267 267 200
Width: 444
Flags: HMW
LayerCount: 2
Fore
SplineSet
226 640 m 0
 262 640 292 610 292 574 c 0
 292 539 263 511 226 511 c 0
 191 511 163 540 163 577 c 0
 163 610 193 640 226 640 c 0
412 109 m 1
 430 91 l 1
 372 17 316 -14 239 -14 c 0
 115 -14 25 85 25 223 c 0
 25 367 125 473 261 473 c 0
 349 473 416 425 416 363 c 0
 416 324 390 300 348 300 c 0
 311 300 293 323 292 372 c 0
 292 414 292 414 287 423 c 0
 281 434 266 442 250 442 c 0
 198 442 166 379 166 276 c 0
 166 140 221 53 308 53 c 0
 349 53 375 67 412 109 c 1
EndSplineSet
EndChar

StartChar: Ccaron
Encoding: 268 268 201
Width: 722
Flags: HMW
LayerCount: 2
Fore
SplineSet
570 899 m 1
 447 723 l 1
 355 723 l 1
 233 899 l 1
 289 899 l 1
 401 800 l 1
 513 899 l 1
 570 899 l 1
427 29 m 0
 523 29 592 84 657 152 c 1
 687 127 l 1
 647 83 568 -19 403 -19 c 0
 196 -19 49 127 49 333 c 0
 49 537 198 691 397 691 c 0
 506 691 558 642 598 642 c 0
 617 642 628 653 642 688 c 1
 669 688 l 1
 669 454 l 1
 644 454 l 1
 620 505 542 658 410 658 c 0
 290 658 226 548 226 341 c 0
 226 101 314 29 427 29 c 0
EndSplineSet
EndChar

StartChar: ccaron
Encoding: 269 269 202
Width: 444
Flags: HMW
LayerCount: 2
Fore
SplineSet
421 703 m 1
 298 527 l 1
 206 527 l 1
 84 703 l 1
 140 703 l 1
 252 604 l 1
 364 703 l 1
 421 703 l 1
412 109 m 1
 430 91 l 1
 372 17 316 -14 239 -14 c 0
 115 -14 25 85 25 223 c 0
 25 367 125 473 261 473 c 0
 349 473 416 425 416 363 c 0
 416 324 390 300 348 300 c 0
 311 300 293 323 292 372 c 0
 292 414 292 414 287 423 c 0
 281 434 266 442 250 442 c 0
 198 442 166 379 166 276 c 0
 166 140 221 53 308 53 c 0
 349 53 375 67 412 109 c 1
EndSplineSet
EndChar

StartChar: Dcaron
Encoding: 270 270 203
Width: 722
Flags: HMW
LayerCount: 2
Fore
SplineSet
531 900 m 1
 408 724 l 1
 316 724 l 1
 194 900 l 1
 250 900 l 1
 362 801 l 1
 474 900 l 1
 531 900 l 1
99 91 m 2
 99 584 l 2
 99 630 80 645 16 651 c 1
 16 676 l 1
 321 676 l 2
 552 676 692 551 692 345 c 0
 692 138 548 0 332 0 c 2
 16 0 l 1
 16 25 l 1
 74 27 99 47 99 91 c 2
518 330 m 0
 518 576 410 642 320 642 c 0
 281 642 261 630 261 607 c 2
 261 93 l 2
 261 48 274 35 319 35 c 0
 423 35 518 98 518 330 c 0
EndSplineSet
EndChar

StartChar: dcaron
Encoding: 271 271 204
Width: 616
Flags: HMW
LayerCount: 2
Fore
SplineSet
582 553 m 0
 539 553 513 577 513 614 c 0
 513 654 542 681 582 681 c 0
 633 681 672 637 672 582 c 0
 672 517 621 465 551 431 c 2
 542 427 l 1
 528 450 l 1
 535 455 l 2
 590 493 613 527 613 553 c 0
 613 555 612 557 609 557 c 0
 604 557 598 553 582 553 c 0
339 -13 m 1
 339 52 l 1
 292 2 259 -14 206 -14 c 0
 101 -14 25 85 25 221 c 0
 25 366 107 473 217 473 c 0
 263 473 293 457 336 411 c 1
 336 594 l 2
 336 640 327 647 260 652 c 1
 260 676 l 1
 475 676 l 1
 475 101 l 2
 475 59 488 46 534 43 c 1
 534 20 l 1
 472 12 l 2
 410 5 385 0 339 -13 c 1
251 42 m 0
 302 42 336 102 336 112 c 2
 336 355 l 1
 322 393 291 417 258 417 c 0
 200 417 173 358 173 229 c 0
 173 102 198 42 251 42 c 0
EndSplineSet
EndChar

StartChar: Dcroat
Encoding: 272 272 205
Width: 722
Flags: HMW
LayerCount: 2
Fore
SplineSet
6 326 m 1
 6 373 l 1
 97 373 l 1
 97 584 l 2
 97 630 78 645 14 651 c 1
 14 676 l 1
 319 676 l 2
 550 676 690 551 690 345 c 0
 690 138 546 0 330 0 c 2
 14 0 l 1
 14 25 l 1
 72 27 97 47 97 91 c 2
 97 326 l 1
 6 326 l 1
319 642 m 0
 265 642 259 626 259 595 c 2
 259 373 l 1
 373 373 l 1
 373 326 l 1
 259 326 l 1
 259 93 l 2
 259 48 272 35 317 35 c 0
 421 35 516 98 516 330 c 0
 516 576 409 642 319 642 c 0
EndSplineSet
EndChar

StartChar: dcroat
Encoding: 273 273 206
Width: 556
Flags: MW
LayerCount: 2
Fore
SplineSet
336 545 m 1
 244 545 l 1
 244 589 l 1
 336 589 l 1
 336 594 l 2
 336 640 327 647 260 652 c 1
 260 676 l 1
 475 676 l 1
 475 589 l 1
 534 589 l 1
 534 545 l 1
 475 545 l 1
 475 101 l 2
 475 59 488 46 534 43 c 1
 534 20 l 1
 472 12 l 2
 410 5 385 0 339 -13 c 1
 339 52 l 1
 292 2 259 -14 206 -14 c 0
 101 -14 25 85 25 221 c 0
 25 366 107 473 217 473 c 0
 263 473 293 457 336 411 c 1
 336 545 l 1
251 42 m 0
 302 42 336 102 336 112 c 2
 336 355 l 1
 322 393 291 417 258 417 c 0
 200 417 173 358 173 229 c 0
 173 102 198 42 251 42 c 0
EndSplineSet
Validated: 3073
EndChar

StartChar: Emacron
Encoding: 274 274 207
Width: 667
Flags: HMW
LayerCount: 2
Fore
SplineSet
496 801 m 1
 496 729 l 1
 166 729 l 1
 166 801 l 1
 496 801 l 1
349 31 m 0
 507 31 565 105 613 208 c 1
 641 208 l 1
 601 0 l 1
 16 0 l 1
 16 25 l 1
 90 33 104 44 104 96 c 2
 104 580 l 2
 104 631 85 647 16 651 c 1
 16 676 l 1
 593 676 l 1
 593 475 l 1
 568 475 l 1
 543 608 494 642 331 642 c 0
 279 642 266 633 266 595 c 2
 266 363 l 1
 267 363 269 363 270 363 c 0
 375 363 413 400 428 512 c 1
 454 512 l 1
 454 174 l 1
 428 174 l 1
 416 290 375 329 266 329 c 1
 266 87 l 2
 266 44 285 31 349 31 c 0
EndSplineSet
EndChar

StartChar: emacron
Encoding: 275 275 208
Width: 444
Flags: HMW
LayerCount: 2
Fore
SplineSet
387 614 m 1
 387 542 l 1
 57 542 l 1
 57 614 l 1
 387 614 l 1
169 245 m 1
 173 171 187 58 288 58 c 0
 331 58 362 76 402 125 c 1
 426 111 l 1
 361 18 312 -14 231 -14 c 0
 107 -14 25 82 25 228 c 0
 25 374 109 473 234 473 c 0
 385 473 414 344 421 245 c 1
 169 245 l 1
298 297 m 2
 295 383 292 442 234 442 c 0
 185 442 167 402 164 282 c 1
 298 282 l 1
 298 297 l 2
EndSplineSet
EndChar

StartChar: Ebreve
Encoding: 276 276 209
Width: 667
Flags: HMW
LayerCount: 2
Fore
SplineSet
480 889 m 1
 472 821 451 726 328 726 c 0
 200 726 181 824 177 889 c 1
 221 889 l 1
 232 828 264 802 328 802 c 0
 390 802 419 826 436 889 c 1
 480 889 l 1
349 31 m 0
 507 31 565 105 613 208 c 1
 641 208 l 1
 601 0 l 1
 16 0 l 1
 16 25 l 1
 90 33 104 44 104 96 c 2
 104 580 l 2
 104 631 85 647 16 651 c 1
 16 676 l 1
 593 676 l 1
 593 475 l 1
 568 475 l 1
 543 608 494 642 331 642 c 0
 279 642 266 633 266 595 c 2
 266 363 l 1
 267 363 269 363 270 363 c 0
 375 363 413 400 428 512 c 1
 454 512 l 1
 454 174 l 1
 428 174 l 1
 416 290 375 329 266 329 c 1
 266 87 l 2
 266 44 285 31 349 31 c 0
EndSplineSet
EndChar

StartChar: ebreve
Encoding: 277 277 210
Width: 444
Flags: HMW
LayerCount: 2
Fore
SplineSet
377 674 m 1
 369 606 348 511 225 511 c 0
 97 511 78 609 74 674 c 1
 118 674 l 1
 129 613 161 587 225 587 c 0
 287 587 316 611 333 674 c 1
 377 674 l 1
169 245 m 1
 173 171 187 58 288 58 c 0
 331 58 362 76 402 125 c 1
 426 111 l 1
 361 18 312 -14 231 -14 c 0
 107 -14 25 82 25 228 c 0
 25 374 109 473 234 473 c 0
 385 473 414 344 421 245 c 1
 169 245 l 1
298 297 m 2
 295 383 292 442 234 442 c 0
 185 442 167 402 164 282 c 1
 298 282 l 1
 298 297 l 2
EndSplineSet
EndChar

StartChar: Edotaccent
Encoding: 278 278 211
Width: 667
Flags: HMW
LayerCount: 2
Fore
SplineSet
332 876 m 0
 368 876 398 846 398 810 c 0
 398 775 369 747 332 747 c 0
 297 747 269 776 269 813 c 0
 269 846 299 876 332 876 c 0
349 31 m 0
 507 31 565 105 613 208 c 1
 641 208 l 1
 601 0 l 1
 16 0 l 1
 16 25 l 1
 90 33 104 44 104 96 c 2
 104 580 l 2
 104 631 85 647 16 651 c 1
 16 676 l 1
 593 676 l 1
 593 475 l 1
 568 475 l 1
 543 608 494 642 331 642 c 0
 279 642 266 633 266 595 c 2
 266 363 l 1
 267 363 269 363 270 363 c 0
 375 363 413 400 428 512 c 1
 454 512 l 1
 454 174 l 1
 428 174 l 1
 416 290 375 329 266 329 c 1
 266 87 l 2
 266 44 285 31 349 31 c 0
EndSplineSet
EndChar

StartChar: edotaccent
Encoding: 279 279 212
Width: 444
Flags: HMW
LayerCount: 2
Fore
SplineSet
221 666 m 0
 257 666 287 636 287 600 c 0
 287 565 258 537 221 537 c 0
 186 537 158 566 158 603 c 0
 158 636 188 666 221 666 c 0
169 245 m 1
 173 171 187 58 288 58 c 0
 331 58 362 76 402 125 c 1
 426 111 l 1
 361 18 312 -14 231 -14 c 0
 107 -14 25 82 25 228 c 0
 25 374 109 473 234 473 c 0
 385 473 414 344 421 245 c 1
 169 245 l 1
298 297 m 2
 295 383 292 442 234 442 c 0
 185 442 167 402 164 282 c 1
 298 282 l 1
 298 297 l 2
EndSplineSet
EndChar

StartChar: Eogonek
Encoding: 280 280 213
Width: 667
Flags: MW
LayerCount: 2
Fore
SplineSet
655 -104 m 0
 683 -104 703 -89 715 -84 c 1
 737 -98 l 1
 712 -144 664 -173 614 -173 c 0
 553 -173 508 -139 508 -92 c 0
 508 -64 517 -45 551 0 c 1
 16 0 l 1
 16 25 l 1
 90 33 104 44 104 96 c 2
 104 580 l 2
 104 631 85 647 16 651 c 1
 16 676 l 1
 593 676 l 1
 593 475 l 1
 568 475 l 1
 543 608 494 642 331 642 c 0
 279 642 266 633 266 595 c 2
 266 363 l 1
 267 363 269 363 270 363 c 0
 375 363 413 400 428 512 c 1
 454 512 l 1
 454 174 l 1
 428 174 l 1
 416 290 375 329 266 329 c 1
 266 87 l 2
 266 44 285 31 349 31 c 0
 507 31 565 105 613 208 c 1
 641 208 l 1
 607 33 l 1
 592 -37 592 -37 592 -47 c 0
 592 -81 617 -104 655 -104 c 0
EndSplineSet
Validated: 3073
EndChar

StartChar: eogonek
Encoding: 281 281 214
Width: 444
Flags: MW
LayerCount: 2
Fore
SplineSet
362 -104 m 0
 390 -104 410 -89 422 -84 c 1
 444 -98 l 1
 419 -144 371 -173 321 -173 c 0
 260 -173 215 -139 215 -92 c 0
 215 -67 222 -49 248 -13 c 1
 240 -14 233 -14 229 -14 c 0
 107 -14 25 83 25 228 c 0
 25 374 109 473 234 473 c 0
 385 473 414 344 421 245 c 1
 169 245 l 1
 173 171 187 58 288 58 c 0
 331 58 362 76 402 125 c 1
 426 111 l 1
 337 -20 299 18 299 -37 c 0
 299 -81 320 -104 362 -104 c 0
298 297 m 2
 295 383 292 442 234 442 c 0
 185 442 167 402 164 282 c 1
 298 282 l 1
 298 297 l 2
EndSplineSet
Validated: 3073
EndChar

StartChar: Ecaron
Encoding: 282 282 215
Width: 667
Flags: HMW
LayerCount: 2
Fore
SplineSet
502 900 m 1
 379 724 l 1
 287 724 l 1
 165 900 l 1
 221 900 l 1
 333 801 l 1
 445 900 l 1
 502 900 l 1
349 31 m 0
 507 31 565 105 613 208 c 1
 641 208 l 1
 601 0 l 1
 16 0 l 1
 16 25 l 1
 90 33 104 44 104 96 c 2
 104 580 l 2
 104 631 85 647 16 651 c 1
 16 676 l 1
 593 676 l 1
 593 475 l 1
 568 475 l 1
 543 608 494 642 331 642 c 0
 279 642 266 633 266 595 c 2
 266 363 l 1
 267 363 269 363 270 363 c 0
 375 363 413 400 428 512 c 1
 454 512 l 1
 454 174 l 1
 428 174 l 1
 416 290 375 329 266 329 c 1
 266 87 l 2
 266 44 285 31 349 31 c 0
EndSplineSet
EndChar

StartChar: ecaron
Encoding: 283 283 216
Width: 444
Flags: HMW
LayerCount: 2
Fore
SplineSet
391 703 m 1
 268 527 l 1
 176 527 l 1
 54 703 l 1
 110 703 l 1
 222 604 l 1
 334 703 l 1
 391 703 l 1
169 245 m 1
 173 171 187 58 288 58 c 0
 331 58 362 76 402 125 c 1
 426 111 l 1
 361 18 312 -14 231 -14 c 0
 107 -14 25 82 25 228 c 0
 25 374 109 473 234 473 c 0
 385 473 414 344 421 245 c 1
 169 245 l 1
298 297 m 2
 295 383 292 442 234 442 c 0
 185 442 167 402 164 282 c 1
 298 282 l 1
 298 297 l 2
EndSplineSet
EndChar

StartChar: Gcircumflex
Encoding: 284 284 217
Width: 778
Flags: HMW
LayerCount: 2
Fore
SplineSet
507 724 m 1
 395 822 l 1
 283 724 l 1
 227 724 l 1
 349 900 l 1
 441 900 l 1
 564 724 l 1
 507 724 l 1
385 691 m 0
 494 691 546 642 586 642 c 0
 605 642 616 653 630 688 c 1
 657 688 l 1
 657 454 l 1
 632 454 l 1
 597 530 574 564 531 602 c 0
 487 640 444 658 398 658 c 0
 277 658 214 547 214 338 c 0
 214 218 235 132 279 76 c 0
 312 33 354 14 417 14 c 0
 484 14 513 36 513 87 c 2
 513 192 l 2
 513 246 498 257 412 262 c 1
 412 287 l 1
 755 287 l 1
 755 262 l 1
 680 254 669 242 669 170 c 2
 669 43 l 1
 605 5 496 -19 393 -19 c 0
 183 -19 37 125 37 331 c 0
 37 537 186 691 385 691 c 0
EndSplineSet
EndChar

StartChar: gcircumflex
Encoding: 285 285 218
Width: 500
Flags: HMW
LayerCount: 2
Fore
SplineSet
367 511 m 1
 255 609 l 1
 143 511 l 1
 87 511 l 1
 209 687 l 1
 301 687 l 1
 424 511 l 1
 367 511 l 1
161 160 m 1
 73 197 37 248 37 312 c 0
 37 407 121 473 240 473 c 0
 280 473 308 467 352 451 c 1
 482 451 l 1
 482 398 l 1
 401 398 l 1
 429 370 441 340 441 300 c 0
 441 242 406 154 267 154 c 2
 222 155 l 2
 182 155 154 133 154 103 c 0
 154 75 174 68 254 68 c 2
 319 68 l 2
 421 68 483 22 483 -55 c 0
 483 -154 395 -206 229 -206 c 0
 103 -206 28 -172 28 -114 c 0
 28 -73 61 -48 124 -39 c 1
 60 -16 42 2 42 43 c 0
 42 95 82 133 161 160 c 1
324 -52 m 2
 151 -52 l 1
 123 -75 116 -86 116 -107 c 0
 116 -151 162 -174 250 -174 c 0
 349 -174 404 -148 404 -102 c 0
 404 -69 378 -52 324 -52 c 2
240 442 m 0
 193 442 174 405 174 311 c 0
 174 218 192 182 240 182 c 0
 287 182 306 218 306 311 c 0
 306 404 287 442 240 442 c 0
EndSplineSet
EndChar

StartChar: Gbreve
Encoding: 286 286 219
Width: 778
Flags: HMW
LayerCount: 2
Fore
SplineSet
540 900 m 1
 532 832 511 737 388 737 c 0
 260 737 241 835 237 900 c 1
 281 900 l 1
 292 839 324 813 388 813 c 0
 450 813 479 837 496 900 c 1
 540 900 l 1
385 691 m 0
 494 691 546 642 586 642 c 0
 605 642 616 653 630 688 c 1
 657 688 l 1
 657 454 l 1
 632 454 l 1
 597 530 574 564 531 602 c 0
 487 640 444 658 398 658 c 0
 277 658 214 547 214 338 c 0
 214 218 235 132 279 76 c 0
 312 33 354 14 417 14 c 0
 484 14 513 36 513 87 c 2
 513 192 l 2
 513 246 498 257 412 262 c 1
 412 287 l 1
 755 287 l 1
 755 262 l 1
 680 254 669 242 669 170 c 2
 669 43 l 1
 605 5 496 -19 393 -19 c 0
 183 -19 37 125 37 331 c 0
 37 537 186 691 385 691 c 0
EndSplineSet
EndChar

StartChar: gbreve
Encoding: 287 287 220
Width: 500
Flags: HMW
LayerCount: 2
Fore
SplineSet
402 691 m 1
 394 623 373 528 250 528 c 0
 122 528 103 626 99 691 c 1
 143 691 l 1
 154 630 186 604 250 604 c 0
 312 604 341 628 358 691 c 1
 402 691 l 1
161 160 m 1
 73 197 37 248 37 312 c 0
 37 407 121 473 240 473 c 0
 280 473 308 467 352 451 c 1
 482 451 l 1
 482 398 l 1
 401 398 l 1
 429 370 441 340 441 300 c 0
 441 242 406 154 267 154 c 2
 222 155 l 2
 182 155 154 133 154 103 c 0
 154 75 174 68 254 68 c 2
 319 68 l 2
 421 68 483 22 483 -55 c 0
 483 -154 395 -206 229 -206 c 0
 103 -206 28 -172 28 -114 c 0
 28 -73 61 -48 124 -39 c 1
 60 -16 42 2 42 43 c 0
 42 95 82 133 161 160 c 1
324 -52 m 2
 151 -52 l 1
 123 -75 116 -86 116 -107 c 0
 116 -151 162 -174 250 -174 c 0
 349 -174 404 -148 404 -102 c 0
 404 -69 378 -52 324 -52 c 2
240 442 m 0
 193 442 174 405 174 311 c 0
 174 218 192 182 240 182 c 0
 287 182 306 218 306 311 c 0
 306 404 287 442 240 442 c 0
EndSplineSet
EndChar

StartChar: Gdotaccent
Encoding: 288 288 221
Width: 778
Flags: HMW
LayerCount: 2
Fore
SplineSet
394 855 m 0
 430 855 460 825 460 789 c 0
 460 754 431 726 394 726 c 0
 359 726 331 755 331 792 c 0
 331 825 361 855 394 855 c 0
385 691 m 0
 494 691 546 642 586 642 c 0
 605 642 616 653 630 688 c 1
 657 688 l 1
 657 454 l 1
 632 454 l 1
 597 530 574 564 531 602 c 0
 487 640 444 658 398 658 c 0
 277 658 214 547 214 338 c 0
 214 218 235 132 279 76 c 0
 312 33 354 14 417 14 c 0
 484 14 513 36 513 87 c 2
 513 192 l 2
 513 246 498 257 412 262 c 1
 412 287 l 1
 755 287 l 1
 755 262 l 1
 680 254 669 242 669 170 c 2
 669 43 l 1
 605 5 496 -19 393 -19 c 0
 183 -19 37 125 37 331 c 0
 37 537 186 691 385 691 c 0
EndSplineSet
EndChar

StartChar: gdotaccent
Encoding: 289 289 222
Width: 500
Flags: HMW
LayerCount: 2
Fore
SplineSet
254 640 m 0
 290 640 320 610 320 574 c 0
 320 539 291 511 254 511 c 0
 219 511 191 540 191 577 c 0
 191 610 221 640 254 640 c 0
161 160 m 1
 73 197 37 248 37 312 c 0
 37 407 121 473 240 473 c 0
 280 473 308 467 352 451 c 1
 482 451 l 1
 482 398 l 1
 401 398 l 1
 429 370 441 340 441 300 c 0
 441 242 406 154 267 154 c 2
 222 155 l 2
 182 155 154 133 154 103 c 0
 154 75 174 68 254 68 c 2
 319 68 l 2
 421 68 483 22 483 -55 c 0
 483 -154 395 -206 229 -206 c 0
 103 -206 28 -172 28 -114 c 0
 28 -73 61 -48 124 -39 c 1
 60 -16 42 2 42 43 c 0
 42 95 82 133 161 160 c 1
324 -52 m 2
 151 -52 l 1
 123 -75 116 -86 116 -107 c 0
 116 -151 162 -174 250 -174 c 0
 349 -174 404 -148 404 -102 c 0
 404 -69 378 -52 324 -52 c 2
240 442 m 0
 193 442 174 405 174 311 c 0
 174 218 192 182 240 182 c 0
 287 182 306 218 306 311 c 0
 306 404 287 442 240 442 c 0
EndSplineSet
EndChar

StartChar: Gcommaaccent
Encoding: 290 290 223
Width: 778
Flags: HMW
LayerCount: 2
Fore
SplineSet
391 -174 m 0
 348 -174 322 -150 322 -113 c 0
 322 -73 351 -46 391 -46 c 0
 442 -46 481 -90 481 -145 c 0
 481 -210 430 -262 360 -296 c 2
 351 -300 l 1
 337 -277 l 1
 344 -272 l 2
 399 -234 422 -200 422 -174 c 0
 422 -172 421 -170 418 -170 c 0
 413 -170 407 -174 391 -174 c 0
385 691 m 0
 494 691 546 642 586 642 c 0
 605 642 616 653 630 688 c 1
 657 688 l 1
 657 454 l 1
 632 454 l 1
 597 530 574 564 531 602 c 0
 487 640 444 658 398 658 c 0
 277 658 214 547 214 338 c 0
 214 218 235 132 279 76 c 0
 312 33 354 14 417 14 c 0
 484 14 513 36 513 87 c 2
 513 192 l 2
 513 246 498 257 412 262 c 1
 412 287 l 1
 755 287 l 1
 755 262 l 1
 680 254 669 242 669 170 c 2
 669 43 l 1
 605 5 496 -19 393 -19 c 0
 183 -19 37 125 37 331 c 0
 37 537 186 691 385 691 c 0
EndSplineSet
EndChar

StartChar: gcommaaccent
Encoding: 291 291 224
Width: 500
Flags: HMW
LayerCount: 2
Fore
SplineSet
258 641 m 0
 301 641 327 617 327 580 c 0
 327 540 298 513 258 513 c 0
 207 513 168 557 168 612 c 0
 168 677 219 729 289 763 c 2
 298 767 l 1
 312 744 l 1
 305 739 l 2
 250 701 227 667 227 641 c 0
 227 639 228 637 231 637 c 0
 236 637 242 641 258 641 c 0
161 160 m 1
 73 197 37 248 37 312 c 0
 37 407 121 473 240 473 c 0
 280 473 308 467 352 451 c 1
 482 451 l 1
 482 398 l 1
 401 398 l 1
 429 370 441 340 441 300 c 0
 441 242 406 154 267 154 c 2
 222 155 l 2
 182 155 154 133 154 103 c 0
 154 75 174 68 254 68 c 2
 319 68 l 2
 421 68 483 22 483 -55 c 0
 483 -154 395 -206 229 -206 c 0
 103 -206 28 -172 28 -114 c 0
 28 -73 61 -48 124 -39 c 1
 60 -16 42 2 42 43 c 0
 42 95 82 133 161 160 c 1
324 -52 m 2
 151 -52 l 1
 123 -75 116 -86 116 -107 c 0
 116 -151 162 -174 250 -174 c 0
 349 -174 404 -148 404 -102 c 0
 404 -69 378 -52 324 -52 c 2
240 442 m 0
 193 442 174 405 174 311 c 0
 174 218 192 182 240 182 c 0
 287 182 306 218 306 311 c 0
 306 404 287 442 240 442 c 0
EndSplineSet
EndChar

StartChar: Hcircumflex
Encoding: 292 292 225
Width: 778
Flags: HMW
LayerCount: 2
Fore
SplineSet
496 724 m 1
 384 822 l 1
 272 724 l 1
 216 724 l 1
 338 900 l 1
 430 900 l 1
 553 724 l 1
 496 724 l 1
504 326 m 1
 263 326 l 1
 263 96 l 2
 263 47 280 33 353 25 c 1
 353 0 l 1
 16 0 l 1
 16 25 l 1
 86 34 101 47 101 96 c 2
 101 580 l 2
 101 630 83 645 16 651 c 1
 16 676 l 1
 353 676 l 1
 353 651 l 1
 283 646 263 630 263 580 c 2
 263 373 l 1
 504 373 l 1
 504 580 l 2
 504 630 484 646 414 651 c 1
 414 676 l 1
 754 676 l 1
 754 651 l 1
 686 646 666 630 666 580 c 2
 666 96 l 2
 666 47 682 34 754 25 c 1
 754 0 l 1
 414 0 l 1
 414 25 l 1
 487 33 504 47 504 96 c 2
 504 326 l 1
EndSplineSet
EndChar

StartChar: hcircumflex
Encoding: 293 293 226
Width: 556
Flags: HMW
LayerCount: 2
Fore
SplineSet
387 724 m 1
 275 822 l 1
 163 724 l 1
 107 724 l 1
 229 900 l 1
 321 900 l 1
 444 724 l 1
 387 724 l 1
294 406 m 0
 252 406 208 359 208 348 c 2
 208 81 l 2
 208 44 220 29 257 24 c 1
 257 0 l 1
 16 0 l 1
 16 24 l 1
 61 33 69 42 69 84 c 2
 69 594 l 2
 69 635 62 643 16 652 c 1
 16 676 l 1
 208 676 l 1
 208 395 l 1
 260 453 297 473 350 473 c 0
 432 473 485 418 485 332 c 2
 485 84 l 2
 485 42 498 27 534 24 c 1
 534 0 l 1
 299 0 l 1
 299 24 l 1
 333 28 346 44 346 81 c 2
 346 323 l 2
 346 379 329 406 294 406 c 0
EndSplineSet
EndChar

StartChar: Hbar
Encoding: 294 294 227
Width: 778
Flags: MW
LayerCount: 2
Fore
SplineSet
509 96 m 2
 509 326 l 1
 268 326 l 1
 268 96 l 2
 268 47 285 33 358 25 c 1
 358 0 l 1
 21 0 l 1
 21 25 l 1
 91 34 106 47 106 96 c 2
 106 456 l 1
 30 456 l 1
 30 528 l 1
 106 528 l 1
 106 580 l 2
 106 630 88 645 21 651 c 1
 21 676 l 1
 358 676 l 1
 358 651 l 1
 288 646 268 630 268 580 c 2
 268 528 l 1
 509 528 l 1
 509 580 l 2
 509 630 489 646 419 651 c 1
 419 676 l 1
 759 676 l 1
 759 651 l 1
 691 646 671 630 671 580 c 2
 671 528 l 1
 746 528 l 1
 746 456 l 1
 671 456 l 1
 671 96 l 2
 671 47 687 34 759 25 c 1
 759 0 l 1
 419 0 l 1
 419 25 l 1
 492 33 509 47 509 96 c 2
509 373 m 1
 509 456 l 1
 268 456 l 1
 268 373 l 1
 509 373 l 1
EndSplineSet
Validated: 3073
EndChar

StartChar: hbar
Encoding: 295 295 228
Width: 556
Flags: MW
LayerCount: 2
Fore
SplineSet
294 406 m 0
 252 406 208 359 208 348 c 2
 208 81 l 2
 208 44 220 29 257 24 c 1
 257 0 l 1
 16 0 l 1
 16 24 l 1
 61 33 69 42 69 84 c 2
 69 505 l 1
 13 505 l 1
 13 577 l 1
 69 577 l 1
 69 594 l 2
 69 635 62 643 16 652 c 1
 16 676 l 1
 208 676 l 1
 208 577 l 1
 343 577 l 1
 343 505 l 1
 208 505 l 1
 208 395 l 1
 260 453 297 473 350 473 c 0
 432 473 485 418 485 332 c 2
 485 84 l 2
 485 42 498 27 534 24 c 1
 534 0 l 1
 299 0 l 1
 299 24 l 1
 333 28 346 44 346 81 c 2
 346 323 l 2
 346 379 329 406 294 406 c 0
EndSplineSet
Validated: 3073
EndChar

StartChar: Itilde
Encoding: 296 296 229
Width: 389
Flags: HMW
LayerCount: 2
Fore
SplineSet
50 728 m 1
 8 728 l 1
 26 814 62 853 124 853 c 0
 145 853 169 847 197 834 c 2
 237 816 l 2
 261 805 265 804 276 804 c 0
 303 804 317 817 330 853 c 1
 373 853 l 1
 350 766 313 726 256 726 c 0
 236 726 211 732 192 740 c 2
 163 753 l 2
 120 772 112 775 99 775 c 0
 73 775 54 756 50 728 c 1
109 96 m 2
 109 580 l 2
 109 631 88 646 16 651 c 1
 16 676 l 1
 366 676 l 1
 366 651 l 1
 292 648 271 632 271 580 c 2
 271 96 l 2
 271 44 290 30 366 25 c 1
 366 0 l 1
 16 0 l 1
 16 25 l 1
 91 32 109 46 109 96 c 2
EndSplineSet
EndChar

StartChar: itilde
Encoding: 297 297 230
Width: 278
Flags: HMW
LayerCount: 2
Fore
SplineSet
-5 513 m 1
 -47 513 l 1
 -29 599 7 638 69 638 c 0
 90 638 114 632 142 619 c 2
 182 601 l 2
 206 590 210 589 221 589 c 0
 248 589 262 602 275 638 c 1
 318 638 l 1
 295 551 258 511 201 511 c 0
 181 511 156 517 137 525 c 2
 108 538 l 2
 65 557 57 560 44 560 c 0
 18 560 -1 541 -5 513 c 1
208 461 m 1
 208 81 l 2
 208 43 220 29 255 24 c 1
 255 0 l 1
 16 0 l 1
 16 24 l 1
 62 35 69 43 69 84 c 2
 69 378 l 2
 69 419 60 428 16 437 c 1
 16 461 l 1
 208 461 l 1
EndSplineSet
EndChar

StartChar: Imacron
Encoding: 298 298 231
Width: 389
Flags: HMW
LayerCount: 2
Fore
SplineSet
356 846 m 1
 356 774 l 1
 26 774 l 1
 26 846 l 1
 356 846 l 1
109 96 m 2
 109 580 l 2
 109 631 88 646 16 651 c 1
 16 676 l 1
 366 676 l 1
 366 651 l 1
 292 648 271 632 271 580 c 2
 271 96 l 2
 271 44 290 30 366 25 c 1
 366 0 l 1
 16 0 l 1
 16 25 l 1
 91 32 109 46 109 96 c 2
EndSplineSet
EndChar

StartChar: imacron
Encoding: 299 299 232
Width: 278
Flags: HMW
LayerCount: 2
Fore
SplineSet
302 616 m 1
 302 544 l 1
 -28 544 l 1
 -28 616 l 1
 302 616 l 1
208 461 m 1
 208 81 l 2
 208 43 220 29 255 24 c 1
 255 0 l 1
 16 0 l 1
 16 24 l 1
 62 35 69 43 69 84 c 2
 69 378 l 2
 69 419 60 428 16 437 c 1
 16 461 l 1
 208 461 l 1
EndSplineSet
EndChar

StartChar: Ibreve
Encoding: 300 300 233
Width: 389
Flags: HMW
LayerCount: 2
Fore
SplineSet
343 889 m 1
 335 821 314 726 191 726 c 0
 63 726 44 824 40 889 c 1
 84 889 l 1
 95 828 127 802 191 802 c 0
 253 802 282 826 299 889 c 1
 343 889 l 1
109 96 m 2
 109 580 l 2
 109 631 88 646 16 651 c 1
 16 676 l 1
 366 676 l 1
 366 651 l 1
 292 648 271 632 271 580 c 2
 271 96 l 2
 271 44 290 30 366 25 c 1
 366 0 l 1
 16 0 l 1
 16 25 l 1
 91 32 109 46 109 96 c 2
EndSplineSet
EndChar

StartChar: ibreve
Encoding: 301 301 234
Width: 278
Flags: HMW
LayerCount: 2
Fore
SplineSet
287 674 m 1
 279 606 258 511 135 511 c 0
 7 511 -12 609 -16 674 c 1
 28 674 l 1
 39 613 71 587 135 587 c 0
 197 587 226 611 243 674 c 1
 287 674 l 1
208 461 m 1
 208 81 l 2
 208 43 220 29 255 24 c 1
 255 0 l 1
 16 0 l 1
 16 24 l 1
 62 35 69 43 69 84 c 2
 69 378 l 2
 69 419 60 428 16 437 c 1
 16 461 l 1
 208 461 l 1
EndSplineSet
EndChar

StartChar: Iogonek
Encoding: 302 302 235
Width: 389
Flags: MW
LayerCount: 2
Fore
SplineSet
423 -104 m 0
 451 -104 471 -89 483 -84 c 1
 505 -98 l 1
 480 -144 432 -173 382 -173 c 0
 321 -173 276 -139 276 -92 c 0
 276 -64 285 -46 319 0 c 1
 20 0 l 1
 20 25 l 1
 95 32 113 46 113 96 c 2
 113 580 l 2
 113 631 92 646 20 651 c 1
 20 676 l 1
 370 676 l 1
 370 651 l 1
 296 648 275 632 275 580 c 2
 275 96 l 2
 275 44 294 30 370 25 c 1
 370 0 l 1
 363 -11 360 -23 360 -40 c 0
 360 -81 382 -104 423 -104 c 0
EndSplineSet
Validated: 3073
EndChar

StartChar: iogonek
Encoding: 303 303 236
Width: 278
Flags: MW
LayerCount: 2
Fore
SplineSet
306 -104 m 0
 334 -104 354 -89 366 -84 c 1
 388 -98 l 1
 363 -144 315 -173 265 -173 c 0
 204 -173 159 -139 159 -92 c 0
 159 -64 168 -46 202 0 c 1
 16 0 l 1
 16 24 l 1
 62 35 69 43 69 84 c 2
 69 378 l 2
 69 419 60 428 16 437 c 1
 16 461 l 1
 208 461 l 1
 208 81 l 2
 208 43 220 29 255 24 c 1
 255 0 l 1
 246 -10 243 -21 243 -39 c 0
 243 -81 265 -104 306 -104 c 0
138 691 m 0
 181 691 215 656 215 613 c 0
 215 569 181 536 137 536 c 0
 93 536 60 569 60 614 c 0
 60 656 95 691 138 691 c 0
EndSplineSet
Validated: 3073
EndChar

StartChar: Idotaccent
Encoding: 304 304 237
Width: 389
Flags: HMW
LayerCount: 2
Fore
SplineSet
191 876 m 0
 227 876 257 846 257 810 c 0
 257 775 228 747 191 747 c 0
 156 747 128 776 128 813 c 0
 128 846 158 876 191 876 c 0
109 96 m 2
 109 580 l 2
 109 631 88 646 16 651 c 1
 16 676 l 1
 366 676 l 1
 366 651 l 1
 292 648 271 632 271 580 c 2
 271 96 l 2
 271 44 290 30 366 25 c 1
 366 0 l 1
 16 0 l 1
 16 25 l 1
 91 32 109 46 109 96 c 2
EndSplineSet
EndChar

StartChar: dotlessi
Encoding: 305 305 238
Width: 278
Flags: MW
LayerCount: 2
Fore
SplineSet
208 461 m 1
 208 81 l 2
 208 43 220 29 255 24 c 1
 255 0 l 1
 16 0 l 1
 16 24 l 1
 62 35 69 43 69 84 c 2
 69 378 l 2
 69 419 60 428 16 437 c 1
 16 461 l 1
 208 461 l 1
EndSplineSet
Validated: 3073
EndChar

StartChar: IJ
Encoding: 306 306 239
Width: 882
Flags: HMW
LayerCount: 2
Fore
SplineSet
524 33 m 0
 524 -2 497 -8 497 -31 c 0
 497 -50 515 -63 542 -63 c 0
 587 -63 606 -38 606 24 c 2
 606 580 l 2
 606 634 586 648 505 651 c 1
 505 676 l 1
 857 676 l 1
 857 651 l 1
 782 646 768 631 768 559 c 2
 768 123 l 2
 768 -20 694 -96 554 -96 c 0
 457 -96 381 -45 381 36 c 0
 381 74 414 108 451 108 c 0
 490 108 524 73 524 33 c 0
109 96 m 2
 109 580 l 2
 109 631 88 646 16 651 c 1
 16 676 l 1
 366 676 l 1
 366 651 l 1
 292 648 271 632 271 580 c 2
 271 96 l 2
 271 44 290 30 366 25 c 1
 366 0 l 1
 16 0 l 1
 16 25 l 1
 91 32 109 46 109 96 c 2
EndSplineSet
Ligature2: "'liga' Standard Ligatures in Latin for Dutch" I J
EndChar

StartChar: ij
Encoding: 307 307 240
Width: 486
Flags: HMW
LayerCount: 2
Fore
SplineSet
264 -96 m 0
 264 -119 241 -141 241 -155 c 0
 241 -165 254 -172 273 -172 c 0
 306 -172 321 -149 321 -96 c 2
 321 378 l 2
 321 421 309 433 258 437 c 1
 258 461 l 1
 460 461 l 1
 460 2 l 2
 460 -108 422 -203 283 -203 c 0
 201 -203 143 -162 143 -103 c 0
 143 -67 168 -42 205 -42 c 0
 237 -42 264 -66 264 -96 c 0
385 691 m 0
 428 691 463 656 463 613 c 0
 463 570 428 536 385 536 c 0
 340 536 308 569 308 614 c 0
 308 656 342 691 385 691 c 0
208 461 m 1
 208 81 l 2
 208 43 220 29 255 24 c 1
 255 0 l 1
 16 0 l 1
 16 24 l 1
 62 35 69 43 69 84 c 2
 69 378 l 2
 69 419 60 428 16 437 c 1
 16 461 l 1
 208 461 l 1
138 691 m 0
 181 691 215 656 215 613 c 0
 215 569 181 536 137 536 c 0
 93 536 60 569 60 614 c 0
 60 656 95 691 138 691 c 0
EndSplineSet
LCarets2: 1 0 
Ligature2: "'liga' Standard Ligatures in Latin for Dutch" i j
EndChar

StartChar: Jcircumflex
Encoding: 308 308 241
Width: 500
Flags: HMW
LayerCount: 2
Fore
SplineSet
421 724 m 1
 309 822 l 1
 197 724 l 1
 141 724 l 1
 263 900 l 1
 355 900 l 1
 478 724 l 1
 421 724 l 1
146 33 m 0
 146 -2 119 -8 119 -31 c 0
 119 -50 137 -63 164 -63 c 0
 209 -63 228 -38 228 24 c 2
 228 580 l 2
 228 634 208 648 127 651 c 1
 127 676 l 1
 479 676 l 1
 479 651 l 1
 404 646 390 631 390 559 c 2
 390 123 l 2
 390 -20 316 -96 176 -96 c 0
 79 -96 3 -45 3 36 c 0
 3 74 36 108 73 108 c 0
 112 108 146 73 146 33 c 0
EndSplineSet
EndChar

StartChar: jcircumflex
Encoding: 309 309 242
Width: 338
Flags: HMW
LayerCount: 2
Fore
SplineSet
69 -96 m 0
 69 -119 46 -141 46 -155 c 0
 46 -165 59 -172 78 -172 c 0
 111 -172 126 -149 126 -96 c 2
 126 378 l 2
 126 421 114 433 63 437 c 1
 63 461 l 1
 265 461 l 1
 265 2 l 2
 265 -108 227 -203 88 -203 c 0
 6 -203 -52 -162 -52 -103 c 0
 -52 -67 -27 -42 10 -42 c 0
 42 -42 69 -66 69 -96 c 0
277 592 m 1
 165 690 l 1
 53 592 l 1
 -3 592 l 1
 119 768 l 1
 211 768 l 1
 335 592 l 1
 277 592 l 1
EndSplineSet
EndChar

StartChar: Kcommaaccent
Encoding: 310 310 243
Width: 778
Flags: HMW
LayerCount: 2
Fore
SplineSet
335 -168 m 0
 292 -168 266 -144 266 -107 c 0
 266 -67 295 -40 335 -40 c 0
 386 -40 425 -84 425 -139 c 0
 425 -204 374 -256 304 -290 c 2
 295 -294 l 1
 281 -271 l 1
 288 -266 l 2
 343 -228 366 -194 366 -168 c 0
 366 -166 365 -164 362 -164 c 0
 357 -164 351 -168 335 -168 c 0
518 618 m 0
 518 644 498 647 433 651 c 1
 433 676 l 1
 722 676 l 1
 722 651 l 1
 625 643 589 618 401 424 c 1
 706 46 l 1
 719 31 730 26 755 25 c 1
 755 0 l 1
 419 0 l 1
 419 25 l 1
 433 26 446 26 451 26 c 0
 484 28 498 33 498 46 c 0
 498 57 493 66 474 90 c 2
 292 317 l 1
 265 292 l 1
 265 96 l 2
 265 47 281 34 353 25 c 1
 353 0 l 1
 16 0 l 1
 16 25 l 1
 88 33 103 45 103 96 c 2
 103 580 l 2
 103 632 85 647 16 651 c 1
 16 676 l 1
 354 676 l 1
 354 651 l 1
 280 646 265 630 265 559 c 2
 265 345 l 1
 482 563 l 2
 513 594 518 602 518 618 c 0
EndSplineSet
EndChar

StartChar: kcommaaccent
Encoding: 311 311 244
Width: 556
Flags: HMW
LayerCount: 2
Fore
SplineSet
358 411 m 0
 358 433 328 433 299 438 c 1
 299 461 l 1
 513 461 l 1
 513 438 l 1
 450 430 424 412 324 307 c 1
 518 39 l 2
 527 27 532 24 543 24 c 1
 543 0 l 1
 309 0 l 1
 309 24 l 1
 337 25 351 31 351 43 c 0
 351 51 344 63 327 88 c 2
 232 222 l 1
 209 198 l 1
 209 84 l 2
 209 37 214 31 261 24 c 1
 261 0 l 1
 22 0 l 1
 22 24 l 1
 55 27 70 45 70 84 c 2
 70 594 l 2
 70 632 56 649 22 652 c 1
 22 676 l 1
 209 676 l 1
 209 245 l 1
 337 373 l 2
 348 384 358 402 358 411 c 0
250 -168 m 0
 207 -168 181 -144 181 -107 c 0
 181 -67 210 -40 250 -40 c 0
 301 -40 340 -84 340 -139 c 0
 340 -204 289 -256 219 -290 c 2
 210 -294 l 1
 196 -271 l 1
 203 -266 l 2
 258 -228 281 -194 281 -168 c 0
 281 -166 280 -164 277 -164 c 0
 272 -164 266 -168 250 -168 c 0
EndSplineSet
EndChar

StartChar: kgreenlandic
Encoding: 312 312 245
Width: 534
Flags: MW
LayerCount: 2
Fore
SplineSet
491 414 m 0
 491 385 471 366 444 366 c 0
 402 366 414 396 389 396 c 0
 352 396 351 271 297 243 c 1
 326 242 365 228 383 200 c 0
 485 39 l 2
 493 26 503 24 514 24 c 1
 514 0 l 1
 366 0 l 1
 264 168 l 1
 264 168 235 214 219 214 c 2
 209 214 l 1
 209 84 l 2
 209 37 214 31 261 24 c 1
 261 0 l 1
 22 0 l 1
 22 24 l 1
 55 27 70 45 70 84 c 2
 70 377 l 2
 70 416 55 434 22 437 c 1
 22 461 l 1
 261 461 l 1
 261 437 l 1
 214 430 209 424 209 377 c 2
 209 261 l 1
 230 262 l 2
 246 263 314 324 318 368 c 0
 320 392 344 470 421 470 c 0
 475 470 491 451 491 414 c 0
EndSplineSet
Validated: 3073
EndChar

StartChar: Lacute
Encoding: 313 313 246
Width: 667
Flags: HMW
LayerCount: 2
Fore
SplineSet
221 715 m 1
 358 872 l 2
 375 891 392 900 411 900 c 0
 440 900 459 882 459 856 c 0
 459 833 451 823 419 803 c 2
 277 715 l 1
 221 715 l 1
344 31 m 0
 540 31 580 166 606 227 c 1
 635 227 l 1
 594 0 l 1
 16 0 l 1
 16 25 l 1
 89 34 102 45 102 96 c 2
 102 580 l 2
 102 631 84 647 16 651 c 1
 16 676 l 1
 365 676 l 1
 365 651 l 1
 278 647 264 634 264 559 c 2
 264 87 l 2
 264 44 283 31 344 31 c 0
EndSplineSet
EndChar

StartChar: lacute
Encoding: 314 314 247
Width: 278
Flags: HMW
LayerCount: 2
Fore
SplineSet
58 715 m 1
 195 872 l 2
 212 891 229 900 248 900 c 0
 277 900 296 882 296 856 c 0
 296 833 288 823 256 803 c 2
 114 715 l 1
 58 715 l 1
206 676 m 1
 206 84 l 2
 206 44 222 25 255 24 c 1
 255 0 l 1
 16 0 l 1
 16 24 l 1
 50 27 67 47 67 84 c 2
 67 594 l 2
 67 631 51 649 16 652 c 1
 16 676 l 1
 206 676 l 1
EndSplineSet
EndChar

StartChar: Lcommaaccent
Encoding: 315 315 248
Width: 667
Flags: HMW
LayerCount: 2
Fore
SplineSet
335 -168 m 0
 292 -168 266 -144 266 -107 c 0
 266 -67 295 -40 335 -40 c 0
 386 -40 425 -84 425 -139 c 0
 425 -204 374 -256 304 -290 c 2
 295 -294 l 1
 281 -271 l 1
 288 -266 l 2
 343 -228 366 -194 366 -168 c 0
 366 -166 365 -164 362 -164 c 0
 357 -164 351 -168 335 -168 c 0
344 31 m 0
 540 31 580 166 606 227 c 1
 635 227 l 1
 594 0 l 1
 16 0 l 1
 16 25 l 1
 89 34 102 45 102 96 c 2
 102 580 l 2
 102 631 84 647 16 651 c 1
 16 676 l 1
 365 676 l 1
 365 651 l 1
 278 647 264 634 264 559 c 2
 264 87 l 2
 264 44 283 31 344 31 c 0
EndSplineSet
EndChar

StartChar: lcommaaccent
Encoding: 316 316 249
Width: 278
Flags: HMW
LayerCount: 2
Fore
SplineSet
206 676 m 1
 206 84 l 2
 206 44 222 25 255 24 c 1
 255 0 l 1
 16 0 l 1
 16 24 l 1
 50 27 67 47 67 84 c 2
 67 594 l 2
 67 631 51 649 16 652 c 1
 16 676 l 1
 206 676 l 1
121 -168 m 0
 78 -168 52 -144 52 -107 c 0
 52 -67 81 -40 121 -40 c 0
 172 -40 211 -84 211 -139 c 0
 211 -204 160 -256 90 -290 c 2
 81 -294 l 1
 67 -271 l 1
 74 -266 l 2
 129 -228 152 -194 152 -168 c 0
 152 -166 151 -164 148 -164 c 0
 143 -164 137 -168 121 -168 c 0
EndSplineSet
EndChar

StartChar: Lcaron
Encoding: 317 317 250
Width: 667
Flags: HMW
LayerCount: 2
Fore
SplineSet
344 31 m 0
 540 31 580 166 606 227 c 1
 635 227 l 1
 594 0 l 1
 16 0 l 1
 16 25 l 1
 89 34 102 45 102 96 c 2
 102 580 l 2
 102 631 84 647 16 651 c 1
 16 676 l 1
 365 676 l 1
 365 651 l 1
 278 647 264 634 264 559 c 2
 264 87 l 2
 264 44 283 31 344 31 c 0
526 558 m 0
 483 558 457 582 457 619 c 0
 457 659 486 686 526 686 c 0
 577 686 616 642 616 587 c 0
 616 522 565 470 495 436 c 2
 486 432 l 1
 472 455 l 1
 479 460 l 2
 534 498 557 532 557 558 c 0
 557 560 556 562 553 562 c 0
 548 562 542 558 526 558 c 0
EndSplineSet
EndChar

StartChar: lcaron
Encoding: 318 318 251
Width: 398
Flags: HMW
LayerCount: 2
Fore
SplineSet
206 676 m 1
 206 84 l 2
 206 44 222 25 255 24 c 1
 255 0 l 1
 16 0 l 1
 16 24 l 1
 50 27 67 47 67 84 c 2
 67 594 l 2
 67 631 51 649 16 652 c 1
 16 676 l 1
 206 676 l 1
308 558 m 0
 265 558 239 582 239 619 c 0
 239 659 268 686 308 686 c 0
 359 686 398 642 398 587 c 0
 398 522 347 470 277 436 c 2
 268 432 l 1
 254 455 l 1
 261 460 l 2
 316 498 339 532 339 558 c 0
 339 560 338 562 335 562 c 0
 330 562 324 558 308 558 c 0
EndSplineSet
EndChar

StartChar: Ldot
Encoding: 319 319 252
Width: 667
Flags: HMW
LayerCount: 2
Fore
SplineSet
429 318 m 0
 465 318 495 288 495 252 c 0
 495 217 466 189 429 189 c 0
 394 189 366 218 366 255 c 0
 366 288 396 318 429 318 c 0
344 31 m 0
 540 31 580 166 606 227 c 1
 635 227 l 1
 594 0 l 1
 16 0 l 1
 16 25 l 1
 89 34 102 45 102 96 c 2
 102 580 l 2
 102 631 84 647 16 651 c 1
 16 676 l 1
 365 676 l 1
 365 651 l 1
 278 647 264 634 264 559 c 2
 264 87 l 2
 264 44 283 31 344 31 c 0
EndSplineSet
EndChar

StartChar: ldot
Encoding: 320 320 253
Width: 528
Flags: HMW
LayerCount: 2
Fore
SplineSet
401 310 m 0
 437 310 467 280 467 244 c 0
 467 209 438 181 401 181 c 0
 366 181 338 210 338 247 c 0
 338 280 368 310 401 310 c 0
206 676 m 1
 206 84 l 2
 206 44 222 25 255 24 c 1
 255 0 l 1
 16 0 l 1
 16 24 l 1
 50 27 67 47 67 84 c 2
 67 594 l 2
 67 631 51 649 16 652 c 1
 16 676 l 1
 206 676 l 1
EndSplineSet
EndChar

StartChar: Lslash
Encoding: 321 321 254
Width: 667
Flags: MW
LayerCount: 2
Fore
SplineSet
347 31 m 0
 544 31 583 166 609 227 c 1
 638 227 l 1
 597 0 l 1
 19 0 l 1
 19 25 l 1
 92 34 105 45 105 96 c 2
 105 286 l 1
 24 237 l 1
 24 298 l 1
 105 347 l 1
 105 580 l 2
 105 631 87 647 19 651 c 1
 19 676 l 1
 368 676 l 1
 368 651 l 1
 281 647 267 634 267 559 c 2
 267 442 l 1
 390 518 l 1
 390 457 l 1
 267 381 l 1
 267 87 l 2
 267 44 286 31 347 31 c 0
EndSplineSet
Validated: 3073
EndChar

StartChar: lslash
Encoding: 322 322 255
Width: 278
Flags: MW
LayerCount: 2
Fore
SplineSet
206 400 m 1
 206 84 l 2
 206 44 222 25 255 24 c 1
 255 0 l 1
 16 0 l 1
 16 24 l 1
 50 27 67 47 67 84 c 2
 67 311 l 1
 -22 239 l 1
 -22 289 l 1
 67 361 l 1
 67 594 l 2
 67 631 51 649 16 652 c 1
 16 676 l 1
 206 676 l 1
 206 450 l 1
 303 530 l 1
 303 480 l 1
 206 400 l 1
EndSplineSet
Validated: 3073
EndChar

StartChar: Nacute
Encoding: 323 323 256
Width: 722
Flags: HMW
LayerCount: 2
Fore
SplineSet
280 715 m 1
 417 872 l 2
 434 891 451 900 470 900 c 0
 499 900 518 882 518 856 c 0
 518 833 510 823 478 803 c 2
 336 715 l 1
 280 715 l 1
230 676 m 1
 579 247 l 1
 579 552 l 2
 579 623 560 644 486 651 c 1
 486 676 l 1
 701 676 l 1
 701 651 l 1
 636 641 623 628 623 571 c 2
 623 -18 l 1
 595 -18 l 1
 148 526 l 1
 148 124 l 2
 148 53 166 34 243 25 c 1
 243 0 l 1
 16 0 l 1
 16 25 l 1
 89 34 104 48 104 105 c 2
 104 579 l 1
 56 636 39 651 19 651 c 1
 19 676 l 1
 230 676 l 1
EndSplineSet
EndChar

StartChar: nacute
Encoding: 324 324 257
Width: 556
Flags: HMW
LayerCount: 2
Fore
SplineSet
198 528 m 1
 335 685 l 2
 352 704 369 713 388 713 c 0
 417 713 436 695 436 669 c 0
 436 646 428 636 396 616 c 2
 254 528 l 1
 198 528 l 1
299 406 m 0
 257 406 213 359 213 348 c 2
 213 81 l 2
 213 44 225 29 262 24 c 1
 262 0 l 1
 21 0 l 1
 21 24 l 1
 66 33 74 42 74 84 c 2
 74 378 l 2
 74 420 65 430 21 437 c 1
 21 461 l 1
 212 461 l 1
 212 386 l 1
 249 445 295 473 355 473 c 0
 437 473 490 418 490 332 c 2
 490 81 l 2
 490 39 500 27 539 24 c 1
 539 0 l 1
 304 0 l 1
 304 24 l 1
 338 28 351 44 351 81 c 2
 351 323 l 2
 351 379 334 406 299 406 c 0
EndSplineSet
EndChar

StartChar: Ncommaaccent
Encoding: 325 325 258
Width: 722
Flags: HMW
LayerCount: 2
Fore
SplineSet
230 676 m 1
 579 247 l 1
 579 552 l 2
 579 623 560 644 486 651 c 1
 486 676 l 1
 701 676 l 1
 701 651 l 1
 636 641 623 628 623 571 c 2
 623 -18 l 1
 595 -18 l 1
 148 526 l 1
 148 124 l 2
 148 53 166 34 243 25 c 1
 243 0 l 1
 16 0 l 1
 16 25 l 1
 89 34 104 48 104 105 c 2
 104 579 l 1
 56 636 39 651 19 651 c 1
 19 676 l 1
 230 676 l 1
335 -168 m 0
 292 -168 266 -144 266 -107 c 0
 266 -67 295 -40 335 -40 c 0
 386 -40 425 -84 425 -139 c 0
 425 -204 374 -256 304 -290 c 2
 295 -294 l 1
 281 -271 l 1
 288 -266 l 2
 343 -228 366 -194 366 -168 c 0
 366 -166 365 -164 362 -164 c 0
 357 -164 351 -168 335 -168 c 0
EndSplineSet
EndChar

StartChar: ncommaaccent
Encoding: 326 326 259
Width: 556
Flags: HMW
LayerCount: 2
Fore
SplineSet
299 406 m 0
 257 406 213 359 213 348 c 2
 213 81 l 2
 213 44 225 29 262 24 c 1
 262 0 l 1
 21 0 l 1
 21 24 l 1
 66 33 74 42 74 84 c 2
 74 378 l 2
 74 420 65 430 21 437 c 1
 21 461 l 1
 212 461 l 1
 212 386 l 1
 249 445 295 473 355 473 c 0
 437 473 490 418 490 332 c 2
 490 81 l 2
 490 39 500 27 539 24 c 1
 539 0 l 1
 304 0 l 1
 304 24 l 1
 338 28 351 44 351 81 c 2
 351 323 l 2
 351 379 334 406 299 406 c 0
261 -168 m 0
 218 -168 192 -144 192 -107 c 0
 192 -67 221 -40 261 -40 c 0
 312 -40 351 -84 351 -139 c 0
 351 -204 300 -256 230 -290 c 2
 221 -294 l 1
 207 -271 l 1
 214 -266 l 2
 269 -228 292 -194 292 -168 c 0
 292 -166 291 -164 288 -164 c 0
 283 -164 277 -168 261 -168 c 0
EndSplineSet
EndChar

StartChar: Ncaron
Encoding: 327 327 260
Width: 722
Flags: HMW
LayerCount: 2
Fore
SplineSet
530 900 m 1
 407 724 l 1
 315 724 l 1
 193 900 l 1
 249 900 l 1
 361 801 l 1
 473 900 l 1
 530 900 l 1
230 676 m 1
 579 247 l 1
 579 552 l 2
 579 623 560 644 486 651 c 1
 486 676 l 1
 701 676 l 1
 701 651 l 1
 636 641 623 628 623 571 c 2
 623 -18 l 1
 595 -18 l 1
 148 526 l 1
 148 124 l 2
 148 53 166 34 243 25 c 1
 243 0 l 1
 16 0 l 1
 16 25 l 1
 89 34 104 48 104 105 c 2
 104 579 l 1
 56 636 39 651 19 651 c 1
 19 676 l 1
 230 676 l 1
EndSplineSet
EndChar

StartChar: ncaron
Encoding: 328 328 261
Width: 556
Flags: HMW
LayerCount: 2
Fore
SplineSet
448 704 m 1
 325 528 l 1
 233 528 l 1
 111 704 l 1
 167 704 l 1
 279 605 l 1
 391 704 l 1
 448 704 l 1
299 406 m 0
 257 406 213 359 213 348 c 2
 213 81 l 2
 213 44 225 29 262 24 c 1
 262 0 l 1
 21 0 l 1
 21 24 l 1
 66 33 74 42 74 84 c 2
 74 378 l 2
 74 420 65 430 21 437 c 1
 21 461 l 1
 212 461 l 1
 212 386 l 1
 249 445 295 473 355 473 c 0
 437 473 490 418 490 332 c 2
 490 81 l 2
 490 39 500 27 539 24 c 1
 539 0 l 1
 304 0 l 1
 304 24 l 1
 338 28 351 44 351 81 c 2
 351 323 l 2
 351 379 334 406 299 406 c 0
EndSplineSet
EndChar

StartChar: napostrophe
Encoding: 329 329 262
Width: 556
Flags: HMW
LayerCount: 2
Fore
SplineSet
90 627 m 0
 47 627 21 651 21 688 c 0
 21 728 50 755 90 755 c 0
 141 755 180 711 180 656 c 0
 180 591 129 539 59 505 c 2
 50 501 l 1
 36 524 l 1
 43 529 l 2
 98 567 121 601 121 627 c 0
 121 629 120 631 117 631 c 0
 112 631 106 627 90 627 c 0
299 406 m 0
 257 406 213 359 213 348 c 2
 213 81 l 2
 213 44 225 29 262 24 c 1
 262 0 l 1
 21 0 l 1
 21 24 l 1
 66 33 74 42 74 84 c 2
 74 378 l 2
 74 420 65 430 21 437 c 1
 21 461 l 1
 212 461 l 1
 212 386 l 1
 249 445 295 473 355 473 c 0
 437 473 490 418 490 332 c 2
 490 81 l 2
 490 39 500 27 539 24 c 1
 539 0 l 1
 304 0 l 1
 304 24 l 1
 338 28 351 44 351 81 c 2
 351 323 l 2
 351 379 334 406 299 406 c 0
EndSplineSet
EndChar

StartChar: Eng
Encoding: 330 330 263
Width: 722
Flags: MW
LayerCount: 2
Fore
SplineSet
509 -227 m 0
 412 -227 336 -176 336 -95 c 0
 336 -57 369 -23 406 -23 c 0
 445 -23 479 -58 479 -98 c 0
 479 -133 452 -139 452 -162 c 0
 452 -181 470 -194 497 -194 c 0
 542 -194 582 -169 582 -107 c 2
 582 0 l 1
 148 526 l 1
 148 124 l 2
 148 53 166 34 243 25 c 1
 243 0 l 1
 16 0 l 1
 16 25 l 1
 89 34 104 48 104 105 c 2
 104 579 l 1
 56 636 39 651 19 651 c 1
 19 676 l 1
 230 676 l 1
 579 247 l 1
 579 552 l 2
 579 623 560 644 486 651 c 1
 486 676 l 1
 701 676 l 1
 701 651 l 1
 636 641 623 628 623 571 c 2
 623 -8 l 2
 623 -137 618 -227 511 -227 c 0
 510 -227 510 -227 509 -227 c 0
EndSplineSet
Validated: 3073
EndChar

StartChar: eng
Encoding: 331 331 264
Width: 556
Flags: MW
LayerCount: 2
Fore
SplineSet
294 -96 m 0
 294 -119 271 -141 271 -155 c 0
 271 -165 284 -172 303 -172 c 0
 336 -172 351 -149 351 -96 c 2
 351 323 l 2
 351 379 334 406 299 406 c 0
 257 406 213 359 213 348 c 2
 213 81 l 2
 213 44 225 29 262 24 c 1
 262 0 l 1
 21 0 l 1
 21 24 l 1
 66 33 74 42 74 84 c 2
 74 378 l 2
 74 420 65 430 21 437 c 1
 21 461 l 1
 212 461 l 1
 212 386 l 1
 249 445 295 473 355 473 c 0
 437 473 490 418 490 332 c 2
 490 2 l 2
 490 -108 452 -203 313 -203 c 0
 231 -203 173 -162 173 -103 c 0
 173 -67 198 -42 235 -42 c 0
 267 -42 294 -66 294 -96 c 0
EndSplineSet
Validated: 3073
EndChar

StartChar: Omacron
Encoding: 332 332 265
Width: 778
Flags: HMW
LayerCount: 2
Fore
SplineSet
554 800 m 1
 554 728 l 1
 224 728 l 1
 224 800 l 1
 554 800 l 1
393 691 m 0
 594 691 743 540 743 336 c 0
 743 129 596 -19 389 -19 c 0
 182 -19 35 128 35 335 c 0
 35 543 184 691 393 691 c 0
392 658 m 0
 275 658 212 542 212 326 c 0
 212 124 274 14 389 14 c 0
 504 14 566 124 566 329 c 0
 566 537 502 658 392 658 c 0
EndSplineSet
EndChar

StartChar: omacron
Encoding: 333 333 266
Width: 500
Flags: HMW
LayerCount: 2
Fore
SplineSet
415 614 m 1
 415 542 l 1
 85 542 l 1
 85 614 l 1
 415 614 l 1
251 473 m 0
 380 473 476 369 476 229 c 0
 476 90 380 -14 251 -14 c 0
 120 -14 25 89 25 232 c 0
 25 368 124 473 251 473 c 0
252 442 m 0
 190 442 172 390 172 214 c 0
 172 68 192 17 251 17 c 0
 309 17 329 69 329 223 c 0
 329 387 310 442 252 442 c 0
EndSplineSet
EndChar

StartChar: Obreve
Encoding: 334 334 267
Width: 778
Flags: HMW
LayerCount: 2
Fore
SplineSet
540 889 m 1
 532 821 511 726 388 726 c 0
 260 726 241 824 237 889 c 1
 281 889 l 1
 292 828 324 802 388 802 c 0
 450 802 479 826 496 889 c 1
 540 889 l 1
393 691 m 0
 594 691 743 540 743 336 c 0
 743 129 596 -19 389 -19 c 0
 182 -19 35 128 35 335 c 0
 35 543 184 691 393 691 c 0
392 658 m 0
 275 658 212 542 212 326 c 0
 212 124 274 14 389 14 c 0
 504 14 566 124 566 329 c 0
 566 537 502 658 392 658 c 0
EndSplineSet
EndChar

StartChar: obreve
Encoding: 335 335 268
Width: 500
Flags: HMW
LayerCount: 2
Fore
SplineSet
402 674 m 1
 394 606 373 511 250 511 c 0
 122 511 103 609 99 674 c 1
 143 674 l 1
 154 613 186 587 250 587 c 0
 312 587 341 611 358 674 c 1
 402 674 l 1
251 473 m 0
 380 473 476 369 476 229 c 0
 476 90 380 -14 251 -14 c 0
 120 -14 25 89 25 232 c 0
 25 368 124 473 251 473 c 0
252 442 m 0
 190 442 172 390 172 214 c 0
 172 68 192 17 251 17 c 0
 309 17 329 69 329 223 c 0
 329 387 310 442 252 442 c 0
EndSplineSet
EndChar

StartChar: Ohungarumlaut
Encoding: 336 336 269
Width: 778
Flags: HMW
LayerCount: 2
Fore
SplineSet
261 715 m 1
 398 872 l 2
 415 891 432 900 451 900 c 0
 480 900 499 882 499 856 c 0
 499 833 491 823 459 803 c 2
 317 715 l 1
 261 715 l 1
461 715 m 1
 598 872 l 2
 615 891 632 900 651 900 c 0
 680 900 699 882 699 856 c 0
 699 833 691 823 659 803 c 2
 517 715 l 1
 461 715 l 1
393 691 m 0
 594 691 743 540 743 336 c 0
 743 129 596 -19 389 -19 c 0
 182 -19 35 128 35 335 c 0
 35 543 184 691 393 691 c 0
392 658 m 0
 275 658 212 542 212 326 c 0
 212 124 274 14 389 14 c 0
 504 14 566 124 566 329 c 0
 566 537 502 658 392 658 c 0
EndSplineSet
EndChar

StartChar: ohungarumlaut
Encoding: 337 337 270
Width: 500
Flags: HMW
LayerCount: 2
Fore
SplineSet
126 528 m 1
 263 685 l 2
 280 704 297 713 316 713 c 0
 345 713 364 695 364 669 c 0
 364 646 356 636 324 616 c 2
 182 528 l 1
 126 528 l 1
326 528 m 1
 463 685 l 2
 480 704 497 713 516 713 c 0
 545 713 564 695 564 669 c 0
 564 646 556 636 524 616 c 2
 382 528 l 1
 326 528 l 1
251 473 m 0
 380 473 476 369 476 229 c 0
 476 90 380 -14 251 -14 c 0
 120 -14 25 89 25 232 c 0
 25 368 124 473 251 473 c 0
252 442 m 0
 190 442 172 390 172 214 c 0
 172 68 192 17 251 17 c 0
 309 17 329 69 329 223 c 0
 329 387 310 442 252 442 c 0
EndSplineSet
EndChar

StartChar: OE
Encoding: 338 338 271
Width: 1000
Flags: MW
LayerCount: 2
Fore
SplineSet
700 35 m 0
 852 35 904 106 954 211 c 1
 981 211 l 1
 939 0 l 1
 509 0 l 2
 408 0 391 -5 358 -5 c 0
 89 -5 22 199 22 334 c 0
 22 542 161 684 364 684 c 0
 377 684 430 681 523 676 c 2
 940 676 l 1
 940 475 l 1
 914 475 l 1
 895 584 868 641 682 641 c 0
 640 641 627 635 627 615 c 2
 627 366 l 1
 734 369 752 387 778 514 c 1
 801 514 l 1
 801 176 l 1
 778 176 l 1
 763 295 733 327 627 333 c 1
 627 83 l 2
 627 44 641 35 700 35 c 0
366 27 m 0
 468 27 472 76 472 212 c 2
 472 503 l 2
 472 618 460 652 377 652 c 0
 255 652 192 540 192 320 c 0
 192 87 262 27 366 27 c 0
EndSplineSet
Validated: 3073
EndChar

StartChar: oe
Encoding: 339 339 272
Width: 722
Flags: MW
LayerCount: 2
Fore
SplineSet
676 125 m 1
 696 109 l 1
 631 16 582 -14 498 -14 c 0
 446 -14 413 0 383 34 c 1
 343 0 302 -14 245 -14 c 0
 113 -14 22 85 22 229 c 0
 22 371 116 473 248 473 c 0
 302 473 338 459 373 424 c 1
 422 462 452 473 502 473 c 0
 666 473 687 340 693 245 c 1
 444 245 l 1
 444 225 l 2
 444 222 444 220 444 217 c 0
 444 113 483 58 558 58 c 0
 604 58 631 73 676 125 c 1
444 282 m 1
 571 282 l 1
 570 307 569 328 569 338 c 0
 566 413 549 444 509 444 c 0
 467 444 444 407 444 336 c 2
 444 282 l 1
308 149 m 2
 308 311 l 2
 308 407 289 444 239 444 c 0
 184 444 167 398 167 248 c 0
 167 74 186 16 242 16 c 0
 288 16 308 57 308 149 c 2
EndSplineSet
Validated: 3073
EndChar

StartChar: Racute
Encoding: 340 340 273
Width: 722
Flags: HMW
LayerCount: 2
Fore
SplineSet
270 715 m 1
 407 872 l 2
 424 891 441 900 460 900 c 0
 489 900 508 882 508 856 c 0
 508 833 500 823 468 803 c 2
 326 715 l 1
 270 715 l 1
620 498 m 0
 620 389 540 354 463 329 c 1
 664 44 l 1
 674 31 687 25 705 25 c 1
 705 0 l 1
 500 0 l 1
 293 313 l 1
 266 313 l 1
 266 117 l 2
 266 46 276 35 354 25 c 1
 354 0 l 1
 16 0 l 1
 16 25 l 1
 94 34 104 44 104 117 c 2
 104 559 l 2
 104 631 90 646 16 651 c 1
 16 676 l 1
 338 676 l 2
 521 676 620 613 620 498 c 0
320 642 m 0
 289 642 266 635 266 600 c 2
 266 345 l 1
 404 347 449 372 449 494 c 0
 449 599 412 642 320 642 c 0
EndSplineSet
EndChar

StartChar: racute
Encoding: 341 341 274
Width: 444
Flags: HMW
LayerCount: 2
Fore
SplineSet
143 528 m 1
 280 685 l 2
 297 704 314 713 333 713 c 0
 362 713 381 695 381 669 c 0
 381 646 373 636 341 616 c 2
 199 528 l 1
 143 528 l 1
371 328 m 0
 318 328 304 387 283 387 c 0
 250 387 222 344 222 292 c 2
 222 103 l 2
 222 41 234 28 295 24 c 1
 295 0 l 1
 29 0 l 1
 29 24 l 1
 73 32 83 43 83 84 c 2
 83 378 l 2
 83 418 72 431 29 437 c 1
 29 461 l 1
 218 461 l 1
 218 379 l 1
 265 446 303 473 353 473 c 0
 400 473 434 440 434 395 c 0
 434 356 408 328 371 328 c 0
EndSplineSet
EndChar

StartChar: Rcommaaccent
Encoding: 342 342 275
Width: 722
Flags: HMW
LayerCount: 2
Fore
SplineSet
335 -168 m 0
 292 -168 266 -144 266 -107 c 0
 266 -67 295 -40 335 -40 c 0
 386 -40 425 -84 425 -139 c 0
 425 -204 374 -256 304 -290 c 2
 295 -294 l 1
 281 -271 l 1
 288 -266 l 2
 343 -228 366 -194 366 -168 c 0
 366 -166 365 -164 362 -164 c 0
 357 -164 351 -168 335 -168 c 0
620 498 m 0
 620 389 540 354 463 329 c 1
 664 44 l 1
 674 31 687 25 705 25 c 1
 705 0 l 1
 500 0 l 1
 293 313 l 1
 266 313 l 1
 266 117 l 2
 266 46 276 35 354 25 c 1
 354 0 l 1
 16 0 l 1
 16 25 l 1
 94 34 104 44 104 117 c 2
 104 559 l 2
 104 631 90 646 16 651 c 1
 16 676 l 1
 338 676 l 2
 521 676 620 613 620 498 c 0
320 642 m 0
 289 642 266 635 266 600 c 2
 266 345 l 1
 404 347 449 372 449 494 c 0
 449 599 412 642 320 642 c 0
EndSplineSet
EndChar

StartChar: rcommaaccent
Encoding: 343 343 276
Width: 444
Flags: HMW
LayerCount: 2
Fore
SplineSet
163 -168 m 0
 120 -168 94 -144 94 -107 c 0
 94 -67 123 -40 163 -40 c 0
 214 -40 253 -84 253 -139 c 0
 253 -204 202 -256 132 -290 c 2
 123 -294 l 1
 109 -271 l 1
 116 -266 l 2
 171 -228 194 -194 194 -168 c 0
 194 -166 193 -164 190 -164 c 0
 185 -164 179 -168 163 -168 c 0
371 328 m 0
 318 328 304 387 283 387 c 0
 250 387 222 344 222 292 c 2
 222 103 l 2
 222 41 234 28 295 24 c 1
 295 0 l 1
 29 0 l 1
 29 24 l 1
 73 32 83 43 83 84 c 2
 83 378 l 2
 83 418 72 431 29 437 c 1
 29 461 l 1
 218 461 l 1
 218 379 l 1
 265 446 303 473 353 473 c 0
 400 473 434 440 434 395 c 0
 434 356 408 328 371 328 c 0
EndSplineSet
EndChar

StartChar: Rcaron
Encoding: 344 344 277
Width: 722
Flags: HMW
LayerCount: 2
Fore
SplineSet
520 900 m 1
 397 724 l 1
 305 724 l 1
 183 900 l 1
 239 900 l 1
 351 801 l 1
 463 900 l 1
 520 900 l 1
620 498 m 0
 620 389 540 354 463 329 c 1
 664 44 l 1
 674 31 687 25 705 25 c 1
 705 0 l 1
 500 0 l 1
 293 313 l 1
 266 313 l 1
 266 117 l 2
 266 46 276 35 354 25 c 1
 354 0 l 1
 16 0 l 1
 16 25 l 1
 94 34 104 44 104 117 c 2
 104 559 l 2
 104 631 90 646 16 651 c 1
 16 676 l 1
 338 676 l 2
 521 676 620 613 620 498 c 0
320 642 m 0
 289 642 266 635 266 600 c 2
 266 345 l 1
 404 347 449 372 449 494 c 0
 449 599 412 642 320 642 c 0
EndSplineSet
EndChar

StartChar: rcaron
Encoding: 345 345 278
Width: 444
Flags: HMW
LayerCount: 2
Fore
SplineSet
391 704 m 1
 268 528 l 1
 176 528 l 1
 54 704 l 1
 110 704 l 1
 222 605 l 1
 334 704 l 1
 391 704 l 1
371 328 m 0
 318 328 304 387 283 387 c 0
 250 387 222 344 222 292 c 2
 222 103 l 2
 222 41 234 28 295 24 c 1
 295 0 l 1
 29 0 l 1
 29 24 l 1
 73 32 83 43 83 84 c 2
 83 378 l 2
 83 418 72 431 29 437 c 1
 29 461 l 1
 218 461 l 1
 218 379 l 1
 265 446 303 473 353 473 c 0
 400 473 434 440 434 395 c 0
 434 356 408 328 371 328 c 0
EndSplineSet
EndChar

StartChar: Sacute
Encoding: 346 346 279
Width: 556
Flags: HMW
LayerCount: 2
Fore
SplineSet
199 715 m 1
 336 872 l 2
 353 891 370 900 389 900 c 0
 418 900 437 882 437 856 c 0
 437 833 429 823 397 803 c 2
 255 715 l 1
 199 715 l 1
263 691 m 0
 346 691 394 658 422 658 c 0
 439 658 447 666 454 692 c 1
 484 692 l 1
 484 475 l 1
 456 475 l 1
 415 609 339 660 263 660 c 0
 195 660 153 622 153 560 c 0
 153 512 175 487 256 447 c 2
 403 374 l 2
 467 342 513 267 513 192 c 0
 513 66 413 -19 265 -19 c 0
 172 -19 128 15 94 15 c 0
 78 15 70 6 64 -19 c 1
 35 -19 l 1
 35 228 l 1
 64 228 l 1
 77 174 115 14 268 14 c 0
 345 14 394 59 394 128 c 0
 394 180 370 206 282 248 c 2
 215 280 l 2
 96 337 44 400 44 488 c 0
 44 614 127 691 263 691 c 0
EndSplineSet
EndChar

StartChar: sacute
Encoding: 347 347 280
Width: 389
Flags: HMW
LayerCount: 2
Fore
SplineSet
114 528 m 1
 251 685 l 2
 268 704 285 713 304 713 c 0
 333 713 352 695 352 669 c 0
 352 646 344 636 312 616 c 2
 170 528 l 1
 114 528 l 1
184 473 m 0
 234 473 271 451 294 451 c 0
 306 451 312 456 318 471 c 1
 340 471 l 1
 340 326 l 1
 315 326 l 1
 287 407 243 440 193 440 c 0
 155 440 127 415 127 382 c 0
 127 281 361 304 361 138 c 0
 361 48 298 -14 207 -14 c 0
 136 -14 100 15 76 15 c 0
 67 15 61 8 50 -13 c 1
 25 -13 l 1
 25 152 l 1
 53 152 l 1
 74 65 120 20 190 20 c 0
 235 20 265 46 265 85 c 0
 265 179 27 172 27 327 c 0
 27 411 93 473 184 473 c 0
EndSplineSet
EndChar

StartChar: Scircumflex
Encoding: 348 348 281
Width: 556
Flags: HMW
LayerCount: 2
Fore
SplineSet
385 724 m 1
 273 822 l 1
 161 724 l 1
 105 724 l 1
 227 900 l 1
 319 900 l 1
 442 724 l 1
 385 724 l 1
263 691 m 0
 346 691 394 658 422 658 c 0
 439 658 447 666 454 692 c 1
 484 692 l 1
 484 475 l 1
 456 475 l 1
 415 609 339 660 263 660 c 0
 195 660 153 622 153 560 c 0
 153 512 175 487 256 447 c 2
 403 374 l 2
 467 342 513 267 513 192 c 0
 513 66 413 -19 265 -19 c 0
 172 -19 128 15 94 15 c 0
 78 15 70 6 64 -19 c 1
 35 -19 l 1
 35 228 l 1
 64 228 l 1
 77 174 115 14 268 14 c 0
 345 14 394 59 394 128 c 0
 394 180 370 206 282 248 c 2
 215 280 l 2
 96 337 44 400 44 488 c 0
 44 614 127 691 263 691 c 0
EndSplineSet
EndChar

StartChar: scircumflex
Encoding: 349 349 282
Width: 389
Flags: HMW
LayerCount: 2
Fore
SplineSet
305 511 m 1
 193 609 l 1
 81 511 l 1
 25 511 l 1
 147 687 l 1
 239 687 l 1
 362 511 l 1
 305 511 l 1
184 473 m 0
 234 473 271 451 294 451 c 0
 306 451 312 456 318 471 c 1
 340 471 l 1
 340 326 l 1
 315 326 l 1
 287 407 243 440 193 440 c 0
 155 440 127 415 127 382 c 0
 127 281 361 304 361 138 c 0
 361 48 298 -14 207 -14 c 0
 136 -14 100 15 76 15 c 0
 67 15 61 8 50 -13 c 1
 25 -13 l 1
 25 152 l 1
 53 152 l 1
 74 65 120 20 190 20 c 0
 235 20 265 46 265 85 c 0
 265 179 27 172 27 327 c 0
 27 411 93 473 184 473 c 0
EndSplineSet
EndChar

StartChar: Scedilla
Encoding: 350 350 283
Width: 556
Flags: MW
LayerCount: 2
Fore
SplineSet
263 691 m 0
 346 691 394 658 422 658 c 0
 439 658 447 666 454 692 c 1
 484 692 l 1
 484 475 l 1
 456 475 l 1
 415 609 339 660 263 660 c 0
 195 660 153 622 153 560 c 0
 153 512 175 487 256 447 c 2
 403 374 l 2
 467 342 513 267 513 192 c 0
 513 78 430 -10 284 -18 c 1
 265 -64 l 1
 277 -60 285 -59 298 -59 c 0
 353 -59 386 -85 386 -129 c 0
 386 -184 336 -218 256 -218 c 0
 223 -218 196 -213 160 -200 c 1
 176 -163 l 1
 185 -167 213 -177 235 -177 c 0
 272 -177 293 -162 293 -136 c 0
 293 -114 276 -100 247 -100 c 0
 237 -100 230 -101 219 -104 c 1
 208 -96 l 1
 242 -18 l 1
 164 -14 123 15 94 15 c 0
 78 15 70 6 64 -19 c 1
 35 -19 l 1
 35 228 l 1
 64 228 l 1
 77 174 115 14 268 14 c 0
 345 14 394 59 394 128 c 0
 394 180 370 206 282 248 c 2
 215 280 l 2
 96 337 44 400 44 488 c 0
 44 614 127 691 263 691 c 0
EndSplineSet
Validated: 3073
EndChar

StartChar: scedilla
Encoding: 351 351 284
Width: 389
Flags: MW
LayerCount: 2
Fore
SplineSet
127 382 m 0
 127 281 361 304 361 138 c 0
 361 50 303 -9 213 -14 c 1
 191 -64 l 1
 203 -60 211 -59 224 -59 c 0
 279 -59 312 -85 312 -129 c 0
 312 -184 262 -218 182 -218 c 0
 149 -218 122 -213 86 -200 c 1
 102 -163 l 1
 122 -170 136 -177 162 -177 c 0
 198 -177 219 -162 219 -136 c 0
 219 -114 202 -100 173 -100 c 0
 164 -100 156 -101 145 -104 c 1
 134 -96 l 1
 172 -11 l 1
 85 7 96 15 76 15 c 0
 67 15 61 8 50 -13 c 1
 25 -13 l 1
 25 152 l 1
 53 152 l 1
 74 65 120 20 190 20 c 0
 235 20 265 46 265 85 c 0
 265 179 27 172 27 327 c 0
 27 411 93 473 184 473 c 0
 234 473 271 451 294 451 c 0
 306 451 312 456 318 471 c 1
 340 471 l 1
 340 326 l 1
 315 326 l 1
 287 407 243 440 193 440 c 0
 155 440 127 415 127 382 c 0
EndSplineSet
Validated: 3073
EndChar

StartChar: Scaron
Encoding: 352 352 285
Width: 556
Flags: HMW
LayerCount: 2
Fore
SplineSet
446 900 m 1
 323 724 l 1
 231 724 l 1
 109 900 l 1
 165 900 l 1
 277 801 l 1
 389 900 l 1
 446 900 l 1
263 691 m 0
 346 691 394 658 422 658 c 0
 439 658 447 666 454 692 c 1
 484 692 l 1
 484 475 l 1
 456 475 l 1
 415 609 339 660 263 660 c 0
 195 660 153 622 153 560 c 0
 153 512 175 487 256 447 c 2
 403 374 l 2
 467 342 513 267 513 192 c 0
 513 66 413 -19 265 -19 c 0
 172 -19 128 15 94 15 c 0
 78 15 70 6 64 -19 c 1
 35 -19 l 1
 35 228 l 1
 64 228 l 1
 77 174 115 14 268 14 c 0
 345 14 394 59 394 128 c 0
 394 180 370 206 282 248 c 2
 215 280 l 2
 96 337 44 400 44 488 c 0
 44 614 127 691 263 691 c 0
EndSplineSet
EndChar

StartChar: scaron
Encoding: 353 353 286
Width: 389
Flags: HMW
LayerCount: 2
Fore
SplineSet
364 703 m 1
 241 527 l 1
 149 527 l 1
 27 703 l 1
 83 703 l 1
 195 604 l 1
 307 703 l 1
 364 703 l 1
184 473 m 0
 234 473 271 451 294 451 c 0
 306 451 312 456 318 471 c 1
 340 471 l 1
 340 326 l 1
 315 326 l 1
 287 407 243 440 193 440 c 0
 155 440 127 415 127 382 c 0
 127 281 361 304 361 138 c 0
 361 48 298 -14 207 -14 c 0
 136 -14 100 15 76 15 c 0
 67 15 61 8 50 -13 c 1
 25 -13 l 1
 25 152 l 1
 53 152 l 1
 74 65 120 20 190 20 c 0
 235 20 265 46 265 85 c 0
 265 179 27 172 27 327 c 0
 27 411 93 473 184 473 c 0
EndSplineSet
EndChar

StartChar: uni0162
Encoding: 354 354 287
Width: 667
Flags: MW
LayerCount: 2
Fore
SplineSet
234 -163 m 1
 270 -175 280 -177 294 -177 c 0
 330 -177 352 -162 352 -136 c 0
 352 -114 334 -100 306 -100 c 0
 296 -100 288 -101 278 -104 c 1
 266 -96 l 1
 310 0 l 1
 155 0 l 1
 155 25 l 1
 241 32 252 43 252 117 c 2
 252 644 l 1
 128 640 76 594 59 475 c 1
 30 475 l 1
 33 676 l 1
 633 676 l 1
 635 475 l 1
 606 475 l 1
 589 594 537 640 414 644 c 1
 414 117 l 2
 414 41 425 31 512 25 c 1
 512 0 l 1
 352 0 l 1
 324 -64 l 1
 336 -60 344 -59 356 -59 c 0
 412 -59 444 -85 444 -129 c 0
 444 -184 394 -218 314 -218 c 0
 282 -218 254 -213 218 -200 c 1
 234 -163 l 1
EndSplineSet
Validated: 3073
EndChar

StartChar: uni0163
Encoding: 355 355 288
Width: 333
Flags: MW
LayerCount: 2
Fore
SplineSet
88 -175 m 1
 101 -179 125 -189 148 -189 c 0
 184 -189 205 -174 205 -148 c 0
 205 -126 188 -112 159 -112 c 0
 150 -112 142 -113 131 -116 c 1
 120 -108 l 1
 164 -11 l 1
 107 -4 72 35 72 93 c 2
 72 417 l 1
 20 417 l 1
 20 444 l 1
 85 499 125 544 186 630 c 1
 211 630 l 1
 211 461 l 1
 305 461 l 1
 305 417 l 1
 211 417 l 1
 211 116 l 2
 211 76 222 59 250 59 c 0
 271 59 287 73 307 111 c 1
 332 100 l 1
 296 27 260 -5 206 -11 c 1
 177 -76 l 1
 189 -72 197 -71 210 -71 c 0
 265 -71 298 -97 298 -141 c 0
 298 -196 248 -230 168 -230 c 0
 135 -230 108 -225 72 -212 c 1
 88 -175 l 1
EndSplineSet
Validated: 3073
EndChar

StartChar: Tcaron
Encoding: 356 356 289
Width: 667
Flags: HMW
LayerCount: 2
Fore
SplineSet
502 900 m 1
 379 724 l 1
 287 724 l 1
 165 900 l 1
 221 900 l 1
 333 801 l 1
 445 900 l 1
 502 900 l 1
253 117 m 2
 253 644 l 1
 129 640 77 594 60 475 c 1
 31 475 l 1
 34 676 l 1
 634 676 l 1
 636 475 l 1
 607 475 l 1
 590 594 538 640 415 644 c 1
 415 117 l 2
 415 41 426 31 513 25 c 1
 513 0 l 1
 156 0 l 1
 156 25 l 1
 242 32 253 43 253 117 c 2
EndSplineSet
EndChar

StartChar: tcaron
Encoding: 357 357 290
Width: 449
Flags: HMW
LayerCount: 2
Fore
SplineSet
358 583 m 0
 315 583 289 607 289 644 c 0
 289 684 318 711 358 711 c 0
 409 711 448 667 448 612 c 0
 448 547 397 495 327 461 c 2
 318 457 l 1
 304 480 l 1
 311 485 l 2
 366 523 389 557 389 583 c 0
 389 585 388 587 385 587 c 0
 380 587 374 583 358 583 c 0
305 461 m 1
 305 417 l 1
 211 417 l 1
 211 116 l 2
 211 76 222 59 250 59 c 0
 271 59 287 73 307 111 c 1
 332 100 l 1
 291 18 251 -12 184 -12 c 0
 115 -12 72 28 72 93 c 2
 72 417 l 1
 20 417 l 1
 20 444 l 1
 85 499 125 544 186 630 c 1
 211 630 l 1
 211 461 l 1
 305 461 l 1
EndSplineSet
EndChar

StartChar: Tbar
Encoding: 358 358 291
Width: 667
Flags: MW
LayerCount: 2
Fore
SplineSet
156 25 m 1
 158 25 l 2
 244 32 255 43 255 117 c 2
 255 326 l 1
 170 326 l 1
 170 398 l 1
 254 398 l 1
 254 644 l 1
 130 640 78 594 61 475 c 1
 32 475 l 1
 35 676 l 1
 635 676 l 1
 637 475 l 1
 608 475 l 1
 591 594 539 640 416 644 c 1
 416 398 l 1
 499 398 l 1
 499 326 l 1
 415 326 l 1
 415 117 l 2
 415 41 426 31 513 25 c 1
 513 0 l 1
 156 0 l 1
 156 25 l 1
EndSplineSet
Validated: 3073
EndChar

StartChar: tbar
Encoding: 359 359 292
Width: 333
Flags: MW
LayerCount: 2
Fore
SplineSet
211 461 m 1
 305 461 l 1
 305 417 l 1
 211 417 l 1
 211 305 l 1
 274 305 l 1
 274 233 l 1
 211 233 l 1
 211 116 l 2
 211 76 222 59 250 59 c 0
 271 59 287 73 307 111 c 1
 332 100 l 1
 291 18 251 -12 184 -12 c 0
 115 -12 72 28 72 93 c 2
 72 233 l 1
 13 233 l 1
 13 305 l 1
 72 305 l 1
 72 417 l 1
 20 417 l 1
 20 444 l 1
 85 499 125 544 186 630 c 1
 211 630 l 1
 211 461 l 1
EndSplineSet
Validated: 3073
EndChar

StartChar: Utilde
Encoding: 360 360 293
Width: 722
Flags: HMW
LayerCount: 2
Fore
SplineSet
218 728 m 1
 176 728 l 1
 194 814 230 853 292 853 c 0
 313 853 337 847 365 834 c 2
 405 816 l 2
 429 805 433 804 444 804 c 0
 471 804 485 817 498 853 c 1
 541 853 l 1
 518 766 481 726 424 726 c 0
 404 726 379 732 360 740 c 2
 331 753 l 2
 288 772 280 775 267 775 c 0
 241 775 222 756 218 728 c 1
354 651 m 1
 277 648 257 638 257 559 c 2
 257 225 l 2
 257 89 302 30 404 30 c 0
 523 30 579 99 579 247 c 2
 579 552 l 2
 579 625 559 645 481 651 c 1
 481 676 l 1
 701 676 l 1
 701 651 l 1
 637 641 623 625 623 566 c 2
 623 247 l 2
 623 95 558 -19 365 -19 c 0
 292 -19 228 -1 180 34 c 0
 119 78 98 127 98 225 c 2
 98 559 l 2
 98 631 86 644 16 651 c 1
 16 676 l 1
 354 676 l 1
 354 651 l 1
EndSplineSet
EndChar

StartChar: utilde
Encoding: 361 361 294
Width: 556
Flags: HMW
LayerCount: 2
Fore
SplineSet
136 513 m 1
 94 513 l 1
 112 599 148 638 210 638 c 0
 231 638 255 632 283 619 c 2
 323 601 l 2
 347 590 351 589 362 589 c 0
 389 589 403 602 416 638 c 1
 459 638 l 1
 436 551 399 511 342 511 c 0
 322 511 297 517 278 525 c 2
 249 538 l 2
 206 557 198 560 185 560 c 0
 159 560 140 541 136 513 c 1
343 -13 m 1
 343 52 l 1
 285 2 250 -14 198 -14 c 0
 115 -14 65 38 65 126 c 2
 65 378 l 2
 65 420 57 429 16 437 c 1
 16 461 l 1
 204 461 l 1
 204 122 l 2
 204 71 219 51 260 51 c 0
 288 51 309 62 342 95 c 1
 342 378 l 2
 342 421 330 433 280 437 c 1
 280 461 l 1
 481 461 l 1
 481 101 l 2
 481 58 493 45 537 43 c 1
 537 20 l 1
 475 13 l 2
 410 6 386 2 343 -13 c 1
EndSplineSet
EndChar

StartChar: Umacron
Encoding: 362 362 295
Width: 722
Flags: HMW
LayerCount: 2
Fore
SplineSet
524 800 m 1
 524 728 l 1
 194 728 l 1
 194 800 l 1
 524 800 l 1
354 651 m 1
 277 648 257 638 257 559 c 2
 257 225 l 2
 257 89 302 30 404 30 c 0
 523 30 579 99 579 247 c 2
 579 552 l 2
 579 625 559 645 481 651 c 1
 481 676 l 1
 701 676 l 1
 701 651 l 1
 637 641 623 625 623 566 c 2
 623 247 l 2
 623 95 558 -19 365 -19 c 0
 292 -19 228 -1 180 34 c 0
 119 78 98 127 98 225 c 2
 98 559 l 2
 98 631 86 644 16 651 c 1
 16 676 l 1
 354 676 l 1
 354 651 l 1
EndSplineSet
EndChar

StartChar: umacron
Encoding: 363 363 296
Width: 556
Flags: HMW
LayerCount: 2
Fore
SplineSet
442 612 m 1
 442 540 l 1
 112 540 l 1
 112 612 l 1
 442 612 l 1
343 -13 m 1
 343 52 l 1
 285 2 250 -14 198 -14 c 0
 115 -14 65 38 65 126 c 2
 65 378 l 2
 65 420 57 429 16 437 c 1
 16 461 l 1
 204 461 l 1
 204 122 l 2
 204 71 219 51 260 51 c 0
 288 51 309 62 342 95 c 1
 342 378 l 2
 342 421 330 433 280 437 c 1
 280 461 l 1
 481 461 l 1
 481 101 l 2
 481 58 493 45 537 43 c 1
 537 20 l 1
 475 13 l 2
 410 6 386 2 343 -13 c 1
EndSplineSet
EndChar

StartChar: Ubreve
Encoding: 364 364 297
Width: 722
Flags: HMW
LayerCount: 2
Fore
SplineSet
510 889 m 1
 502 821 481 726 358 726 c 0
 230 726 211 824 207 889 c 1
 251 889 l 1
 262 828 294 802 358 802 c 0
 420 802 449 826 466 889 c 1
 510 889 l 1
354 651 m 1
 277 648 257 638 257 559 c 2
 257 225 l 2
 257 89 302 30 404 30 c 0
 523 30 579 99 579 247 c 2
 579 552 l 2
 579 625 559 645 481 651 c 1
 481 676 l 1
 701 676 l 1
 701 651 l 1
 637 641 623 625 623 566 c 2
 623 247 l 2
 623 95 558 -19 365 -19 c 0
 292 -19 228 -1 180 34 c 0
 119 78 98 127 98 225 c 2
 98 559 l 2
 98 631 86 644 16 651 c 1
 16 676 l 1
 354 676 l 1
 354 651 l 1
EndSplineSet
EndChar

StartChar: ubreve
Encoding: 365 365 298
Width: 556
Flags: HMW
LayerCount: 2
Fore
SplineSet
428 674 m 1
 420 606 399 511 276 511 c 0
 148 511 129 609 125 674 c 1
 169 674 l 1
 180 613 212 587 276 587 c 0
 338 587 367 611 384 674 c 1
 428 674 l 1
343 -13 m 1
 343 52 l 1
 285 2 250 -14 198 -14 c 0
 115 -14 65 38 65 126 c 2
 65 378 l 2
 65 420 57 429 16 437 c 1
 16 461 l 1
 204 461 l 1
 204 122 l 2
 204 71 219 51 260 51 c 0
 288 51 309 62 342 95 c 1
 342 378 l 2
 342 421 330 433 280 437 c 1
 280 461 l 1
 481 461 l 1
 481 101 l 2
 481 58 493 45 537 43 c 1
 537 20 l 1
 475 13 l 2
 410 6 386 2 343 -13 c 1
EndSplineSet
EndChar

StartChar: Uring
Encoding: 366 366 299
Width: 722
Flags: HMW
LayerCount: 2
Fore
SplineSet
364 899 m 0
 419 899 464 853 464 798 c 0
 464 742 419 697 363 697 c 0
 307 697 262 743 262 800 c 0
 262 853 309 899 364 899 c 0
363 854 m 0
 333 854 308 827 308 798 c 0
 308 767 332 743 362 743 c 0
 393 743 419 767 419 797 c 0
 419 827 393 854 363 854 c 0
354 651 m 1
 277 648 257 638 257 559 c 2
 257 225 l 2
 257 89 302 30 404 30 c 0
 523 30 579 99 579 247 c 2
 579 552 l 2
 579 625 559 645 481 651 c 1
 481 676 l 1
 701 676 l 1
 701 651 l 1
 637 641 623 625 623 566 c 2
 623 247 l 2
 623 95 558 -19 365 -19 c 0
 292 -19 228 -1 180 34 c 0
 119 78 98 127 98 225 c 2
 98 559 l 2
 98 631 86 644 16 651 c 1
 16 676 l 1
 354 676 l 1
 354 651 l 1
EndSplineSet
EndChar

StartChar: uring
Encoding: 367 367 300
Width: 556
Flags: HMW
LayerCount: 2
Fore
SplineSet
270 707 m 0
 325 707 370 661 370 606 c 0
 370 550 325 505 269 505 c 0
 213 505 168 551 168 608 c 0
 168 661 215 707 270 707 c 0
269 662 m 0
 239 662 214 635 214 606 c 0
 214 575 238 551 268 551 c 0
 299 551 325 575 325 605 c 0
 325 635 299 662 269 662 c 0
343 -13 m 1
 343 52 l 1
 285 2 250 -14 198 -14 c 0
 115 -14 65 38 65 126 c 2
 65 378 l 2
 65 420 57 429 16 437 c 1
 16 461 l 1
 204 461 l 1
 204 122 l 2
 204 71 219 51 260 51 c 0
 288 51 309 62 342 95 c 1
 342 378 l 2
 342 421 330 433 280 437 c 1
 280 461 l 1
 481 461 l 1
 481 101 l 2
 481 58 493 45 537 43 c 1
 537 20 l 1
 475 13 l 2
 410 6 386 2 343 -13 c 1
EndSplineSet
EndChar

StartChar: Uhungarumlaut
Encoding: 368 368 301
Width: 722
Flags: HMW
LayerCount: 2
Fore
SplineSet
243 714 m 1
 380 871 l 2
 397 890 414 899 433 899 c 0
 462 899 481 881 481 855 c 0
 481 832 473 822 441 802 c 2
 299 714 l 1
 243 714 l 1
443 714 m 1
 580 871 l 2
 597 890 614 899 633 899 c 0
 662 899 681 881 681 855 c 0
 681 832 673 822 641 802 c 2
 499 714 l 1
 443 714 l 1
354 651 m 1
 277 648 257 638 257 559 c 2
 257 225 l 2
 257 89 302 30 404 30 c 0
 523 30 579 99 579 247 c 2
 579 552 l 2
 579 625 559 645 481 651 c 1
 481 676 l 1
 701 676 l 1
 701 651 l 1
 637 641 623 625 623 566 c 2
 623 247 l 2
 623 95 558 -19 365 -19 c 0
 292 -19 228 -1 180 34 c 0
 119 78 98 127 98 225 c 2
 98 559 l 2
 98 631 86 644 16 651 c 1
 16 676 l 1
 354 676 l 1
 354 651 l 1
EndSplineSet
EndChar

StartChar: uhungarumlaut
Encoding: 369 369 302
Width: 556
Flags: HMW
LayerCount: 2
Fore
SplineSet
100 528 m 1
 237 685 l 2
 254 704 271 713 290 713 c 0
 319 713 338 695 338 669 c 0
 338 646 330 636 298 616 c 2
 156 528 l 1
 100 528 l 1
300 528 m 1
 437 685 l 2
 454 704 471 713 490 713 c 0
 519 713 538 695 538 669 c 0
 538 646 530 636 498 616 c 2
 356 528 l 1
 300 528 l 1
343 -13 m 1
 343 52 l 1
 285 2 250 -14 198 -14 c 0
 115 -14 65 38 65 126 c 2
 65 378 l 2
 65 420 57 429 16 437 c 1
 16 461 l 1
 204 461 l 1
 204 122 l 2
 204 71 219 51 260 51 c 0
 288 51 309 62 342 95 c 1
 342 378 l 2
 342 421 330 433 280 437 c 1
 280 461 l 1
 481 461 l 1
 481 101 l 2
 481 58 493 45 537 43 c 1
 537 20 l 1
 475 13 l 2
 410 6 386 2 343 -13 c 1
EndSplineSet
EndChar

StartChar: Uogonek
Encoding: 370 370 303
Width: 722
Flags: MW
LayerCount: 2
Fore
SplineSet
612 -104 m 0
 639 -104 654 -91 672 -84 c 1
 694 -98 l 1
 669 -144 621 -173 571 -173 c 0
 509 -173 464 -139 464 -92 c 0
 464 -61 477 -37 522 19 c 1
 475 -7 424 -19 366 -19 c 0
 292 -19 228 -1 180 34 c 0
 119 78 98 127 98 225 c 2
 98 559 l 2
 98 631 86 644 16 651 c 1
 16 676 l 1
 354 676 l 1
 354 651 l 1
 277 648 257 638 257 559 c 2
 257 225 l 2
 257 89 302 30 404 30 c 0
 523 30 579 99 579 247 c 2
 579 552 l 2
 579 625 559 645 481 651 c 1
 481 676 l 1
 701 676 l 1
 701 651 l 1
 637 641 623 625 623 566 c 2
 623 247 l 2
 623 84 548 57 548 -29 c 0
 548 -81 568 -104 612 -104 c 0
EndSplineSet
Validated: 3073
EndChar

StartChar: uogonek
Encoding: 371 371 304
Width: 556
Flags: MW
LayerCount: 2
Fore
SplineSet
474 -104 m 0
 502 -104 522 -89 534 -84 c 1
 556 -98 l 1
 531 -144 483 -173 433 -173 c 0
 372 -173 327 -139 327 -93 c 0
 327 -74 332 -58 343 -39 c 1
 343 52 l 1
 285 2 250 -14 198 -14 c 0
 115 -14 65 38 65 126 c 2
 65 378 l 2
 65 420 57 429 16 437 c 1
 16 461 l 1
 204 461 l 1
 204 122 l 2
 204 71 219 51 260 51 c 0
 288 51 309 62 342 95 c 1
 342 378 l 2
 342 421 330 433 280 437 c 1
 280 461 l 1
 481 461 l 1
 481 101 l 2
 481 58 493 45 537 43 c 1
 537 20 l 1
 475 13 l 2
 434 9 411 -12 411 -44 c 0
 411 -82 434 -104 474 -104 c 0
EndSplineSet
Validated: 3073
EndChar

StartChar: Wcircumflex
Encoding: 372 372 305
Width: 1000
Flags: HMW
LayerCount: 2
Fore
SplineSet
657 724 m 1
 545 822 l 1
 433 724 l 1
 377 724 l 1
 499 900 l 1
 591 900 l 1
 714 724 l 1
 657 724 l 1
981 676 m 1
 981 651 l 1
 948 648 925 627 912 587 c 2
 712 -15 l 1
 685 -15 l 1
 514 462 l 1
 328 -15 l 1
 300 -15 l 1
 88 587 l 2
 71 636 61 645 19 651 c 1
 19 676 l 1
 313 676 l 1
 313 651 l 1
 261 647 249 638 249 609 c 0
 249 600 251 592 256 576 c 2
 376 212 l 1
 494 520 l 1
 459 616 l 1
 448 640 428 649 387 651 c 1
 387 676 l 1
 699 676 l 1
 699 651 l 1
 693 650 688 650 686 650 c 0
 642 647 627 638 627 614 c 0
 627 605 631 590 641 558 c 2
 749 222 l 1
 861 565 l 1
 866 579 868 594 868 607 c 0
 868 638 853 648 799 651 c 1
 799 676 l 1
 981 676 l 1
EndSplineSet
EndChar

StartChar: wcircumflex
Encoding: 373 373 306
Width: 722
Flags: HMW
LayerCount: 2
Fore
SplineSet
477 511 m 1
 365 609 l 1
 253 511 l 1
 197 511 l 1
 319 687 l 1
 411 687 l 1
 534 511 l 1
 477 511 l 1
541 180 m 1
 604 358 620 363 620 402 c 0
 620 425 609 433 572 437 c 1
 572 461 l 1
 707 461 l 1
 707 437 l 1
 681 432 672 425 657 387 c 0
 502 -14 l 1
 479 -14 l 1
 377 296 l 1
 252 -14 l 1
 228 -14 l 1
 80 360 l 1
 53 426 49 432 23 437 c 1
 23 461 l 1
 245 461 l 1
 245 437 l 1
 217 433 207 425 207 409 c 0
 207 388 257 263 267 240 c 2
 291 176 l 1
 359 347 l 1
 353 366 l 1
 334 432 333 433 294 437 c 1
 294 461 l 1
 528 461 l 1
 528 437 l 1
 490 434 480 429 480 413 c 0
 480 384 498 355 541 180 c 1
EndSplineSet
EndChar

StartChar: Ycircumflex
Encoding: 374 374 307
Width: 722
Flags: HMW
LayerCount: 2
Fore
SplineSet
469 724 m 1
 357 822 l 1
 245 724 l 1
 189 724 l 1
 311 900 l 1
 403 900 l 1
 526 724 l 1
 469 724 l 1
699 676 m 1
 699 651 l 1
 665 646 645 635 631 612 c 0
 440 301 l 1
 440 117 l 2
 440 43 450 33 532 25 c 1
 532 0 l 1
 185 0 l 1
 185 25 l 1
 267 33 278 44 278 117 c 2
 278 264 l 1
 95 596 l 1
 75 630 49 649 15 651 c 1
 15 676 l 1
 350 676 l 1
 350 651 l 1
 325 650 l 2
 284 650 269 642 269 620 c 0
 269 598 289 573 293 561 c 2
 413 329 l 1
 524 514 l 2
 549 555 563 590 563 609 c 0
 563 638 546 646 479 651 c 1
 479 676 l 1
 699 676 l 1
EndSplineSet
EndChar

StartChar: ycircumflex
Encoding: 375 375 308
Width: 500
Flags: HMW
LayerCount: 2
Fore
SplineSet
360 511 m 1
 248 609 l 1
 136 511 l 1
 80 511 l 1
 202 687 l 1
 294 687 l 1
 417 511 l 1
 360 511 l 1
138 -111 m 0
 138 -119 135 -127 135 -131 c 0
 135 -140 143 -148 152 -148 c 0
 175 -148 201 -116 218 -66 c 2
 236 -13 l 1
 116 282 l 2
 99 324 54 422 51 422 c 1
 45 431 39 434 16 437 c 1
 16 461 l 1
 266 461 l 1
 266 437 l 1
 250 436 l 2
 225 434 213 425 213 411 c 0
 213 403 213 403 233 352 c 2
 305 167 l 1
 373 359 l 2
 382 384 384 393 384 404 c 0
 384 428 372 435 329 437 c 1
 329 461 l 1
 480 461 l 1
 480 437 l 1
 449 434 438 424 422 382 c 0
 273 -15 l 2
 235 -116 209 -205 113 -205 c 0
 56 -205 16 -172 16 -126 c 0
 16 -88 43 -62 80 -62 c 0
 114 -62 138 -82 138 -111 c 0
EndSplineSet
EndChar

StartChar: Ydieresis
Encoding: 376 376 309
Width: 722
Flags: HMW
LayerCount: 2
Fore
SplineSet
285 876 m 0
 320 876 350 846 350 810 c 0
 350 775 321 747 285 747 c 0
 250 747 221 777 221 812 c 0
 221 846 251 876 285 876 c 0
494 876 m 0
 530 876 560 846 560 810 c 0
 560 775 531 747 494 747 c 0
 459 747 431 776 431 813 c 0
 431 846 461 876 494 876 c 0
699 676 m 1
 699 651 l 1
 665 646 645 635 631 612 c 0
 440 301 l 1
 440 117 l 2
 440 43 450 33 532 25 c 1
 532 0 l 1
 185 0 l 1
 185 25 l 1
 267 33 278 44 278 117 c 2
 278 264 l 1
 95 596 l 1
 75 630 49 649 15 651 c 1
 15 676 l 1
 350 676 l 1
 350 651 l 1
 325 650 l 2
 284 650 269 642 269 620 c 0
 269 598 289 573 293 561 c 2
 413 329 l 1
 524 514 l 2
 549 555 563 590 563 609 c 0
 563 638 546 646 479 651 c 1
 479 676 l 1
 699 676 l 1
EndSplineSet
EndChar

StartChar: Zacute
Encoding: 377 377 310
Width: 667
Flags: HMW
LayerCount: 2
Fore
SplineSet
253 715 m 1
 390 872 l 2
 407 891 424 900 443 900 c 0
 472 900 491 882 491 856 c 0
 491 833 483 823 451 803 c 2
 309 715 l 1
 253 715 l 1
299 35 m 2
 560 35 576 130 608 241 c 1
 634 241 l 1
 608 0 l 1
 28 0 l 1
 28 16 l 1
 410 641 l 1
 373 640 339 638 327 638 c 0
 179 638 135 609 87 470 c 1
 59 470 l 1
 80 676 l 1
 604 676 l 1
 604 660 l 1
 225 35 l 1
 299 35 l 2
EndSplineSet
EndChar

StartChar: zacute
Encoding: 378 378 311
Width: 444
Flags: HMW
LayerCount: 2
Fore
SplineSet
143 528 m 1
 280 685 l 2
 297 704 314 713 333 713 c 0
 362 713 381 695 381 669 c 0
 381 646 373 636 341 616 c 2
 199 528 l 1
 143 528 l 1
214 32 m 2
 317 32 364 59 392 160 c 1
 420 160 l 1
 404 0 l 1
 21 0 l 1
 21 25 l 1
 255 429 l 1
 251 429 247 429 244 429 c 0
 114 429 88 411 64 319 c 1
 38 319 l 1
 45 461 l 1
 416 461 l 1
 416 435 l 1
 185 32 l 1
 214 32 l 2
EndSplineSet
EndChar

StartChar: Zdotaccent
Encoding: 379 379 312
Width: 667
Flags: HMW
LayerCount: 2
Fore
SplineSet
333 876 m 0
 369 876 399 846 399 810 c 0
 399 775 370 747 333 747 c 0
 298 747 270 776 270 813 c 0
 270 846 300 876 333 876 c 0
299 35 m 2
 560 35 576 130 608 241 c 1
 634 241 l 1
 608 0 l 1
 28 0 l 1
 28 16 l 1
 410 641 l 1
 373 640 339 638 327 638 c 0
 179 638 135 609 87 470 c 1
 59 470 l 1
 80 676 l 1
 604 676 l 1
 604 660 l 1
 225 35 l 1
 299 35 l 2
EndSplineSet
EndChar

StartChar: zdotaccent
Encoding: 380 380 313
Width: 444
Flags: HMW
LayerCount: 2
Fore
SplineSet
221 666 m 0
 257 666 287 636 287 600 c 0
 287 565 258 537 221 537 c 0
 186 537 158 566 158 603 c 0
 158 636 188 666 221 666 c 0
214 32 m 2
 317 32 364 59 392 160 c 1
 420 160 l 1
 404 0 l 1
 21 0 l 1
 21 25 l 1
 255 429 l 1
 251 429 247 429 244 429 c 0
 114 429 88 411 64 319 c 1
 38 319 l 1
 45 461 l 1
 416 461 l 1
 416 435 l 1
 185 32 l 1
 214 32 l 2
EndSplineSet
EndChar

StartChar: Zcaron
Encoding: 381 381 314
Width: 667
Flags: HMW
LayerCount: 2
Fore
SplineSet
503 900 m 1
 380 724 l 1
 288 724 l 1
 166 900 l 1
 222 900 l 1
 334 801 l 1
 446 900 l 1
 503 900 l 1
299 35 m 2
 560 35 576 130 608 241 c 1
 634 241 l 1
 608 0 l 1
 28 0 l 1
 28 16 l 1
 410 641 l 1
 373 640 339 638 327 638 c 0
 179 638 135 609 87 470 c 1
 59 470 l 1
 80 676 l 1
 604 676 l 1
 604 660 l 1
 225 35 l 1
 299 35 l 2
EndSplineSet
EndChar

StartChar: zcaron
Encoding: 382 382 315
Width: 444
Flags: HMW
LayerCount: 2
Fore
SplineSet
401 704 m 1
 278 528 l 1
 186 528 l 1
 64 704 l 1
 120 704 l 1
 232 605 l 1
 344 704 l 1
 401 704 l 1
214 32 m 2
 317 32 364 59 392 160 c 1
 420 160 l 1
 404 0 l 1
 21 0 l 1
 21 25 l 1
 255 429 l 1
 251 429 247 429 244 429 c 0
 114 429 88 411 64 319 c 1
 38 319 l 1
 45 461 l 1
 416 461 l 1
 416 435 l 1
 185 32 l 1
 214 32 l 2
EndSplineSet
EndChar

StartChar: longs
Encoding: 383 383 316
Width: 333
Flags: MW
LayerCount: 2
Fore
SplineSet
267 584 m 0
 267 607 289 629 289 641 c 0
 289 653 278 660 260 660 c 0
 225 660 210 638 210 583 c 2
 210 103 l 2
 210 38 222 26 292 24 c 1
 292 0 l 1
 14 0 l 1
 14 24 l 1
 60 29 71 41 71 84 c 2
 71 417 l 1
 14 417 l 1
 14 461 l 1
 71 461 l 1
 71 595 93 691 246 691 c 0
 330 691 389 650 389 591 c 0
 389 554 364 529 327 529 c 0
 293 529 267 553 267 584 c 0
EndSplineSet
Validated: 3073
EndChar

StartChar: uni01C2
Encoding: 450 450 317
Width: 570
Flags: MW
LayerCount: 2
Fore
SplineSet
537 107 m 1
 328 107 l 1
 328 -102 l 1
 240 -102 l 1
 240 107 l 1
 33 107 l 1
 33 195 l 1
 240 195 l 1
 240 311 l 1
 33 311 l 1
 33 399 l 1
 240 399 l 1
 240 608 l 1
 328 608 l 1
 328 399 l 1
 537 399 l 1
 537 311 l 1
 328 311 l 1
 328 195 l 1
 537 195 l 1
 537 107 l 1
EndSplineSet
Validated: 3073
EndChar

StartChar: uni01CD
Encoding: 461 461 318
Width: 722
Flags: HM
LayerCount: 2
Fore
SplineSet
689 25 m 1
 689 0 l 1
 365 0 l 1
 365 25 l 1
 379 27 392 28 397 28 c 0
 432 30 445 40 445 61 c 0
 445 83 433 119 399 197 c 1
 174 197 l 1
 159 158 l 2
 138 104 130 79 130 66 c 0
 130 40 153 29 212 25 c 1
 212 0 l 1
 9 0 l 1
 9 25 l 1
 57 34 69 49 107 142 c 2
 329 690 l 1
 357 690 l 1
 580 164 l 2
 630 46 646 25 685 25 c 2
 689 25 l 1
189 236 m 1
 384 236 l 1
 283 479 l 1
 189 236 l 1
517 892 m 1
 394 716 l 1
 302 716 l 1
 180 892 l 1
 236 892 l 1
 348 793 l 1
 460 892 l 1
 517 892 l 1
EndSplineSet
EndChar

StartChar: uni01CE
Encoding: 462 462 319
Width: 500
Flags: HM
LayerCount: 2
Fore
SplineSet
147 404 m 0
 147 390 177 369 177 339 c 0
 177 305 149 281 109 281 c 0
 68 281 44 306 44 347 c 0
 44 422 120 473 233 473 c 0
 355 473 431 420 431 336 c 2
 431 75 l 2
 431 59 438 50 452 50 c 0
 457 50 460 51 463 54 c 2
 473 64 l 1
 488 43 l 1
 450 2 419 -14 376 -14 c 0
 327 -14 305 5 294 56 c 1
 239 6 193 -14 136 -14 c 0
 72 -14 25 31 25 92 c 0
 25 205 178 245 294 280 c 1
 294 353 l 2
 294 414 268 441 210 441 c 0
 175 441 147 425 147 404 c 0
293 100 m 1
 293 245 l 1
 213 224 171 182 171 124 c 0
 171 84 192 57 222 57 c 0
 246 57 266 69 293 100 c 1
425 677 m 1
 302 501 l 1
 210 501 l 1
 88 677 l 1
 144 677 l 1
 256 578 l 1
 368 677 l 1
 425 677 l 1
EndSplineSet
EndChar

StartChar: uni01CF
Encoding: 463 463 320
Width: 386
Flags: HM
LayerCount: 2
Fore
SplineSet
109 96 m 2
 109 580 l 2
 109 631 88 646 16 651 c 1
 16 676 l 1
 366 676 l 1
 366 651 l 1
 292 648 271 632 271 580 c 2
 271 96 l 2
 271 44 290 30 366 25 c 1
 366 0 l 1
 16 0 l 1
 16 25 l 1
 91 32 109 46 109 96 c 2
359 892 m 1
 236 716 l 1
 144 716 l 1
 22 892 l 1
 78 892 l 1
 190 793 l 1
 302 892 l 1
 359 892 l 1
EndSplineSet
EndChar

StartChar: uni01D0
Encoding: 464 464 321
Width: 278
Flags: HM
LayerCount: 2
Fore
SplineSet
208 461 m 1
 208 81 l 2
 208 43 220 29 255 24 c 1
 255 0 l 1
 16 0 l 1
 16 24 l 1
 62 35 69 43 69 84 c 2
 69 378 l 2
 69 419 60 428 16 437 c 1
 16 461 l 1
 208 461 l 1
304 677 m 1
 181 501 l 1
 89 501 l 1
 -33 677 l 1
 23 677 l 1
 135 578 l 1
 247 677 l 1
 304 677 l 1
EndSplineSet
EndChar

StartChar: uni01D1
Encoding: 465 465 322
Width: 778
Flags: HM
LayerCount: 2
Fore
SplineSet
393 691 m 0
 594 691 743 540 743 336 c 0
 743 129 596 -19 389 -19 c 0
 182 -19 35 128 35 335 c 0
 35 543 184 691 393 691 c 0
392 658 m 0
 275 658 212 542 212 326 c 0
 212 124 274 14 389 14 c 0
 504 14 566 124 566 329 c 0
 566 537 502 658 392 658 c 0
557 892 m 1
 434 716 l 1
 342 716 l 1
 220 892 l 1
 276 892 l 1
 388 793 l 1
 500 892 l 1
 557 892 l 1
EndSplineSet
EndChar

StartChar: uni01D2
Encoding: 466 466 323
Width: 500
Flags: HM
LayerCount: 2
Fore
SplineSet
251 473 m 0
 380 473 476 369 476 229 c 0
 476 90 380 -14 251 -14 c 0
 120 -14 25 89 25 232 c 0
 25 368 124 473 251 473 c 0
252 442 m 0
 190 442 172 390 172 214 c 0
 172 68 192 17 251 17 c 0
 309 17 329 69 329 223 c 0
 329 387 310 442 252 442 c 0
419 677 m 1
 296 501 l 1
 204 501 l 1
 82 677 l 1
 138 677 l 1
 250 578 l 1
 362 677 l 1
 419 677 l 1
EndSplineSet
EndChar

StartChar: uni01D3
Encoding: 467 467 324
Width: 722
Flags: HM
LayerCount: 2
Fore
SplineSet
354 651 m 1
 277 648 257 638 257 559 c 2
 257 225 l 2
 257 89 302 30 404 30 c 0
 523 30 579 99 579 247 c 2
 579 552 l 2
 579 625 559 645 481 651 c 1
 481 676 l 1
 701 676 l 1
 701 651 l 1
 637 641 623 625 623 566 c 2
 623 247 l 2
 623 95 558 -19 365 -19 c 0
 292 -19 228 -1 180 34 c 0
 119 78 98 127 98 225 c 2
 98 559 l 2
 98 631 86 644 16 651 c 1
 16 676 l 1
 354 676 l 1
 354 651 l 1
527 892 m 1
 404 716 l 1
 312 716 l 1
 190 892 l 1
 246 892 l 1
 358 793 l 1
 470 892 l 1
 527 892 l 1
EndSplineSet
EndChar

StartChar: uni01D4
Encoding: 468 468 325
Width: 556
Flags: HM
LayerCount: 2
Fore
SplineSet
343 -13 m 1
 343 52 l 1
 285 2 250 -14 198 -14 c 0
 115 -14 65 38 65 126 c 2
 65 378 l 2
 65 420 57 429 16 437 c 1
 16 461 l 1
 204 461 l 1
 204 122 l 2
 204 71 219 51 260 51 c 0
 288 51 309 62 342 95 c 1
 342 378 l 2
 342 421 330 433 280 437 c 1
 280 461 l 1
 481 461 l 1
 481 101 l 2
 481 58 493 45 537 43 c 1
 537 20 l 1
 475 13 l 2
 410 6 386 2 343 -13 c 1
445 677 m 1
 322 501 l 1
 230 501 l 1
 108 677 l 1
 164 677 l 1
 276 578 l 1
 388 677 l 1
 445 677 l 1
EndSplineSet
EndChar

StartChar: uni01D5
Encoding: 469 469 326
Width: 722
Flags: HM
LayerCount: 2
Fore
SplineSet
542 900 m 1
 542 828 l 1
 212 828 l 1
 212 900 l 1
 542 900 l 1
277 759 m 0
 312 759 342 729 342 693 c 0
 342 658 313 630 277 630 c 0
 242 630 213 660 213 695 c 0
 213 729 243 759 277 759 c 0
486 759 m 0
 522 759 552 729 552 693 c 0
 552 658 523 630 486 630 c 0
 451 630 423 659 423 696 c 0
 423 729 453 759 486 759 c 0
354 553 m 1
 277 551 257 542 257 475 c 2
 257 191 l 2
 257 76 302 26 404 26 c 0
 523 26 579 84 579 210 c 2
 579 469 l 2
 579 531 559 548 481 553 c 1
 481 575 l 1
 701 575 l 1
 701 553 l 1
 637 545 623 531 623 481 c 2
 623 210 l 2
 623 81 558 -16 365 -16 c 0
 292 -16 228 -1 180 29 c 0
 119 66 98 108 98 191 c 2
 98 475 l 2
 98 536 86 547 16 553 c 1
 16 575 l 1
 354 575 l 1
 354 553 l 1
EndSplineSet
EndChar

StartChar: uni01D6
Encoding: 470 470 327
Width: 556
Flags: HM
LayerCount: 2
Fore
SplineSet
159 666 m 0
 194 666 224 636 224 600 c 0
 224 565 195 537 159 537 c 0
 124 537 95 567 95 602 c 0
 95 636 125 666 159 666 c 0
368 666 m 0
 404 666 434 636 434 600 c 0
 434 565 405 537 368 537 c 0
 333 537 305 566 305 603 c 0
 305 636 335 666 368 666 c 0
343 -13 m 1
 343 52 l 1
 285 2 250 -14 198 -14 c 0
 115 -14 65 38 65 126 c 2
 65 378 l 2
 65 420 57 429 16 437 c 1
 16 461 l 1
 204 461 l 1
 204 122 l 2
 204 71 219 51 260 51 c 0
 288 51 309 62 342 95 c 1
 342 378 l 2
 342 421 330 433 280 437 c 1
 280 461 l 1
 481 461 l 1
 481 101 l 2
 481 58 493 45 537 43 c 1
 537 20 l 1
 475 13 l 2
 410 6 386 2 343 -13 c 1
441 788 m 1
 441 716 l 1
 111 716 l 1
 111 788 l 1
 441 788 l 1
EndSplineSet
EndChar

StartChar: uni01D7
Encoding: 471 471 328
Width: 722
Flags: HM
LayerCount: 2
Fore
SplineSet
342 715 m 1
 479 872 l 2
 496 891 513 900 532 900 c 0
 561 900 580 882 580 856 c 0
 580 833 572 823 540 803 c 2
 398 715 l 1
 342 715 l 1
354 553 m 1
 277 551 257 542 257 475 c 2
 257 191 l 2
 257 76 302 26 404 26 c 0
 523 26 579 84 579 210 c 2
 579 469 l 2
 579 531 559 548 481 553 c 1
 481 575 l 1
 701 575 l 1
 701 553 l 1
 637 545 623 531 623 481 c 2
 623 210 l 2
 623 81 558 -16 365 -16 c 0
 292 -16 228 -1 180 29 c 0
 119 66 98 108 98 191 c 2
 98 475 l 2
 98 536 86 547 16 553 c 1
 16 575 l 1
 354 575 l 1
 354 553 l 1
277 746 m 0
 312 746 342 716 342 680 c 0
 342 645 313 617 277 617 c 0
 242 617 213 647 213 682 c 0
 213 716 243 746 277 746 c 0
486 746 m 0
 522 746 552 716 552 680 c 0
 552 645 523 617 486 617 c 0
 451 617 423 646 423 683 c 0
 423 716 453 746 486 746 c 0
EndSplineSet
EndChar

StartChar: uni01D8
Encoding: 472 472 329
Width: 556
Flags: HM
LayerCount: 2
Fore
SplineSet
159 666 m 0
 194 666 224 636 224 600 c 0
 224 565 195 537 159 537 c 0
 124 537 95 567 95 602 c 0
 95 636 125 666 159 666 c 0
368 666 m 0
 404 666 434 636 434 600 c 0
 434 565 405 537 368 537 c 0
 333 537 305 566 305 603 c 0
 305 636 335 666 368 666 c 0
343 -13 m 1
 343 52 l 1
 285 2 250 -14 198 -14 c 0
 115 -14 65 38 65 126 c 2
 65 378 l 2
 65 420 57 429 16 437 c 1
 16 461 l 1
 204 461 l 1
 204 122 l 2
 204 71 219 51 260 51 c 0
 288 51 309 62 342 95 c 1
 342 378 l 2
 342 421 330 433 280 437 c 1
 280 461 l 1
 481 461 l 1
 481 101 l 2
 481 58 493 45 537 43 c 1
 537 20 l 1
 475 13 l 2
 410 6 386 2 343 -13 c 1
223 715 m 1
 360 872 l 2
 377 891 394 900 413 900 c 0
 442 900 461 882 461 856 c 0
 461 833 453 823 421 803 c 2
 279 715 l 1
 223 715 l 1
EndSplineSet
EndChar

StartChar: uni01D9
Encoding: 473 473 330
Width: 722
Flags: HM
LayerCount: 2
Fore
SplineSet
551 900 m 1
 428 724 l 1
 336 724 l 1
 214 900 l 1
 270 900 l 1
 382 801 l 1
 494 900 l 1
 551 900 l 1
354 553 m 1
 277 551 257 542 257 475 c 2
 257 191 l 2
 257 76 302 26 404 26 c 0
 523 26 579 84 579 210 c 2
 579 469 l 2
 579 531 559 548 481 553 c 1
 481 575 l 1
 701 575 l 1
 701 553 l 1
 637 545 623 531 623 481 c 2
 623 210 l 2
 623 81 558 -16 365 -16 c 0
 292 -16 228 -1 180 29 c 0
 119 66 98 108 98 191 c 2
 98 475 l 2
 98 536 86 547 16 553 c 1
 16 575 l 1
 354 575 l 1
 354 553 l 1
277 733 m 0
 312 733 342 703 342 667 c 0
 342 632 313 604 277 604 c 0
 242 604 213 634 213 669 c 0
 213 703 243 733 277 733 c 0
486 733 m 0
 522 733 552 703 552 667 c 0
 552 632 523 604 486 604 c 0
 451 604 423 633 423 670 c 0
 423 703 453 733 486 733 c 0
EndSplineSet
EndChar

StartChar: uni01DA
Encoding: 474 474 331
Width: 556
Flags: HM
LayerCount: 2
Fore
SplineSet
159 666 m 0
 194 666 224 636 224 600 c 0
 224 565 195 537 159 537 c 0
 124 537 95 567 95 602 c 0
 95 636 125 666 159 666 c 0
368 666 m 0
 404 666 434 636 434 600 c 0
 434 565 405 537 368 537 c 0
 333 537 305 566 305 603 c 0
 305 636 335 666 368 666 c 0
343 -13 m 1
 343 52 l 1
 285 2 250 -14 198 -14 c 0
 115 -14 65 38 65 126 c 2
 65 378 l 2
 65 420 57 429 16 437 c 1
 16 461 l 1
 204 461 l 1
 204 122 l 2
 204 71 219 51 260 51 c 0
 288 51 309 62 342 95 c 1
 342 378 l 2
 342 421 330 433 280 437 c 1
 280 461 l 1
 481 461 l 1
 481 101 l 2
 481 58 493 45 537 43 c 1
 537 20 l 1
 475 13 l 2
 410 6 386 2 343 -13 c 1
445 892 m 1
 322 716 l 1
 230 716 l 1
 108 892 l 1
 164 892 l 1
 276 793 l 1
 388 892 l 1
 445 892 l 1
EndSplineSet
EndChar

StartChar: uni01DB
Encoding: 475 475 332
Width: 722
Flags: HM
LayerCount: 2
Fore
SplineSet
424 714 m 1
 368 714 l 1
 226 802 l 2
 197 820 186 834 186 854 c 0
 186 879 207 899 233 899 c 0
 252 899 271 889 287 871 c 2
 424 714 l 1
354 553 m 1
 277 551 257 542 257 475 c 2
 257 191 l 2
 257 76 302 26 404 26 c 0
 523 26 579 84 579 210 c 2
 579 469 l 2
 579 531 559 548 481 553 c 1
 481 575 l 1
 701 575 l 1
 701 553 l 1
 637 545 623 531 623 481 c 2
 623 210 l 2
 623 81 558 -16 365 -16 c 0
 292 -16 228 -1 180 29 c 0
 119 66 98 108 98 191 c 2
 98 475 l 2
 98 536 86 547 16 553 c 1
 16 575 l 1
 354 575 l 1
 354 553 l 1
277 741 m 0
 312 741 342 711 342 675 c 0
 342 640 313 612 277 612 c 0
 242 612 213 642 213 677 c 0
 213 711 243 741 277 741 c 0
486 741 m 0
 522 741 552 711 552 675 c 0
 552 640 523 612 486 612 c 0
 451 612 423 641 423 678 c 0
 423 711 453 741 486 741 c 0
EndSplineSet
EndChar

StartChar: uni01DC
Encoding: 476 476 333
Width: 556
Flags: HM
LayerCount: 2
Fore
SplineSet
159 666 m 0
 194 666 224 636 224 600 c 0
 224 565 195 537 159 537 c 0
 124 537 95 567 95 602 c 0
 95 636 125 666 159 666 c 0
368 666 m 0
 404 666 434 636 434 600 c 0
 434 565 405 537 368 537 c 0
 333 537 305 566 305 603 c 0
 305 636 335 666 368 666 c 0
343 -13 m 1
 343 52 l 1
 285 2 250 -14 198 -14 c 0
 115 -14 65 38 65 126 c 2
 65 378 l 2
 65 420 57 429 16 437 c 1
 16 461 l 1
 204 461 l 1
 204 122 l 2
 204 71 219 51 260 51 c 0
 288 51 309 62 342 95 c 1
 342 378 l 2
 342 421 330 433 280 437 c 1
 280 461 l 1
 481 461 l 1
 481 101 l 2
 481 58 493 45 537 43 c 1
 537 20 l 1
 475 13 l 2
 410 6 386 2 343 -13 c 1
334 715 m 1
 278 715 l 1
 136 803 l 2
 107 821 96 835 96 855 c 0
 96 880 117 900 143 900 c 0
 162 900 181 890 197 872 c 2
 334 715 l 1
EndSplineSet
EndChar

StartChar: uni01DD
Encoding: 477 477 334
Width: 444
Flags: HMW
AnchorPoint: "above" 225 470 basechar 0
LayerCount: 2
Fore
SplineSet
281 215 m 1
 277 289 263 402 162 402 c 0
 119 402 88 384 48 335 c 1
 24 349 l 1
 89 442 138 474 219 474 c 0
 343 474 425 378 425 232 c 0
 425 86 341 -13 216 -13 c 0
 65 -13 36 116 29 215 c 1
 281 215 l 1
152 163 m 2
 155 77 158 18 216 18 c 0
 265 18 283 58 286 178 c 1
 152 178 l 1
 152 163 l 2
EndSplineSet
EndChar

StartChar: uni01DE
Encoding: 478 478 335
Width: 722
Flags: HM
LayerCount: 2
Fore
SplineSet
508 900 m 1
 508 828 l 1
 178 828 l 1
 178 900 l 1
 508 900 l 1
237 806 m 0
 272 806 302 776 302 740 c 0
 302 705 273 677 237 677 c 0
 202 677 173 707 173 742 c 0
 173 776 203 806 237 806 c 0
446 806 m 0
 482 806 512 776 512 740 c 0
 512 705 483 677 446 677 c 0
 411 677 383 706 383 743 c 0
 383 776 413 806 446 806 c 0
689 25 m 1
 689 0 l 1
 365 0 l 1
 365 25 l 1
 379 27 392 28 397 28 c 0
 432 30 445 40 445 61 c 0
 445 83 433 119 399 197 c 1
 174 197 l 1
 159 158 l 2
 138 104 130 79 130 66 c 0
 130 40 153 29 212 25 c 1
 212 0 l 1
 9 0 l 1
 9 25 l 1
 57 34 69 49 107 142 c 2
 329 690 l 1
 357 690 l 1
 580 164 l 2
 630 46 646 25 685 25 c 2
 689 25 l 1
189 236 m 1
 384 236 l 1
 283 479 l 1
 189 236 l 1
EndSplineSet
EndChar

